<?xml version="1.0" encoding="UTF-8"?>
<svg id="Calque_3" data-name="Calque 3" xmlns="http://www.w3.org/2000/svg" viewBox="0 0 1080 1080">
  <defs>
    <style>
      .cls-1 {
        fill: #987d59;
      }

      .cls-2 {
        fill: #fbfbfa;
      }
    </style>
  </defs>
  <g>
    <path class="cls-2" d="M500.51,454.11c-8.64.6-11.81,9.14-16.12,15.48-20.65,30.35-33.96,67.98-54.75,97.51-6.6,9.38-16,17.76-22.97,26.82-6.78-1.98-11.53-12.31-15.36-18.16-71.99-109.58-130.54-238.05-158.17-366.23-.3-1.34,1.2-2.33,1.18-2.47l42.12,13.41c-6.11-31.63-46.89-36.16-72.77-44.04,2.24,11.53,4.99,23.03,7.66,34.46,28.95,123.97,86.82,264.96,160.43,369.1,6.19,8.74,14.85,22.95,25.34,25.4-.38.54-.04,4.29-1.76,6.78-15.06,21.93-30.35,34.44-26.12,64.19,6.38,44.84,29.89,47.67,9.06,100.77-40.65,103.54-123.27,176.29-174.95,273.2-1.84,3.45-3.65,6.96-5.45,10.56h-20.53c25.26-93.04,34.9-190.12,50.18-285.12l85.94-4.07c4.81-1.64,6.46-14.03,7.02-18.84h-85.22c-7.36,0,2.31-41.24,2.83-46.95,6.64-71.67,4.79-148.02-19.08-216.42l-40.25-100.49c-3.07,192.85-1.6,386.12-1.98,579.23-2.35,12.41-22.83,4.97-31.47,4.77-25.84-.6-51.82.62-77.64.08v-48.83c0-6.76,30.73-.78,35.42-.8,8.7-.06,20.63-3.39,29.69-4.01,2.31-7.36-9.32-11.47-14.37-11.47h-50.74c-3.95-8.64.76-15.96-.02-24.9,10.54.04,21.13-.02,31.69-.08,5.13-.04,36.44,3.75,26.88-9.64-4.77-6.64-53.64,2.29-57.73-3.57-1.93-2.79-1.06-59.22-.9-68.18,2.85-163.64-.96-328.51,3.97-492.01,1.32-43.16.86-86.38,7.92-129.04,69-33.16,151.73-53.42,213.12-99.97,4.59-3.49,15.16-14.63,18.24-16.24,2.59-1.36,2.99-1.28,4.89.94,9.9,91.03,15.6,182.22,32.14,272.35,11.13,60.76,31.79,166.49,56.77,220.92.88,1.9,1.18,4.49,3.89,4.71,18.56-64.53,37.25-128.7,49.21-194.99,15.96-88.63,20.35-178.4,33.4-267.26.98-6.64,2.41-17.92,5.05-23.69,1.18-2.57.18-3.03,4.27-2.41,4.95,26.12,2.89,51.44,3.75,77.64,3.31,100.45-4.27,201.01-3.73,301.54Z"/>
    <path class="cls-2" d="M1013.9,1060.9h-20.63c-21.43-68-50.56-134.05-80.01-191.25-93-180.56-243.59-341.25-76.68-540.04,31.47-37.47,88.1-87.74,140.61-70.64.94,4.05-.4,7.96-2.73,11.27-5.51,7.82-42.58,29.01-53.24,36.77-45.69,33.28-80.73,64.71-100.92,119.3-54.75,148.02,35.28,253.01,99.95,375.07,43.86,82.79,75.6,169.6,93.66,259.52Z"/>
    <path class="cls-2" d="M500.51,479.02l-24.1,43.88c-9.54,11.39-18.36,31.51-29.53,40.39,1.68,6.17-4.19,7.4-5.75,9.58-1.1,1.56-2.35,3.67-3.83,5.75-11.47,16.34-49.9,72.59-51.7,89.03-4.51,41.54,26.48,85.8,38.41,122.47,18.48,56.81,29.23,113.14,64.21,163.68,1.52,2.2,6.92,12.13,10.36,9.74,3.49-2.47.76-39.47,3.93-46.83,2.17-145.96-2.69-291.96-2-437.68ZM405.83,685.73c-32.6-4.75-.72-46.27,17.54-28.07,11.35,11.31,1.6,30.85-17.54,28.07Z"/>
    <path class="cls-1" d="M529.31,1060.9c1.38-302.77-1.84-605.97,1.76-908.48.4-33.3-1.36-71.25,0-103.42.68-16.02,9.62-50.38,13.47-13.29,10.76,103.78,2.99,209.99,1.86,313.97-1.26,115.81-1.86,231.1.1,346.67,2.06,121.3,5.43,242.97,5.67,364.55h-22.85Z"/>
    <path class="cls-2" d="M670.78,1060.9h-22.41c-.76-32.62-2.77-65.63-4.31-100.17-.18-3.93-1.78-10.22,3.89-8.7,5.73,36.61,18.02,71.61,22.77,108.45l.06.42Z"/>
    <path class="cls-2" d="M751.65,1060.9h-36.76c-20.71-65.47-43.66-128.4-54.85-181.28-6.41-30.31-8.64-61-13.89-91.47l5.59-2.71c17.66,82.17,56.29,158.63,85.76,236.99,4.59,12.19,9.38,25.08,14.15,38.47Z"/>
    <path class="cls-2" d="M427.72,837.14v33.5c0,39.09-47.17,144.36-61.8,187.16-.36,1.02-.7,2.05-1.04,3.09h-35.8c20.83-58.64,45.25-115.25,65.19-162.42,5.23-12.37,19.47-52.02,27.67-58.5,1.94-1.52,2.47-3.63,5.77-2.83Z"/>
    <path class="cls-2" d="M969.71,193.66l1.92,45.98c-74.45,5.74-156.69,16.28-217.34,63.23-26.13,20.22-51.01,52.84-60.91,84.64-1.9,6.12-5.89,32.85-7.14,34.05-3.21,3.06-3.23-.67-3.86-2.78-2.23-7.42-2.43-15.97-4.74-24.01-11.06-38.43-34.79-72.39-68.15-94.64-12.03-8.02-25.23-13.07-38.03-19.55,5.92-14.53,3.22-29.41,3.74-44.77,31.88,9.51,67.56,35.61,89.07,61.25,6.03,7.19,11.07,18.59,17.34,24.8,1.57,1.56,1.69,2.76,4.63,2.03,53.28-100.33,180.24-121.13,283.47-130.22Z"/>
    <path class="cls-2" d="M927.54,1060.9h-34.86c-56.31-135.24-136.94-264.94-164.26-407.61l40.47,96.44c49.9,102.82,114.37,203.77,158.65,311.17Z"/>
    <path class="cls-1" d="M392.88,799.27c-2.17,23.86-14.39,55.85-23.09,78.56-24.06,62.81-56.49,122.14-84.48,183.07h-34.18c29.95-61.1,66.7-119.58,93.22-181.7,8.04-18.82,22.33-69.52,35.64-81.19,4.59-4.03,13.77-8.2,12.89,1.26Z"/>
    <path class="cls-2" d="M745.64,27.04c-4.78,54.83,47.13,85.79,91.44,102.94,37.55,14.53,79.79,21.37,114.74,42.3,2.12,1.27,9.53,4.19,8.29,6.99-1.34,3.03-13.51,6.84-17.16,7.75-26.38,6.57-71.15-7.28-97.73-15.39-43.7-13.33-99.42-36.77-121.65-79.44-3.2-6.14-6.05-18.17-8.75-21.89-5.12-7.07-20.79-1.32-27.81-1.31-7.75,0-17.35-4.19-25.77-.89-13.28,39.1-46.04,76.82-87.88,85.28-3.64-11.86-1.74-24.73-1.76-37.03.94-2.75,13.67-6.73,17.59-9.22,27.29-17.29,35.14-49.65,37.7-80.08,23.59,7.74,56.38,7.59,81.47,5.82,12.95-.91,24.37-5.97,37.26-5.84Z"/>
    <path class="cls-2" d="M438.28,946.31l-1,41.14c-2.59,24.12-4.55,48.71-5.55,73.45h-27.28c3.83-24.94,9.52-49.68,17.02-73.95,4.23-13.69,8.42-28.97,16.8-40.65Z"/>
    <path class="cls-1" d="M211.33,210.9c5.06-3.61,3.78-10.14,3.84-15.33,5.4-2.99,18.26,8.13,19.14,11.5.03.13-1.46,1.14-1.18,2.47,27.64,128.17,86.19,256.64,158.17,366.23,3.84,5.85,8.58,16.18,15.36,18.15-3.03,3.93-6.74,7.5-9.58,11.49-10.48-2.47-19.16-16.68-25.33-25.42-73.61-104.13-131.47-245.11-160.43-369.09Z"/>
    <path class="cls-2" d="M561.81,683.93c.65-12.41,5.82-27.04,5.89-39.27.09-16.5-3.47-33.94-2.05-51.67,1.53-19.13,8.65-38.02,9.63-57.4,2.07-41-8.25-82.39-3.86-124.53.29-2.8-1.68-5.61,2.79-4.8,20.22,25.63,31.64,62.69,35.2,95.03,6.36,57.78-9.86,127.42-41.51,176.31-1.55,2.39-3.11,5.53-6.1,6.33Z"/>
    <path class="cls-2" d="M469.86,155.36c-11.68-3.47-23.08-8.05-34.41-12.51-5.98-2.36-13.84-8.18-19.15-9.56-22.76-5.92-48.8,17.28-70.91,20.15,1.39-24.42-2.83-48.38-1.92-72.76,18.71,8.14,43.24,24.63,64.16,25.03,14.94.29,40.71-13.34,54.63-20.2,1.83-.9,11.09-8.71,9.27-2.26-.29,1.02-1.67,1.69-1.67,2.2v69.9Z"/>
    <path class="cls-2" d="M487.09,36.59l-81.1,53.5-72.09-57.28c4.37-.74,8.24-2.81,12.63-3.67,33.81-6.66,97.56-6.14,131.51.27,3.89.73,9.87,2.24,9.06,7.17Z"/>
    <path class="cls-1" d="M500.5,454.12c.04,7.73.04,17.3,0,24.9l-24.1,43.88c-9.52,11.39-18.35,31.5-29.52,40.38-2.43,1.93-6.61.42-5.75,9.58-1.11,1.56-2.37,3.67-3.83,5.75-8.55-2.14-3.87-5.82-7.66-11.49,20.78-29.52,34.09-67.16,54.74-97.51,4.31-6.34,7.5-14.89,16.12-15.48Z"/>
    <path class="cls-2" d="M176.86,998.01v5.73c-27.06,4.63-54.18-.89-81.49-.08-9.08.27-18.19,3.45-27.69,2.02v-9.59s109.18,1.93,109.18,1.93Z"/>
    <path class="cls-2" d="M415.71,284.21c8.31,8.26,4.94,25.33-8.41,25.78-23.38.8-9.38-43.46,8.41-25.78Z"/>
    <path class="cls-2" d="M415.69,360.86c10.53,8.49,1.86,30.08-12.82,23.36-16.49-7.56-3.69-36.66,12.82-23.36Z"/>
    <path class="cls-2" d="M399.5,227.61c-10.23-9.42-1.86-31.39,14.84-23.41,15.85,7.57-3.05,34.27-14.84,23.41Z"/>
    <path class="cls-2" d="M835.99,1060.89h-34.77c-3.63-8.65-7.37-17.27-11.19-25.89-42.06-94.06-82.53-167.56-105.69-270.64-3.59-16.1-10.09-34.2-9.6-50.75.11-2.91-1.7-7.6,2.87-6.69,6.05,10.28,5.48,23.66,8.77,35.33,2.46,8.8,6.5,18.86,9.45,27.85,33.59,101.99,95.49,193.89,140.16,290.79Z"/>
    <path class="cls-2" d="M402.3,435.31c10.94-3.18,22.99,13.19,8.9,20.47-21.7,11.22-21.14-16.91-8.9-20.47Z"/>
    <path class="cls-2" d="M410.23,155.65c5.3,3.3,5.35,29.32-6.08,26.34-12.27-3.2-7-34.48,6.08-26.34Z"/>
  </g>
  <path class="cls-2" d="M1013.9,1060.9h-20.63c-21.43-68-50.56-134.05-80.01-191.25-93-180.56-243.59-341.25-76.68-540.04,31.47-37.47,88.1-87.74,140.61-70.64.94,4.05-.4,7.96-2.73,11.27-5.51,7.82-42.58,29.01-53.24,36.77-45.69,33.28-80.73,64.71-100.92,119.3-54.75,148.02,35.28,253.01,99.95,375.07,43.86,82.79,75.6,169.6,93.66,259.52Z"/>
  <path class="cls-2" d="M670.78,1060.9h-22.41c-.76-32.62-2.77-65.63-4.31-100.17-.18-3.93-1.78-10.22,3.89-8.7,5.73,36.61,18.02,71.61,22.77,108.45l.06.42Z"/>
  <path class="cls-2" d="M751.65,1060.9h-36.76c-20.71-65.47-43.66-128.4-54.85-181.28-6.41-30.31-8.64-61-13.89-91.47l5.59-2.71c17.66,82.17,56.29,158.63,85.76,236.99,4.59,12.19,9.38,25.08,14.15,38.47Z"/>
  <path class="cls-2" d="M969.71,193.66l1.92,45.98c-74.45,5.74-156.69,16.28-217.34,63.23-26.13,20.22-51.01,52.84-60.91,84.64-1.9,6.12-5.89,32.85-7.14,34.05-3.21,3.06-3.23-.67-3.86-2.78-2.23-7.42-2.43-15.97-4.74-24.01-11.06-38.43-34.79-72.39-68.15-94.64-12.03-8.02-25.23-13.07-38.03-19.55,5.92-14.53,3.22-29.41,3.74-44.77,31.88,9.51,67.56,35.61,89.07,61.25,6.03,7.19,11.07,18.59,17.34,24.8,1.57,1.56,1.69,2.76,4.63,2.03,53.28-100.33,180.24-121.13,283.47-130.22Z"/>
  <path class="cls-2" d="M927.54,1060.9h-34.86c-56.31-135.24-136.94-264.94-164.26-407.61l40.47,96.44c49.9,102.82,114.37,203.77,158.65,311.17Z"/>
  <path class="cls-2" d="M745.64,27.04c-4.78,54.83,47.13,85.79,91.44,102.94,37.55,14.53,79.79,21.37,114.74,42.3,2.12,1.27,9.53,4.19,8.29,6.99-1.34,3.03-13.51,6.84-17.16,7.75-26.38,6.57-71.15-7.28-97.73-15.39-43.7-13.33-99.42-36.77-121.65-79.44-3.2-6.14-6.05-18.17-8.75-21.89-5.12-7.07-20.79-1.32-27.81-1.31-7.75,0-17.35-4.19-25.77-.89-13.28,39.1-46.04,76.82-87.88,85.28-3.64-11.86-1.74-24.73-1.76-37.03.94-2.75,13.67-6.73,17.59-9.22,27.29-17.29,35.14-49.65,37.7-80.08,23.59,7.74,56.38,7.59,81.47,5.82,12.95-.91,24.37-5.97,37.26-5.84Z"/>
  <path class="cls-2" d="M561.81,683.93c.65-12.41,5.82-27.04,5.89-39.27.09-16.5-3.47-33.94-2.05-51.67,1.53-19.13,8.65-38.02,9.63-57.4,2.07-41-8.25-82.39-3.86-124.53.29-2.8-1.68-5.61,2.79-4.8,20.22,25.63,31.64,62.69,35.2,95.03,6.36,57.78-9.86,127.42-41.51,176.31-1.55,2.39-3.11,5.53-6.1,6.33Z"/>
  <path class="cls-2" d="M835.99,1060.89h-34.77c-3.63-8.65-7.37-17.27-11.19-25.89-42.06-94.06-82.53-167.56-105.69-270.64-3.59-16.1-10.09-34.2-9.6-50.75.11-2.91-1.7-7.6,2.87-6.69,6.05,10.28,5.48,23.66,8.77,35.33,2.46,8.8,6.5,18.86,9.45,27.85,33.59,101.99,95.49,193.89,140.16,290.79Z"/>
  <path class="cls-2" d="M1013.9,1060.9h-20.63c-21.43-68-50.56-134.05-80.01-191.25-93-180.56-243.59-341.25-76.68-540.04,31.47-37.47,88.1-87.74,140.61-70.64.94,4.05-.4,7.96-2.73,11.27-5.51,7.82-42.58,29.01-53.24,36.77-45.69,33.28-80.73,64.71-100.92,119.3-54.75,148.02,35.28,253.01,99.95,375.07,43.86,82.79,75.6,169.6,93.66,259.52Z"/>
  <path class="cls-2" d="M670.78,1060.9h-22.41c-.76-32.62-2.77-65.63-4.31-100.17-.18-3.93-1.78-10.22,3.89-8.7,5.73,36.61,18.02,71.61,22.77,108.45l.06.42Z"/>
  <path class="cls-2" d="M751.65,1060.9h-36.76c-20.71-65.47-43.66-128.4-54.85-181.28-6.41-30.31-8.64-61-13.89-91.47l5.59-2.71c17.66,82.17,56.29,158.63,85.76,236.99,4.59,12.19,9.38,25.08,14.15,38.47Z"/>
  <path class="cls-2" d="M969.71,193.66l1.92,45.98c-74.45,5.74-156.69,16.28-217.34,63.23-26.13,20.22-51.01,52.84-60.91,84.64-1.9,6.12-5.89,32.85-7.14,34.05-3.21,3.06-3.23-.67-3.86-2.78-2.23-7.42-2.43-15.97-4.74-24.01-11.06-38.43-34.79-72.39-68.15-94.64-12.03-8.02-25.23-13.07-38.03-19.55,5.92-14.53,3.22-29.41,3.74-44.77,31.88,9.51,67.56,35.61,89.07,61.25,6.03,7.19,11.07,18.59,17.34,24.8,1.57,1.56,1.69,2.76,4.63,2.03,53.28-100.33,180.24-121.13,283.47-130.22Z"/>
  <path class="cls-2" d="M927.54,1060.9h-34.86c-56.31-135.24-136.94-264.94-164.26-407.61l40.47,96.44c49.9,102.82,114.37,203.77,158.65,311.17Z"/>
  <path class="cls-2" d="M745.64,27.04c-4.78,54.83,47.13,85.79,91.44,102.94,37.55,14.53,79.79,21.37,114.74,42.3,2.12,1.27,9.53,4.19,8.29,6.99-1.34,3.03-13.51,6.84-17.16,7.75-26.38,6.57-71.15-7.28-97.73-15.39-43.7-13.33-99.42-36.77-121.65-79.44-3.2-6.14-6.05-18.17-8.75-21.89-5.12-7.07-20.79-1.32-27.81-1.31-7.75,0-17.35-4.19-25.77-.89-13.28,39.1-46.04,76.82-87.88,85.28-3.64-11.86-1.74-24.73-1.76-37.03.94-2.75,13.67-6.73,17.59-9.22,27.29-17.29,35.14-49.65,37.7-80.08,23.59,7.74,56.38,7.59,81.47,5.82,12.95-.91,24.37-5.97,37.26-5.84Z"/>
  <path class="cls-2" d="M561.81,683.93c.65-12.41,5.82-27.04,5.89-39.27.09-16.5-3.47-33.94-2.05-51.67,1.53-19.13,8.65-38.02,9.63-57.4,2.07-41-8.25-82.39-3.86-124.53.29-2.8-1.68-5.61,2.79-4.8,20.22,25.63,31.64,62.69,35.2,95.03,6.36,57.78-9.86,127.42-41.51,176.31-1.55,2.39-3.11,5.53-6.1,6.33Z"/>
  <path class="cls-2" d="M835.99,1060.89h-34.77c-3.63-8.65-7.37-17.27-11.19-25.89-42.06-94.06-82.53-167.56-105.69-270.64-3.59-16.1-10.09-34.2-9.6-50.75.11-2.91-1.7-7.6,2.87-6.69,6.05,10.28,5.48,23.66,8.77,35.33,2.46,8.8,6.5,18.86,9.45,27.85,33.59,101.99,95.49,193.89,140.16,290.79Z"/>
</svg>