<?xml version="1.0" encoding="UTF-8"?>
<svg id="Calque_2" data-name="Calque 2" xmlns="http://www.w3.org/2000/svg" viewBox="0 0 1057.42 358.29">
  <defs>
    <style>
      .cls-1 {
        fill: none;
      }

      .cls-2 {
        fill: #fbfbfa;
      }

      .cls-3 {
        fill: #e5c17c;
      }
    </style>
  </defs>
  <g id="Calque_1-2" data-name="Calque 1">
    <g>
      <rect class="cls-2" x="42.21" y="42.27" width="975.1" height="274.25"/>
      <g>
        <path class="cls-3" d="M851.06,343.79l-9.57-.24c-11.7,1.63-19.46,3.23-14.58,5.45-8.09-.59-6.46-1.71-7.52-1.81-.73-.07-9.69.65-18.06.49-13.76-.27-11.99-2.01-14.64-2.24-1.97-.17-9.16.15-13.81-.21-6.91-.54-3.64-2.56-13.98-3.02l-16.95,2.64-27.06-1.66c.67,1.88-15,3.39-27.72,2.38-5.54-.44-5.66-1.44-8.79-1.73-5.92-.55-7.39.58-12.09.97-3.94.33-11.18.32-13.38.8-2.51.55-.02,2.57-3.5,2.94-2.23.23-7.9.01-10.92.3-6.05.57-10.66,4.08-32.44,1.62l-9.68,3.48c-10.07,1.05-27.81-1.18-30.87-.8-1.14,3.06-25.34,2.89-35.22.59l-24.39.53c-7.05-.26-7.96-2.39-9.11-2.49-1.21-.11-12.17,1.23-24.63-.44-4.28-.58-6.5-1.74-7.57-1.83-3.08-.25-9.33.31-12.21-.21-3.41-.61-2.53-2.74-10.12-3.69-17.75,3.19-22.96,3.8-45.7.78-10.38,4.08-30.74,3.51-41.53-.2-.66,1.56-20.41,2.11-21.9,2.5-1.96.52,1.55,1.65-2.74,2.51-2.83.56-10.13.68-14.02,1.17-3.39.43-4.34,1.37-7.26,1.67-8.85.89-24.78-.4-27.65-.06-3.28,3.94-17.47,4.05-36.74,2.03-4.8,2.9-29.73,3.11-35.71.19-33.68,2.2-27.29-1.58-32.44-2.27-1.01-.14-15.19,1.24-25.5-.38-4.34-.68-2.83-1.56-5.14-2.05-2.15-.45-10.08-.4-14.5-1.17-5.64-.98-3.68-2.57-12.13-3.3-9.01,3.4-27.43,3.98-39.72.5-13.28,3.17-26.79,3.74-37.35,1.22l-37.86-9.05,5.63-23.19c.46-1.89,1.02-3.67,1.68-5.34-1.51-1.66-1.68-18.37-2.34-21.04-.79-3.19-2.44.59-3.15-8.3-.28-3.46-.02-8.29-.23-10.41-.22-2.2-1.62-2.1-2.04-6.52-.74-7.77-.21-20.46.71-26.93-6.9-4.89-2.32-28.86-2.35-34.43-.01-1.62-2.47-6.39-2.24-23.32.12-8.29,1.09-10.19,2.25-11.1-.25-9.3-1.1-18.5,0-26.85-.7,27.56,3.31,27.44,6.57,26.89-.34-19.24-3.67-30.42-6.57-26.89.83-6.32,1.87-6.43,2.14-8.78.11-.95-.43-13.54.73-22.33.92-7.01,1.99-3.54,2.25-5.11.19-1.14-.05-9.07.47-13.42.76-6.33,3.1-1.9,3.8-11.65l-2.82-18.05,1.93-20.66,3.18-34.1,28.28,2.64,4.59.43c.45-2.18,16.45-3.65,28.22-2.31,5.13.59,4.71,1.72,7.58,2.09,5.34.69,8.86-.68,13.95-1.14,3.7-.33,12.18-.48,12.69-.58,1.45-.28-.54-1.56,1.78-2.3,2.24-.72,10.41-.86,14.87-1.42,2.73-.34,3.68-1.31,7.59-1.62,8.87-.71,17.95.22,26.94.24-.13-6.29,32.77-1.53,35.82-1.88,13.66-5.07,29.96-.25,34.69-.07,4.64.18,17.11-1.03,25.28-.18,8.88,3.92,5.24,1.91,18.67,2.21,14.31.32,15.54,2.87,17.61,3.13,2.16.27,7.59-.21,11.75.37,4.13.57,7.28,2.99,8.69,3.93,15.99-2.79,26.29-4.31,43.29-.47,16.5-3.84,29.37-3.77,41.87.48,1.02-1.6,20.36-2.04,21.9-2.43,2.02-.52-1.15-1.7,3.21-2.55,2.87-.56,9.98-.63,13.85-1.11,3.37-.42,4.48-1.38,7.37-1.66,8.74-.85,23.94.55,26.79.23,3.88-3.98,17.56-4,35.93-1.87,5.08-2.91,29.17-3,34.63-.04,32.88-2.09,26.29,1.68,31.23,2.39,1.02.15,13.88-1.19,24.7.45,5.36.81,4.13,2.13,5.61,2.31,1.72.21,6.69-.07,9,.1,12.05.85,5.31,3.16,15.97,4.18,13.94-3.66,21.68-3.33,41.78-.93,3.15-.12,5.84-2.22,18.23-2.34,16.72-.16,14.14,1.95,19.11,2.59,4.96.64,8.79-.62,14.24-1.08,3.48-.3,12.43-.49,12.8-.58.57-.13-6.58-1.72,2.7-2.98,4.27-.58,9.19-.11,11.71-.37,2.14-.22,1.12-1.41,5.47-1.85,7.16-.73,21.16-.7,26.44.5l11.06-3.65c10.96-.98,25.94,1.71,29.26,1.31.23-1.63,6.44-2.32,16.61-2.27,12.66.06,10.99,1.65,16.1,2.03,6.89.51,34.07-1.79,33.13,2.59,6.96-.83,18.95-.27,23.88.71,4.06.81,2.2,1.86,3.36,2.05,1.35.22,10.7-.15,14.94.71,3.47.7,2.29,2.55,8.69,3.57,16.76-3.45,25.18-3.53,44.73-.46,10.36-3.83,23.09-3.3,34.84-1.07l36.51,6.93-4.4,25.18c-.45,2.58-.98,5.12-1.55,7.56,1.71-1.41,1.92,20.33,2.35,22.3.51,2.25,1.71-1.14,2.52,3.7.53,3.19.54,11.01.96,15.34.37,3.77,1.31,5.12,1.54,8.36.72,9.82-.99,26.46-.75,29.69,4.21,3.46,3.4,19.45.68,40.41,2.14,8.4,1.85,16.88.99,23.78-.86,6.91-2.26,12.26-2.46,14.83-.38,5.06.03,19.46-1.21,28.08l-2.6,5.21c-.09,15.88-.6,19.78-2.56,28.79-.48,2.19-1.12,1.47-1.45,3.25-.46,2.48-.76,10.28-1.86,14.59-.85,3.36-1.91,3.23-2.75,4.39-.73,9.95.79,10.55,1.02,14.93.3,5.94-.28,14.81-1.09,21.37-.81,6.57-1.83,10.82-2.54,7.75.21-8.15,1.09-7.15,1.59-10.17.93-5.69.93-12,.41-16.3-.52-4.31-1.55-6.6-2.55-4.43-2.18,4.75-2.47,11.24-2.79,27.59l-2.66-2.66,2.2-22.34c-.52-10.13-2.07-10.47-3.37-5.77-1.31,4.72-2.34,14.43-2.16,24.79l-5.66-5.63c1.39-7.57.8-30.66-.77-31.79-.83-.61-1.77,15.9-2.48,18.26l.25,10.57c-1.68,2.53-1.46-5.63-1.97-9.17-.19-1.31-.64.65-.66.36-.13-1.91-.49-32.87-.54-38.3-.13-17.42.12-63.45.74-79.59.32-8.82,2.7-26.16-.01-22.75-.07-6.6-.18-9.82.89-8.73v-2.91c-1.32-3.19-1.55-13.29-1.56-24.57,0-11.28.22-23.79-.25-31.6l.99-5.68c-1.12-16.41-.99-35.07-.69-53.5v-.31s-.31,0-.31,0c-11.65-.19-23.15-.45-33.8-.49-7.28-.03-39.5.75-42.84.29l2.98-1.87c-6.22-.08-14.5-.17-14.94,1.17l8.95,1.17c-4.56.07-9.07-.39-13.42-.37-12.26.03-61.26.09-70.61-.35-6.49-.3-10.56-1.61-16.05-1.64-9.87-.05-4.08,1.39-4.53,1.42-11.3.96-8.46-1.55-10.45-1.4-5.18.34-.65,1.22-3.1,1.43-11.16.94-30.28.52-41.73.54-20.91.05-39.99.13-62.78,0-9.13-.05-20.39.55-31.43-.1l-1.47-1.87-6.71.69,2.24.7h-11.97s-1.48-1.39-1.48-1.39l-7.47.46,5.94.93c-7.6-.33-14.25.69-19.82.8-13.97.29-100.45-.44-109.68-1.26-1.84-.16-1.7-.94-3.92-.97l-13.02.51,2.97.92-67.24.95,10.36-1.65-10.44-.72c-7.7.11-1.83,1.81-18.63,2.25-21.4.57-52.7-.59-74.08-.71-7.18-.04-41.65.58-43.26.35l4.45-1.88-16.44.48,3.02,1.4c-17.46.96-31.02-.16-47.19-.33-7.11-.08-22.53.38-28.58.18-6.06-.2-12.27-1.7-18.44-1.74-9.83-.05-3.99,1.38-4.46,1.41-12.79.85-5.52-1.07-11.93-1.4,2.61,2.81-31.69,1.95-43.36,1.97-21,.05-39.92.14-62.81,0-8.94-.06-20.43.57-31.41-.1l-1.47-1.87-6.75.69,2.27.7c-3.69-.06-7.24.25-10.62.35l-.66.02v.62c.02.28.03.55.03.83.57,33.8.21,59.5-.23,92.54-.1,7.49.34,24.23.09,30.93-.22,5.98-3.59,23.73-.23,20.54-.03,21.62,1.37,41.38.47,62.81-4.52-3.79.1,14.5.38,23.2.23,7.26-.24,23.88-.27,32.05-.02,3.56.03,7.37.08,11.34v.34s.34,0,.34,0c7.4-.09,15.32-.17,23.06.18-13.22,1.94,8.02,2.82,3,.47l11.7.05,1.78,1.35,7.47-.47-5.98-.93,35.84-.47-5.9,1.63c.85.61,13.19.25,14.97-.48l-6.09-1.62c3.63-.12,7.22.41,10.44.38,17.71-.15,57.04-.06,74.24.65,6.25.26,9.67,1.08,15.8,1.3l5.94-.48-1.6-.91c14.21.05,29.45-.83,43.19-.94,20.21-.17,49.08.28,71.8.35,21.14.07,44.6.58,65.56.41,5.61-.05,12.65-1.13,22.72-.32l-2.43,1.78c6.25.07,14.58.15,14.6-1.12l-7.8-1.13,92.85.87c2.78.12-2.96,1.31,6.67,1.31,9.97,0,3.49-1.27,3.95-1.3,12.47-.79,5.94.98,12.49,1.28-3.06-2.38,10.68-1.27,18.43-1.43,11.36-.24,10.24-.39,24.17-.38,24.49.01,50.69-.49,77.13-.32,5.19.03,11.37.53,17.14.38l2.41,1.61,6.37-.6-2.6-.6h11.98c-4.01,1.46,8.4,1.54,3.18.02,16.95-.77,31.03-.57,48.78-.53,16.76.03,59.15-.07,74.61.53,5.2.21,22.15,2.44,17.02-.08,21.66,0,40.53-1.08,62.54-.39-2.74,3.42,18.4-.31,20.86,0l8.74,1.4.5-1.18-6.51-.57c27.45.44,54.4-.37,81.74.86,6.95,2.01-5.2,4.11-3.09,4.99,1.03.43,15.03,1.46,10.65,2.78-2.68.42-22.57-1.73-23.36-2.23-4.18-.07-2.88.14-2.59.52.55.72,4.43,2.54,8.82,3.03,5.51.6,15.93.17,18.96.88,1.75.41,4.67,3.39,4.26,3.94-.76,1.02-18.66,2.21,2.59,2.34,1,2.19,10.48,4.94-7.8,6.66-13.83,1.32-26.09.05-30.51-1.53l-2.95.05c2.53,1.02-17.79,1.78-19.16,2.11-1.71.42,2.24,1.26-1.53,1.95-3.69.68-11.62.53-14.43.82-2.28.24-1.23,1.24-5.37,1.64-8.27.8-24.97.04-27.6.33-.97,2.88-14.94,3.64-34.16,2.12-5.06,1.15-7.94,1.9-19.61,2.12-15.9.3-11.48-1.34-17.3-1.4-7.14-.07-14.19,1.29-25.9.44,23.55.25,31.14-3.14,24.15-5.21ZM946.58,320.77c3.19-.53,11.22-.55,9.09-1.44l-44.6.45,33.87.97-63.24-.18,23.08,2.46c-16.12-.08-24.44-2.7-36.98-.71l8.08,2.31c-13.07-1.93-11.29-.86-22.86-.99-1.08-.01-5.96-1.07-10.4-1.09l-2.84,2.26c-1.79.08-4.82-.04-5.98.03-1.02-.88-.82-1.9-6.45-2.62l-20.08,3.51,24.35.25-.55-1.1c.45-.12,2.16-.01,2.73-.05.44.37.39.76.82,1.13,17.12-.14,34.79-.04,51.42-.52,9.77-.3,55.89-2.86,59.88-3.64-.44.06.17.44-1.32.68-3.06.5-9.52.3-5.73,1.44l30.3.22c-.22-1.51-1.38-2.55-13.69-3.42-.59.79-9.09,1.01-9.56,1.07.5-.1-1.31-.69.69-1.03ZM625.19,321.19l19.24-.5c-10.89-1.88-31.34-.17-45.18-.33l25.94.83ZM310.09,321.62c12.78-.98,43.64,1.24,46.06-1.42-23.18.32-45.81-.15-68.85.51l22.79.91ZM36.98,272.21l.73,19.47c1.3-.15.58-38.08.23-44.76l-.96,25.29ZM123.05,37.02l-19.4.52c8.85,2.03,29.22.43,41.83.46l-22.42-.97ZM427.7,36.59c-3.29.67-11.66.66-10.16,1.87l44.81-.47-32.85-1.4,59.77.46c-2.08-1.99-15.77-1.28-17.93-3.28l25.37,2.17,10.75-1.07-6.19-2.98c11.34,2.56,10.93,1.13,21.92,1.39.83.02,5.72,1.98,13.97.69.79-.98-3.88-2.41,5.92-2.08l4.48,3.29,22.42-4.22-22.11-.51-3.29.99c-2.75.07-.57-.68-2.03-.83-4.48-.45-42.16-.08-50.67.17-12.74.37-53.21,3.04-62.39,4.41.49-.08.22-.59,1.92-.91,3.47-.65,9.71-.35,6.95-1.88l-29.79-.5c-1.15,2.04-.98,3.47,10.48,4.69,1.3-1.06,9.94-1.32,10.46-1.4-2.09.31-.41,1.13-1.78,1.41ZM747.95,37.04l-19.47.73c11.27,1.63,28.63.25,41.78.23l-22.31-.96ZM1022.53,84.28l-.49-19.72c-2.04,9.57-.49,31.76-.52,45.32l1.01-25.61ZM839.87,320.85c13.57.71,16.97-.05,29.81-.26.99-1.43-10.83-.39-16.84-.4-6.24-.01-13.07-.45-19.7-.26-.72.98,1.99.66,6.73.91ZM803.7,320.76c4.6-.51-.9-.69-5-.75-18.41-.29-41.39.97-61.26.52,8.07,2.14,18.52,2.21,29.99,1.75,11.48-.47,23.98-1.46,36.27-1.51ZM525.29,321.45c13.23.74,21.73.65,32.04-.81l-39.06-.16c-1.06,1.24,2.4.71,7.02.97ZM447.6,324.57c17.52,1.11,26.23,2.26,45.64,1.22-1.14.48-4.82.67.42,1.1,3.29.27,15.99.61,19.94.6,1.48,0,2.95.02,4.37-.04-2.69-.93,2.31-1.23,2.56-1.31.33.43.18.88.51,1.31,11.73-.29,29.63.24,40.27-.16,2.31-.09,1.48-.83,2.94-.82,13.85.07,14.81.47,29.52-.59,9.32-.67,5.86-.28,13.71-.68,3.31-.18,30.7-3.06,25.39-3.65l-63.23-.29,22.4,2.92c-10.47.27-21.03-1.88-29.61-2.05-.67-.01-2.44,1.35-10.05.88l10.32,2.98c-7.09-.32-10.91-.52-9.79-1.69-10,.87-15.61.43-22.89-.8-6.33.73-6.6,1.73-9.48,2.63-4.64-6.12-10.48-1.26-27.29-.35,2.17-.92,6.88-2.58,13.81-2.7-3.26-3.04-26.78-.5-41.31,0-4.44.15-8.4.08-12.57.14,4.24-.57,20.83-1.26,28.35-1.78,3.89-.27,8.99.41,6.73-.93l-65.82.53,16.65,2.34c5.27.48,9.76-.09,14.1-.16-1.06.14-5.96,1.26-5.57,1.34ZM212.46,321.89c13.13.94,17.17.36,29.97-.24,1.88-1.8-10.6-.51-16.57-.54-6.23-.03-12.79-.58-19.54-.36-1.31,1.22,1.63.82,6.15,1.14ZM176.42,321.69c4.9-.61-.5-.85-4.55-.93-18.23-.38-41.92,1.07-61.52.49,16.95,4.82,41.46.65,66.07.44ZM90.58,320.76c-20.51.96-28.28,4.92-2.01,5.52,3.67.08,20.2-1.07,21.31-1.37,6.95-1.89-14.31-2.86-19.3-4.15ZM37.01,205.05c.88.26.97,1.41.95-4.55-.04-11.38-.36-22.37-.02-34.31-2.39,10.48-1.42,24.63-.93,38.87ZM33.94,98.39c-3.76,26.14-1.85,40.32,1.89,58.77,2.3-9.8.11-25.29-.4-39.28-.24-6.54-.24-11.08-.3-17.46l1.75,29.32,1.06,6.53-.47-62.76c-2.46,8.13-2.5,11.24-2.34,26.9l-1.19-2.03ZM223.2,36.84c-12.76-.94-22.11-.54-32.85.92l38.83.23c1.46-1.23-1.53-.82-5.98-1.15ZM300.94,33.78l-34.23-1.9-25.53,3.99c5.47,2.07,26.89-.07,38.77-.49,5.57-.19,9.79-.14,15-.21-4.68.63-21.54,1.38-28.8,1.84-4.2.26-8.73-.46-7.06.98l65.75-.47c-10.55-2.43-13.2-2.56-29.89-2.34,1.1-.15,6.34-1.32,5.98-1.4ZM361.76,34.59c2.81-2.2-27.96-2.72-35.44-.83-7.05,1.79,17.4,4.98,27.64,3.64,1.54-.2,7.25-2.39,7.8-2.81ZM534.06,36.83c-12.95-.94-16.91,0-29.85.23-2.12,1.83,10.48.52,16.44.56,6.2.03,12.67.6,19.42.37,1.45-1.22-1.49-.83-6.02-1.16ZM569.97,37.06c-4.95.61.41.85,4.44.94,18.15.39,41.85-1.06,61.34-.47-15.79-4.72-41.58-.65-65.78-.46ZM847.37,36.94c-14.35-.92-17.84-.3-32.26.12-2.19,1.86,13.24.55,19.44.56,6.02,0,12.73.61,19.42.37,1.55-1.34-2.11-.77-6.6-1.06ZM929.67,34.82l-45.81,2.24c-4.99.6.41.85,4.45.94,18.15.39,41.84-1.06,61.33-.47l-19.96-2.7ZM1022.3,185.99c.96-12.79.46-17.2-.04-30.4-1.72-2.74-.54,10.45-.6,16.47-.07,6.27-.61,12.6-.45,19.52,1.11,1.98.76-1.2,1.09-5.59ZM1021.85,222.27c-.49-5.33-.75,0-.84,4.03-.22,9.07-.06,19.78.05,30.66.12,10.88.19,21.94-.12,31.59,2.01-7.16,2.33-17.35,2.05-28.89-.26-11.55-1.12-24.44-1.14-37.41ZM717.27,324.99c24.21-.32,20.13-2.43,9.98-3.62-10.16-1.18-26.4-1.43-26.87,2.22,1.78.53,7.44.51,11.16.78,1.61.12.88.68,5.73.62ZM409.77,321.35c-10.45-.67-18.59-.1-21.53,1.51-8.7,4.78,46.56,3.04,34.03.06-.44-.1-11.76-1.53-12.5-1.58ZM32.26,50.96c.01,11.7,1.41,22.14,3.33,19.59v-11.98s1.4,3.02,1.4,3.02c.58-8.3.57-14.76.06-19.32l-.51-4.52,5.66-.63c4.25-.47,6.87-1.38,7.83-2.64l-1.54-.73c-1.94-.21-4.14-.3-6.28-.42l-8.42-.47-.52,9.41c-.06,1.08-.13,2.14-.22,3.15-.14,1.45-.79.7-.78,5.55ZM660.58,32.36c-9.11-.28-22.41,1.1-24.72,2.54,2.13,1.26,11.16.73,11.56.82,2.95.67-1.55,2.22,16.11,1.75l11.3-2.99-1.54-.73c-2.91-.32-6.42-.35-9.43-.64-1.15-.11-1.32-.69-3.27-.75ZM949.62,35.65h11.98s-3.02,1.41-3.02,1.41l17.95.26c8.95-1.17,11.56-2.75,5.47-4.37-16.62-.85-33.5-.69-32.38,2.7ZM811.26,320.75c-5.42,0-10.65.78-15.91.99-11.17.45-25.09.3-31.93,1.66,23.4,2.2,36.93,2.41,52.62-.54,4.67-.87,8.77-2.1-4.79-2.12ZM309.38,324.87c-1.81,2.13,27.54,2.28,31.89,1.3-2.19-1.72-1.41-3.71-14.66-4.11,2.72,2.07-4.78,1.12-8.73,1.39,1.32-.48,3.88-.74,2.69-1.38l-63.12-.41c3.3,1.78,18.24,2,24.69,3.67-9.95.3-26.06-2.64-31.99-2.57-16.78.19-7.33,2.53-3.95,4.01l-10.96-1.82-6.99.06-3.21.85c-2.34-1.49-6.17-2.09-14.97-1.33l-6.03,2.28c4.48-1.28,1.98-2.31-4.91-3.25l-22.11,4.21,68.14.43,5.66-.98,3.04.92c7.91-.81,17.62-.96,26.27-1.45,12.35-.7,24.55-2.34,37.74-3.24-1.95.7-.97,1.28-8.49,1.43ZM171.82,326.76c1.12-.06,6.71-.97,11.99-1.9,2.64-.47,5.21-.94,7.12-1.31,1.9-.37,3.14-.64,3.13-.71-.53-2.21-19.62-.29-24.15-.07-3.36.16-39.49,1.27-35.3,2.21,11.93.78,22.68,2.5,37.21,1.78ZM35.12,161.71l-4.22-22.42-.47,23.89c1.06-2.21,1.21,2.16,1.41,3-.47.15-.94-.17-1.41-.02-.19,26.77.03,50.39,1.45,75.48.05.82.64,10.34.68,10.95.73,9.35,2.07,17.26,2.57,27.19-.08-.4-1.24-6.05-1.38-6.76-2.19-9.79-2.45,18.44-1.88,27.49,2.02,1.77,3.46.86,4.66-10.28-1.06-1.29-1.32-9.94-1.4-10.45l1.41.02.47-62.79-3.28,20.92,2.33-28.49-1.24-7.49-2.97,6.06,1.85-9.23-.92-14.63c1.27,1.5,1.52-1.89,1.88-8.94-1.23-.2-1.96-5.43-2.82-9.02,1.09-.36,2.37.6,3.28-4.47ZM154.46,33.31l31.48,2.81c1.05-1.03,8.24-.81,9.61-1.06,1.64-.3.06-1.05,1.14-1.21,2.6-.38,13.74.52,11.63-1.01l10.42,1.86,10.43-2.8c-.12,1.2.87,2.74,8.94,3.28l20.98-4.22-24.99-.5-1.95.96-4.87-.95c-11.28.19-24.89-.24-35.67-.03-5.68.11-3.91.93-5.61.92-25.92-.23-18.72.6-31.97,1.38-1.71.1-5.71-.54-11.37-.17-2.85.19-31.87,3.34-27.05,4.01l62.76.47c-3.04-1.9-19.08-1.72-23.91-3.75ZM552.51,35.89c9.07,2.27,16.16.5,26.5,0,3.26-.16,36.8-1.2,32.83-2.11-29.03-3.18-40.95-2.1-59.33,2.11ZM821.12,33.77l14.87-.94,7.53,1.87c4.98-.8,6.95-1.84,10.46-2.81.16.49.71,4.42,8.91,3.28.44-.06.53-.81,2.98-1.18,5.47-.81,12.23-1.57,17.99-2.34l-25.31-1.2c-.87.71-2.92.98-4.57,1.43-.15-.47.17-.94.02-1.41h-41.89c-.05.31,0,.63.02.94-11.66-1.03-16.14-.53-29.19.33-9.03.59-6.84.39-15.51.84-3.33.17-31.98,3.31-27.03,4l62.76.47-20.92-3.28,29.65,2.31,9.16-1.61c-6.11-.87-8.85-1.75-8.92-3.05,4.49.4,10.73,1.47,8.99,2.35ZM906.47,32.34c-4.74-.31-9.62-.52-14.84-.44-15.62.24-34.51,5.5-18.36,5.16l52.44-2.82-19.24-1.89ZM1023.71,200.38c1.2,8.22,2.35,16.52,3.45,24.9l.83-27.46c-.95,1.97-1.16-3.4-1.23-3.71.43.07.86.55,1.28.6l.51-41.27-.88-3.8.92-5.54c-.75-7.63-.78-16.5-1.18-24.63-.61-12.69-2.19-25.98-3.07-39.53.71,2.2,1.32,1.4,1.42,9.16,2.32-3.1,2.36-20.01,1.45-32.15-.84-4.09-4.31,4.27-4.26,13.71,2.13-2.13,1.13,5.18,1.39,9.27-.48-1.49-.74-4.16-1.39-3.16l-.64,63.64c1.75-2.55,2.06-17.6,3.76-23.52l-2.9,31.44c1,1.38.73,8.66.96,10.14.27,1.77.99.39,1.13,1.55.34,2.79-.6,13.89.85,12.27l-1.83,9.98c.65,7.02,1.62,8.13,2.46,11.84-1.27-.21-2.15-2.37-3.05,6.27ZM1022.85,201.5c-1.59,15.18-.45,15.65-.12,28.01.12,3.57.63,40.67,1.41,37.11,1.59-15.78,2.19-26.04,1.89-35.33-.29-9.29-1.42-17.65-3.19-29.79ZM625.76,325.12c8.69,1.33,19.83.52,30.38.52,2-.28-6.76-4.48-17.25-4.1,4.94,1.46-17.79,2.32-13.14,3.57ZM124.69,33.07c.17-1.87-27.31-1.69-29.84-.42-1.65.79,9.06,4.86,14.75,3.94-3.61-1.6,14.99-2.37,15.1-3.51ZM749.02,32.41c-10.72-.95-17.77-.86-29.55-.51.35,1.76.27,4.49,14.91,4.69-4.47-1.61,20.76-2.76,14.64-4.17ZM776.26,327.05c5.65-2.4-9.88-1.57-19.35-2.28-5.16-.39-3.51-1.32-9.9-1.11-10.75,1.1-9.94,2.9-4.09,4.12,5.84,1.23,16.74,1.87,26.01.76.6-.07,7.14-1.42,7.34-1.5ZM672.98,329.24l6.29-5.33c-5.29,1.05-16.43,2.23-21.44,3.09-9.71,1.69,10.39,2.83,15.15,2.24ZM445.5,327.26c1.33-1.32-7.24-1.59-11.43-2.64-9.9,1.21-12.54,3.13-7.52,4.95,1.37.31,13.6,1.17,16.3,1.21,14.73.24,29.72-4.7,5.76-4.33l-3.1.81ZM363.29,324.75l-22.95,3.98c-1.79,1.59,11.19,2.31,17.58,1.39,4.36-.63,6.34-4.31,5.37-5.37ZM122.47,325c-8.74-.95-23.51,5.7,2.73,6.48,15.38.45,29.13-3.34,18.71-4.43-3.73-.51-9.43.3-11.71.18-.83-.04-9.27-1.83-9.73-2.23ZM33.71,80.99c-2.52-24.29-8.43-.9-5.95,18.55,3.72,29.07,3.59-11.18,5.95-18.55ZM303.9,30.96l1.57,1.41,7.4-.48.06,1.88c18.97-1.44,15.77-6.95-7.39-6.58-12.93.2-27.25,5.13-4.98,4.62l3.33-.84ZM384.67,33.77l23.61-4.06c.68-.37-2.01-1.89-3.03-1.99-15.9-1.58-22.78,4.5-20.58,6.05ZM600.13,31.12c2.7,1.41,11.85.27,14.24.4,1,.05,9.46,2.58,13.87,2.25,18.1-2.55,6.12-8.22-18.33-5.91-5.65.53-11.89,2.17-9.78,3.26ZM722.35,29.29c-14.38-4.31-29.2,1.72-26.78,4.48,5.68-.48,8.49-1.83,12.99-2.65,3.27-.59,11.12-.95,13.78-1.84ZM939.18,33.76c16.5-2.5,14.22-5.6-9.04-6.56l-18.91,3.12c1.78,2.27,13.74,1.04,17.02,1.2.86.04,8.58,2.01,10.93,2.23ZM1023.98,278.92c-.43,4.11.59,11.01,1.8,13.69,1.22,2.68,2.69,1.09,3.35-12.05.39-7.85-.13-15.57-.9-20.18-.77-4.62-1.78-6.14-2.24-1.8-.48,4.48.07,9.69-.07,11.98-.06.82-1.62,8.18-1.93,8.36ZM970.98,325.76c10.66,3.98,26.85-.75,21.19-2.76-6.47.27-7.96,1.12-11.52,1.65-2.42.37-8.9.49-9.67,1.11ZM395.18,331.02c1.25-.26-2.27-1.55,5.62-1.6l-31.3-4.23c.18,1.38,1.16,3.12,5.3,4.37,2.5.76,19.73,1.59,20.39,1.45ZM82.15,329.69l-25.72-4.21c-.53,1.72-.66,4.73,11.05,5.48.6.04,12.49.2,12.98.14.35-.05,2.42-1.14,1.69-1.41ZM28.77,297.73c-.63,6.39-1.69,8.3-1.06,17.36l.83,1.43,9.39,16.14,4.28-2.47,8.13-4.7c-3.75.18-6.1.62-8.13,1.1l-7.32,1.71-2.75-11.78c-.38-1.64-.78-3.08-1.08-4.89-.69-4.15-1.04-11.49-2.29-13.9ZM73.77,33.3l23.64-4.06-7.69-1.48c-2.4-.08-7.56.22-9.28.5-5.25.86-7.39,3.82-6.68,5.04ZM353.06,29.55l25.57,3.75c.21-3.18-.71-5.65-23.85-6.1l-1.72,2.35ZM982.75,28.09l-3.17-.89-5.29,1.65,29.13,4.45c1.94-2.14-3.29-3.78-9.32-5.59l-11.35.38ZM1009.46,33.3l7.85-1.19,8.49-1.28,1.66,11.43,2.38,16.37c1.55,2,2.32-9.25,1.62-16.37l-1.54-15.64-12.62,1.49c-.4.05-.79.09-1.17.14-4.79.66-7.63,3.96-6.68,5.05ZM685.81,324.7c-2.05,2.75,11.36,6,29.07,3.31-4.74-.84-12.76-1.26-18.15-1.87-3.54-.4-5.34-1.31-10.92-1.44ZM58.17,27.74c-2.36-.22-11.17-.04-15.97.43l-15.3,1.48,1.2,12.62c.23,2.47.54,3.89.91,2.94l.39-2.94,1.88-14.24,10.93,1.44,25.54,3.37c1.6-.29-5.71-4.73-9.57-5.09ZM689.53,32.83c.54-1.63-.09-4.32-10.88-5.02-.59-.04-12.35-.21-12.84-.14-9.13,1.23,17.31,4.29,23.72,5.16ZM910.35,326.07c11.21,1.66,22.05,1.63,26.7.97,4.65-.67,3.12-1.98-10.26-3.03,2.91,1.37-19.47.96-16.44,2.06ZM619.1,329.8c9.24-1.63,3.94-2.83-2.4-4.43-6.67.75-10.28,1.56-20.45,1.35-4.31,1.3,16.39,3.64,22.85,3.08ZM32.3,260.34c-1.6-3.93-1.54-9.19-1.41-19.43-5.69,5.87-3.51,43.49,1.41,19.43ZM133.57,32.36c6.99-.81,10.94-1.69,20.91-1.41,12.35-1.9-42.24-7.13-20.91,1.41ZM761.58,27.42l-6.38.44c-6.13,1.37-3.06,3.44,4.62,4.5,5.2-1.06,10.56-1.59,19.45-1.4,3.6-.54-10.46-3.84-17.69-3.54ZM307.35,330.81c-.95-1.44,4.39-2.82-3.73-3.94l-21.06.76c-1.45,2.31,10.11,3.57,24.78,3.17ZM446,31.9l22.27-1.64c-6.33-1.8-12.42-2.98-26.83-2.59.27.89-2.25,4.04,4.56,4.23ZM1028.4,117.39c2.3,2.34,3.67-9.07,3.39-24.25-1.25-2.51-5.22-3.5-4.1,11.04.07.94,1.37,2.64.71,13.21ZM793.57,330.06c16.7,1.22,31.77-.8,28.6-2.9l-35.74-.93,7.14,3.84ZM480.52,328.41c-2.03-.03-.66-1.18-6.18-.79-6.53.49-5.13,2.22.44,3.5,5.56,1.28,15.31,2.1,25.29.8,2.14-.28,10.23-2.97,9.45-3.1-10.66-1.08-21.46-.29-29-.41ZM160.09,332.81c20.19,1.65,31.46,0,31-3.21-6.74-1.2-19.19-.37-24.56-.5-1.48-.04-2.39-1.39-10.57-.85l4.13,4.56ZM25.73,122.8c-1.7,16.05.78,30.57,3.31,30.18l1.39-34.61-4.7,4.44ZM245.42,27.67c-4.74,3.19,16.81,1.77,24.18,1.96,1.43.04,2.26,1.4,10.39.86,9.05-4.53-27.24-7.76-34.58-2.82ZM556.24,29.09c5.84,1.18,19.6.34,24.25.54,1.57.07,1.98,1.37,10.4.85,7.95-6.11-32.61-7.53-34.65-1.39ZM904.2,28.49c-3.35-4.96-35.62-3.94-37.02.6,5.78,1.16,20.75.42,27.28.54,1.18.02,2.03,1.62,7.32.85.88-.13,2.7-1.59,2.42-1.99ZM1031.13,245.7c.97-9.84,1.19-17.97.78-23.77-.4-5.8-1.43-9.26-2.87-9.95-1.19,6.21-.69,19.41-.92,24.81-.06,1.49-1.23,1.58-.93,10.25l3.94-1.35ZM898.42,326.13l-23.79.72c3.62,2.26,16.72,3.02,25.33,2.74,8.62-.28,12.71-1.55-1.55-3.46ZM246.65,329.55c-.45,2.59,10.4,4.14,27.62,3.61,2.68-1.23,2.91-4.48-8.18-4.58-1.53-.01-1.42.73-2.01.75-3.54.14-16.56.07-17.43.22ZM28.29,234.99c2.75-2.82.27-18.04.73-29.94-3.97.36-5.82,35.16-.73,29.94ZM504.22,29.07c-3.35-5.77-47.43-4.1-26.9.24,7.43,1.57,5.29.07,6.46-.1.75-.11,16.65.18,20.44-.14ZM788.5,25.37c-2.67,1.63-5.85,3.07,2.67,4.44l23.95-.74c-3.72-2.31-8.34-4.29-26.62-3.7ZM589.33,331.83c1.82-1.35,3.61-2.48-1.81-3.76l-26.67.53c3.83,2.42,8.9,3.82,28.48,3.24ZM163.69,25.36c-3.18,1.48-2.64,2.68-.14,4.17l26.79-.46c-.93-2.65-8.63-4.22-26.65-3.71ZM1033.78,128.13l-4.08-1.19.19,28.04c2.46,1.71,4.17-8.75,3.89-26.85ZM865.58,326.9c-7.44.68-31.4-.1-32.55.81-.95.69,12.08,3.19,15.08,3.36,16.12.94,23.52-2.71,17.48-4.17ZM553.15,331.76c1.23-.85-1.96-2.18-1.38-3.13-6,.65-28.87.21-30.12.33-8.46.83,7.84,5.7,22.38,4.36.3-.03,2.55-.39,4.73-.76,1.09-.19,2.16-.38,2.98-.52.81-.15,1.36-.25,1.4-.28ZM207.07,332.75c7.74,2.75,18.64,2.1,25.33.7,6.7-1.4,9.21-3.54.45-3.83-15.5.93-37.77-1.14-25.77,3.13ZM23.85,177.29c-.02,17.48,2.71,21.34,5.17,18.77l-.22-29.9c-.49-4.83-2.7-1.23-3.39,1.02-.23.77-1.01,8.52-1.56,10.11ZM228.48,25.67c-15.75-5.03-41.31,2.76-24.47,3.36,16.82-.84,38.47,1.11,24.47-3.36ZM513.31,29.07c7.45-.75,31.49.33,32.74-.71l-12.45-4.36c-17.62-.58-27.09,2.81-20.29,5.07ZM843.07,23.99c-14.62-.9-23.35,3.18-18.96,5.09l29.9-.22c4.93-.5,1.17-2.67-1.07-3.38-.3-.1-9.23-1.45-9.87-1.49ZM1032.46,195.93c2.46-7.22,2.07-18.43.86-25.45-1.2-7.04-3.17-9.93-3.56-1.31.56,17.76-1.63,39.47,2.7,26.76ZM960.75,328.22c-3.58-1.41-33.15,1.76-28.48,2.18,16.59.1,24.92-.27,28.48-2.18ZM646.62,330.47c-3.28-1.71-30.85,1.57-32.16,2.5,17.27.1,27.83.04,32.16-2.5ZM328.8,331.91c-2.9-1.49-19.2.68-23.01,1.12-3.65.42-8.35.5-6.75,1.48,13.62.19,29.18-.02,29.75-2.6ZM26.43,288.77c1.91-2.33-1.98-34.1-2.57-29.9-.67,16.3.08,24.03,2.57,29.9ZM139.51,23.92c-16.48-.36-31.6.27-29.88,3.28,1.35.24,24.14-1.74,26.01-2.01,1.01-.15,4.23-1.23,3.87-1.27ZM420.5,26.48c3.3.56,3.74.92,9.01.49,2.57-.21,24.5-2.56,20.89-3.06-16.2-.33-24.68.04-29.9,2.57ZM731.4,26.48c2.43,2.01,35-1.86,29.9-2.57-16.2-.33-24.68.04-29.9,2.57ZM1035.33,81.09c-.65-10.73-3.39-14.02-2.64-1.41.08,1.34.61,8.38,1.19,14.5.58,6.12,1.21,11.33,1.55,8.84.03-7.29.32-14.87-.1-21.94ZM732.59,331.89c-2.08-.14-11.98-2.24-17.46-.86-3.25.82,1.31,4.57,7.57,5.01l18.09-.04c2.63-1.32,1.85-2.66-2.12-3.93,3.91.27,15.08,1.05,16.75,1.17,3.3.17,25.83.17,26.69.04l-2.62-1.18c-15.58-.06-32.92-2.11-46.83-2.39-10.85-.21,3.52,1.57,6,2.36-.89-.06-3.42.01-6.08-.18ZM466.23,334.96c2.36-.81-5.62-.75-8.7-.93-6.29-.35-42.19-2.9-44.01-2.63.54,1.21,11.66,2.81,23.7,3.74,12.04.93,24.99,1.2,29.01-.18ZM120.98,336.36c8.78.54,17.51.34,26.55.32.7-1.08.51-1.21-5.32-1.76-10.45-.99-28.55-1.63-39.5-2.81l-6.89.86c10.54.45,14.54,2.74,25.15,3.39ZM24.12,61.65c.42-4.07,2.13-6.25,1.6-17.87-.27-.64-.55-1.16-.85-1.52l-2.42-2.92,19.77-14.43c1.29-.94,1.35-2.02,0-2.99l-3.24-2.33-17.09,22.66c-1.91,2.54-3.41,10.43-2.66,24.92,1.52,3.39,3.1,3.45,4.64.34-.38,4.14-1.41,13.88-1.54,15.72-.23,3.12-.48,25.22-.33,26.15l1.45-1.78c.24-15.24,2.82-30.99,3.25-44.53.33-10.56-1.87,2.51-2.82,4.45.08-.9,0-3.41.26-5.88ZM286.05,22.74l50.74,3.99c-3.82-3.04-32.73-6.31-50.74-3.99ZM655.67,25.73c16.29.72,15.44-7-9.43-6.54-12.71.24-7.77,3.44-4.5,4.72-2.89-.27-17.71-1.57-19.3-1.66-2.96-.17-21.72-.34-22.54-.22l3.06,1.63c15,.34,27.58,2.39,40.87,2.97,14.24.62.77-1.6-2.08-2.73,5.08.47,10.45,1.66,13.94,1.81ZM910.81,22.75c-2.59.84,5.26.82,8.23,1.03,5.88.4,40.05,3.32,42.54,2.95-.35-2.53-41.93-6.85-50.78-3.98ZM1033.99,261.09c-.62-.73-.87-1.74-1.43,2.31-.13.92-1.14,11.66-2.06,22.29-.92,10.64-1.74,21.2-1.66,22.18,1.19-1.44,2.42-7.77,3.41-16.45.98-8.68,1.71-19.71,1.74-30.33ZM982.81,329.07c-18.91-1.44-32.5,2.28-17.56,3.81,12.26-.12,28.88-2.98,17.56-3.81ZM642.53,334.21c2.25,2.22,11.73,1.92,19.08.87,7.35-1.05,12.55-2.84,6.39-3.67-9.44-1.29-27.39.88-25.47,2.8ZM424.42,338.49c7.35-2.05-2.14-4.47-12.13-5.53-10-1.06-20.57-.73-15.59,2.77.7.5,8.79,2.69,10.4,2.81,2.52.19,15.92.13,17.32-.05ZM330.23,338.09c12.4-.33,23.23-1.52,23.48-3.56.21-1.71-15.25-2.26-20.8-1.38-7.2,1.15-7.25,3.53-2.68,4.94ZM88.27,339.11c30.55,3.4,26.32-5.08,2.49-6.06-15.43-.64-12.6,4.93-2.49,6.06ZM25.02,309.69c2.15-17.31-2.66-33.94-4.9-20.66-.05,12.06,3.62,30.99,4.9,20.66ZM106.74,20.36c-17.29-.01-22.37,2.53-20.76,4.92,19.71,1.47,34.6-2.48,20.76-4.92ZM345.58,19.49c-3.57-.36-9.3-.37-13.43-.62-16.02,1.71-.34,6.3,12.62,6.85,15.64.67,12.64-5.03.81-6.24ZM410.69,25.71c14-.95,15.17-3.47,9.78-5.56-18.73.54-36.93,4.85-9.78,5.56ZM713.26,22.23c-17.42,6.07,41.28,2.97,17.85-2.05-7.94.36-14.29.81-17.85,2.05ZM952.35,19.45c-14.79,3.74,32.37,9.99,26.95,3.34-.54-.66-6.84-3.24-9.34-3.46-3.58-.32-13.73-.19-17.61.12ZM1033.94,60.66c1.32,15.03,3.08,15.69,5.43,11.21-.01-11.09-1.21-20.83-2.48-24.26-1.27-3.44-2.6-.67-2.95,13.05ZM997.75,328.91c-5.02,1.66-7.97,3.73,9.44,4.51,2.23.01,10.33-.66,11.56-.87,9.12-1.57-.6-4.61-21-3.64ZM691.01,336.94c19.86-.76,18.87-3.8,7.27-5.75-4.26.46-14.37.29-17.07.55-7.46.73-6.95,4.98,9.79,5.19ZM374.06,339.2c20.6-1.36,13.38-3.66,9.52-6.34l-20.53.61c-2.38,2.23-8.4,4.9,11.01,5.73ZM65.73,333.68l-17.91.32c-17.98,8.65,43.15,6.96,17.91-.32ZM55.96,25.31l19.32-.92c11.7-2.31-.44-7.41-18.59-5.02-11.8,1.55-5.87,4.12-.73,5.94ZM377.76,18.82c-17.85.4-14.85,4.54-11.02,6.5l20.87-.48c1.78-1.4,6.57-6.39-9.85-6.02ZM704.71,20.86c-.51-.52-10.81-2.17-13.38-2.13-20.79.55-21.22,4.07-10.9,6.37.88.08,16.62-.23,17.6-.33,1.95-.2,7.28-3.3,6.69-3.91ZM991.52,25.33l20.39-.56c16.28-8.8-40.64-7.06-20.39.56ZM880.91,334.73c23.04,1.66,36.8-.41,53.43-1.86l-15.79-2.01c-6.93.75-28.85.97-32.58,1.54-1.19.18-5.83,2.07-5.06,2.33ZM566.25,338.05c19.33,1.5,37.61-.28,49.48-2.35l-14.91-2.18-33.43,1.58-1.14,2.95ZM285.22,334.98c-17.66,1.37-37.18.59-40.02,4.52,20.87,2.23,36.76.32,53.1-1.76,1.97-.34-1.49-.95-3.06-1.22-2.52-.44-7.8-.78-10.02-1.54ZM18.97,205.17c-2.26,4.41-.68,48.35,2.32,50.89l2.13-11.12c-.69-7.38-.92-28.71-1.56-33.17-.32-2.19-2.41-7.53-2.88-6.6ZM193.32,18.75c-21.7-1.51-38.54-.58-53.74,2.13l13.6,2.54c7.33-.96,29.39-.78,33.45-1.5.7-.13,7.32-3.03,6.7-3.16ZM504.21,19.01c-21.2-2.44-36.23-.04-53.76,1.64l13.66,2.83c7.68-1.11,28.34-.74,33.32-1.58,1.31-.22,7.32-2.56,6.78-2.89ZM813.91,18.72c-18.26-1.81-36.89-.05-49.54,2.16l13.6,2.54,33.61-1.47,2.33-3.22ZM1038.46,103.65l-2.66,16.16c1.04,19.18.13,38.28,3.86,41.45,2.11-24.97,1.06-38.12-1.2-57.61ZM846.02,333.05l-52.03-.28c-5.77,1.25,25.86,2.6,32.31,2.62,3.64.02,19.65-1.14,20.18-1.26,1.02-.24-.59-.75-.45-1.09ZM527.55,335.92l-49.04-.8c-6.64,1.49,29.3,3.47,37.01,3.19-1.34-.75,21.88-1.7,12.03-2.4ZM22.45,121.37c-1.31-6.02-3.57,23.43-3.69,29.1-.18,8.12,1.4,13.28,1.35,21.68,1.91,9.46,1.77-47.56,2.34-50.78ZM226.15,21.34l47.86,1.17c6.48-1.41-28.07-4.18-35.08-3.64,1,.77-22.21,1.68-12.77,2.47ZM850.94,21.34l47.85,1.17c7.27-1.58-27.73-3.69-35.14-3.65,1.09.82-22.11,1.66-12.71,2.49ZM195.34,339.89c2.05.02,12.03-1.53,16.18-1.68l-1.93-1.16-49.9-.38c4.58,1.41,26.18,3.13,35.64,3.22ZM537.04,20.39l2.05,1.17,48.83.47c-13.09-2.81-32.79-4.12-50.88-1.64ZM1038.36,213.46c.09-2.14-1-13.38-1.03-17.79l-1.11,1.38c-.56,17.22-1.18,34.39-1.83,51.48,1.25-4.81,3.57-25.07,3.98-35.07ZM928.34,338.35c14.45-.8,24.28-1.3,32.09-3.17,2.51-1.4-11.43-1.6-18.36-2.28-2.72.04-4.2.28-6.15.46-11.52,1.05-19.35,3.66-7.59,4.99ZM819.85,338.9l3.12-2.16-33.01-2.32c-10.68.84-8.37,2.44-.8,3.58,7.57,1.14,20.43,1.81,30.69.9ZM643.8,337.42l-21.72-1.36c-12.17,1.76-21.34,3.31-18.52,5.9,18.95.63,40.91-1.97,40.24-4.54ZM462.24,338.54l11.14,3.24c6.27,1.09,20.52.67,29.29.49,9.49-3.52-12.09-3.88-28.61-5.28l-11.82,1.56ZM307.28,337.73c-12.73,1.91-26.1,3.48-20.14,6.52l21.27-.53c8.46-1.1,20.04-2.26,18.93-4.23l-20.07-1.77ZM162.48,344.06c7.28.29,25.19-.06,24.74-1.71,2.19-1.57-25.36-4.12-32.51-4.21-16.7-.2-3.42,5.48,7.77,5.93ZM15.37,114.4c-.77,4.64-1.26,24.71-.46,29.36,3.28,9.84,7.69-30.63,3.79-40.32.08,10.86-2.4,5.39-3.33,10.96ZM133.53,20.42c12.55-1.88,24.42-3.36,19.57-6.38-6.58-1.6-44.72,2.38-40.15,4.65l20.59,1.73ZM281.57,20.47c16.19-.55,4.13-4.62-3.39-5.45-3.9-.43-24.88-.45-27.75.03-2.57,3.02,14.73,4.57,31.14,5.42ZM460.89,13.6c-15.13.86-32.28,1.53-36.94,4.53-1.45.94,15.28,1.19,17.46,2.27,3.21.25,5.61-.16,8.01-.41,11.22-1.21,21.67-4.56,11.47-6.39ZM567.09,14.74c-20.32,2,14.54,5.2,25.86,5.83,22.19-1.66-6.08-7.78-25.86-5.83ZM916.23,18.99c-11.93-3.21-9.11-5.13-38.51-4.25-10.58,3.68,10.37,4.23,26.1,5.83l12.41-1.57ZM1038.94,97.24c.51,5.1,1.54,12.63,2.67,17.9,1.13,5.26,2.37,8.26,3.38,4.06.6-2.47.06-19.79-.16-22.64-.23-3.21-.92-9.64-1.73-14.65-.8-5.02-1.7-8.62-2.29-6.35l-1.86,21.69ZM1040.01,255.51c1.1-5.4,2.06-31.09.25-32.14-.67-2.62-1.99,5.33-3.08,14.26-1.1,8.95-1.98,18.92-1.88,20.78.54,10.24,3.54,2.87,4.71-2.9ZM865.77,336.97c8.54-.83,6.82-1.88,5.3-3.05l-14.59.91,9.29,2.14ZM224.23,342.14l8.92-.05,2.69-3.7-15.09.97,3.47,2.78ZM13.74,246.86c.12,12.47,1.76,33.63,3.89,35.55,1.44,1.29,2.89-14.45,2.36-22.87-.4-6.23-5.31-26.71-6.24-12.68ZM16.35,188.56c.91,8.96,2.26,8.09,3.75,7.49l-.95-14.95-2.81,7.46ZM214.26,16.64c-.73-.91-19.32.13-14.79,2.78,1.95,1.14,13.01-.01,14.11-.3,2.27-.6.02-1.75.68-2.48ZM520.71,16.41c-8.96.91-8.09,2.26-7.49,3.75l14.95-.95-7.46-2.81ZM773.4,13.83c-12.3-.5-42.06,3.12-35.6,4.85l22.88,1.38c8.9-1.89,26.88-3.9,12.72-6.23ZM831.61,16.4c-8.86.91-8.13,2.24-7.49,3.75,2.76-.37,13.76-.83,14.44-1.01,2.72-.68.44-2.99-6.95-2.75ZM1041.06,184.31c.84-5.44.37-10.63-.46-13.57-.82-2.94-1.98-3.66-2.47-.33l.52,16.24,2.4-2.33ZM549.13,340.33c7.56-.81,7.85-1.82,6.35-3.08l-14.6.59c-1.62.68.33,2.8,8.25,2.49ZM779.56,341.89c19.99-.99-4.45-4.53-15.57-5.23-18.32-.43-10.27,6.53,15.57,5.23ZM442.84,345.06c41.47,2.26,23.61-6.1-5.58-5.68l5.58,5.68ZM144.9,346.93c12.37-1.23-6.3-6.15-19.88-6.49-14.31.08-5.08,5.21-.42,5.99,2.77.47,17.12.82,20.3.5ZM11.7,101.39c2.11,18.1,4.8-.03,6.46-11.94.75-18.18-7.7-13.22-6.46,11.94ZM317.78,16.25c-.6-2.93-4.42-4.93-25.52-4.5-13.43,1.92,12.73,7.95,23.48,6.52.5-.07,2.11-1.67,2.04-2.02ZM599.57,13.82c.05,1.02,15.82,4.46,22.73,4.48l6.98-.8c2.41-1.19-.31-4.36-6.25-5.2-9.07-1.28-23.57-.54-23.46,1.52ZM917.33,11.8c-19.1,1.74,14.4,7.79,23.33,6.49,4.89-2.08-3.85-8.27-23.33-6.49ZM1040.86,291.44l1.45-21.03c-1.99-12.27-3.6,1.7-5.79,9.12l-.22,15.13,4.56-3.22ZM85.8,17.09c28.94,2.23,29.63-3.14,23.78-6.32-15.29-.29-39.19,5.13-23.78,6.32ZM1048.41,72.59l.37-8.11c-1.26-1.9-.33-7.71-1.37-12.87-1.04-5.16-2.01-8.32-2.83-9.34l-23.81-29.8-3.45,2.54c-.58.43-.58.81,0,1.15l30.98,17.79-4.87,8.32c-1.2,2.05-1.71,11.5-1.16,29.26,2.11,3.68,3.98,6.03,6.15,1.06ZM972.86,339.85c28.05-1.12,32.92-6.15-5.62-4.82-4.34,2.02-6.71,3.12,5.62,4.82ZM745.51,343.55c8.34-3.14-1.07-6.76-30.47-5.22.37,2.32,8.71,6.34,30.47,5.22ZM678.47,339.35l-25.61-.77c-13.87,1.66-5.79,7.6,15.14,5.07,4.06-.49,11.98-3.7,10.48-4.3ZM424.53,346.8c7.12-1.56,6.23-3.52.51-4.8-5.73-1.27-16.29-1.86-28.69-.6-.79.16,2.96,3.8,3.67,3.97,1.72.42,20.39,2.71,24.52,1.44ZM332.16,346.94l7.76.27c2.32-1.29,7.48-.33,12.93-1.74,13.49-3.51,6.3-5.58-21.89-4.61-1.72,2.14-4.54,3.98,1.19,6.08ZM97.93,348.49c19.72-1.64,15.27-4.49,2.1-6.64l-20.89.49c-2.15.44,1.1,3.67,2.76,4.13.5.14,14.26,2.02,16.04,2.02ZM10.7,290.29c.85,28.05,7.73,37.63,6.5-1.05-2.53-8.98-4.18-8.92-6.5,1.05ZM10.47,52.57c-2.32,23.97,8.67,26.59,6.36-10.31l-1.48-23.57,26.85-1.81c.39-.03.8-.05,1.23-.08,2.86-.76,1.68-2.24-1.23-3.59l-12.67-5.87L13.16,42.27c-1.22,2.61-2.33,6.64-2.69,10.31ZM330.94,10.66c-10.78,2.64-7.58,3.99,5.91,6.47l19.69-.71c.83-.16-1.88-3.96-2.52-4.14-1.93-.55-18.03-2.86-23.08-1.62ZM418.97,10.76c-18.52.65-25.91,2.77-24.05,5.64,6.68,1,16.53,1.1,25.32.89,4.08-2.51,8.07-4.16-1.28-6.54ZM642.05,10.36c-8.91,2.7-5.99,4.13,4.75,6.56l20.61-.49c2.29-.48-.99-3.53-2.68-4.12-1.48-.52-16.93-2.74-22.68-1.95ZM729.64,10.8c-17.41.44-21.89,2.77-24.46,5.32,1.07,1.21,22.18,1.5,25.8,1.16,6.33-.59,10.7-5.74-1.34-6.47ZM979.65,16.64c7.87-.74-7.34-7.68-23.5-6.25-14.69,1.3-5.33,8.96,23.5,6.25ZM1001.83,335.81c-2.38,1.31,1.61,4.31,17.51,4.32,10.4-1.11,9.72-5.52-5.24-5.4-1.38.01-.77.55-1.44.6-1.99.15-9.18-.43-10.82.47ZM704.63,339.28c-4.67-.93-16.89-.2-18.06.14-5.61,1.64-2,6.08,16.99,5.56-1.87-2.48,13.84-3.17,1.07-5.71ZM380.07,348.32c10.08-2.2,14.79-5.15,1.17-7.26-2.49,1.08-12.35.43-13.3.53-6.32.67-3.9,6.63,12.12,6.73ZM50.38,342.59c-10.33.94,1.05,9.12,12.64,6.55,7.05-1.56,14.07-7.21-1.95-7.24-1.26,0-1.26.74-2.22.83-2.45.23-6.45-.33-8.47-.15ZM58.81,9.36c-1,2.63-14.46,5.23,1.47,7.45l13.33-.4c4.86-2.46,5.89-6.95-14.8-7.04ZM695.63,16.2l2.49-.56c.3-2.19,5.44-6.46-14.5-6.28-4.88,2.85-18.11,5.3,2.91,7.51l.69-.84,8.41.17ZM994.5,9.36c-1.72,2.71-13.08,5.07,1.48,7.5,2.7-1.1,12.21-.38,13.15-.47,7.38-.78,4.84-7.8-14.62-7.03ZM371.31,9.85c-8.43,2.33-8.01,4.01-4.59,6.56l19.53-.44c2.41-.62,2.44-4.37.54-5.08-.37-.14-13.67-2.3-15.48-1.04ZM908.63,336.81c-9.7.11.14,3.86,16.08,2.68-4.86-.41-10.8-2.74-16.08-2.68ZM607.41,343.64c-10.01-.77-8.04-3.24-19.9-3.21-.1,1.93,3.43,3.78,19.9,3.21ZM289.07,346.08c-6.04-1.1-12.07-2.12-12.94-3.64l-9.14,1.2c-.15.49,5.48,2.25,7.41,2.4,3.88.31,10.16-.01,14.67.04ZM12.12,243.91c1.02-7.74,3.67-6.58,3.75-17.92-2.11-.96-4.18,1.65-3.75,17.92ZM167.87,15.93c11.91-.39-4.15-4.82-16.4-3.75,7.18.55,9.01,3.99,16.4,3.75ZM469.73,13.13c2.58.6,2.35,3.31,9.03,2.8,7.78-.89,4.39-2.29.11-3.29l-16.49-.45c-.89.73,5.16.44,7.35.95ZM776.26,12.18c9.37.97,6.32,3.66,17.92,3.75.96-2.11-1.65-4.18-17.92-3.75ZM1042.9,134.77c.35,7.44,1.47,6.72,2.45,2.36.98-4.35,1.81-12.37,1.49-19.27-.53,7-4.24,10.85-3.95,16.91ZM887.67,337.45c-16.72,1.31,1,4.81,13.33,3.47,6.91-.74-6.04-3.06-13.33-3.47ZM830.96,341.36c3.36,1.06,11.73.44,16.25-.55,4.53-.99,5.23-2.33-6.61-2.77,1.34.75-5.87,1.06-7.18,1.36-2.63.61-4.58,1.29-2.47,1.96ZM567.74,344.73c22.17,2.3,16.63-3.44,3.06-3.72-7.71-.16-14.79,2.48-3.06,3.72ZM510.86,344.19c-3.53,1.88,5.7,1.87,13.16,1.05,7.46-.82,13.12-2.45,2.56-3.84-4.49-.13-2.03.4-3.93.7-3.79.6-10.25,1.26-11.8,2.09ZM264.32,346.81c3.74-1.83-6.97-2.35-9.53-3.83-23.73.66-9.29,6.77,9.53,3.83ZM15.4,209.53c-2.06-17.1-4.82-10.76-4.69,10.45,1.88,1.23,3.5-.5,4.69-10.45ZM12.42,168.75c2,7.32,3.12-4.69,2.99-5.5-.08-.43-1.49-7.6-1.56-7.96-2.65-11.23-4.52,2.14-1.43,13.47ZM182.75,10.76c-16.82.95-2.54,3.09,1.69,4.7,12.1-.01,14-2.22,11.19-3.65l-12.88-1.05ZM487.47,13.12c.66.36,8.21,2.57,12.22,2.34,16.86-.96,3.94-6.18-10.13-4.65-2.16.24-3.14,1.73-2.09,2.31ZM553.5,10.77c-8.69-.28-26.81,3.91-7.48,4.69.91-.87,22.23-4.22,7.48-4.69ZM804.76,10.77c-10.27,1.4-2.61,3.63,5.88,4.68,14.49-1.73,13.42-4.25-5.88-4.68ZM868.91,10.77c-15.93.01-25.91,2.94-14.87,4.69,4.37.18,2.13-.43,4.08-.72,8.62-1.3,12.79-1.69,10.79-3.96ZM1046.98,144.39c-1.69-4.76-2.47,6.34-3.97,8.35.01,12.62,1.53,15.92,2.82,13.35,1.27-2.55,2.32-11.08,1.15-21.7ZM212.57,346.03c8.08-5.05-34.56-.24-18.35,1.57l8.79.09c.3-.83,8.94-1.27,9.56-1.66ZM1045.48,217.33c.39-6.07-.23-13.14-1.07-16.94-.84-3.81-1.88-4.38-2.29,2.34-.26,4.3.41,11.1,1.2,15.29.8,4.18,1.75,5.72,2.15-.68ZM866.97,338.47c-7.66.9-9.49,2.25-8.08,3.49,19.16.06,20.69-2.2,8.08-3.49ZM555.49,345.41l-4.08-3.36c-14.75.26-11.64,2.45-10.56,4.01l14.64-.65ZM223.55,348.19c14.26.6,12.09-3.14,10.08-4.21-11.11-.27-20.05,3.79-10.08,4.21ZM14.46,188.6c-1.08-8.75-2.49-11.76-4.21-10.45-.44,18.5,2.38,21.74,4.21,10.45ZM205.31,14.52c14.76-.64,12.46-2.19,11.91-4.22-16.86-.18-15.22,2.35-11.91,4.22ZM226.22,14.52c13.86.94,25.88-2.86,17.9-3.75-7.89-.88-23.04,2.28-17.9,3.75ZM526.6,10.3c-14.39-.66-12.81,3.1-10.41,4.22,10.86.31,20.08-3.78,10.41-4.22ZM827.52,10.84l2.58,3.69c11.16-.75,13.72-2.49,11.91-4.22l-14.49.54ZM1043.35,175.52c.16,16.14,1.63,14.28,3.55,14.44.8-19.17-1.75-15.77-3.55-14.44ZM964.6,342.81c5.34-1.72-3.04-3.47-18.56-3.62-4.76,1.53,2.79,4.05,18.56,3.62ZM770.36,343.26c-4.14,1.64,14.41,1.46,21.24.76,3.7-.39,17.29-3.85.8-2.07-7.06.77-11.18,1.14-22.04,1.31ZM649.09,346.32c-.27-1.62-7.65-2.03-15.74-2.96-12.5.97-8.44,2.75-1.29,3.75,7.15,1,17.38,1.23,17.03-.79ZM452.39,348.21c5.27,1.1,31.09-.99,29.81-2.69-7.82-1.37-6.37.3-9.81.62-5.93.55-28.18.36-20,2.07ZM314.99,345.97c-14.37.1-8.33,3.67-2.82,4.5,16.2,2.42,21.53-3.22,2.82-4.5ZM160.51,346.49l-27.36,1.93c-.9,3.59,31.25.7,27.36-1.93ZM6.96,278.25c1.83,11.9,4.73.88,5.16-13.39-1.96-5.99-4.93-2.35-5.16,13.39ZM10.23,91.45c-1.87-5.05-1.98,13.02-1.27,20.09.39,3.82,4.34,19.34,2.47,2.14-.8-7.36-1.17-11.59-1.2-22.23ZM115.78,7.03c-7.86,2.35,1.65,3.38,10.31,5.14,10,.4,9.36-3.69,3.74-4.58-2.18-.34-11.98-.79-14.05-.57ZM303.94,8.89c-15.58-.38-28.63.58-26.89,3.28,8.1-1.06,15.66-1.9,26.87-1.89v-1.4ZM431.01,7.02c-10.76,1.63-2.08,3.88,6.05,5.16,17.44-.12,6.45-5.76-6.05-5.16ZM587.95,12.18c8.69-1.28,17.89-1.77,29.85-1.88-3.73-3.46-32.66-.9-29.85,1.88ZM741.97,7.02c-11.76,1.92-1.69,3.87,8.93,5.16,13.25.46,8.26-5.7-8.93-5.16ZM1050.33,76.05c-.8.12-2.31,11.21-3.14,14.28-.53,11.54,3.63,9.14,4.49,4.6,1.42-7.54.13-19.11-1.35-18.88ZM1042.69,253.86c.11,9.96.16,19.93.18,29.91,1.4,1.69,2-6.4,1.92-14.62-.08-8.22-.89-16.5-2.1-15.3ZM910.08,10.81c6.13-.34,25.54-.16,18.63-1.91-4.62-1.17-27.77.66-29.86,2.11-1.3,1.06,4.49.83,8.09.53.42-.03.61-.59,3.14-.73ZM937.82,345.46c27.65-1.02,5.58-3.68-10.27-4.58-13.64.39-10.62,2.91-3.05,3.71,2.23.24,6.62.2,9.8.35,1.37.07,1.88.52,3.52.52ZM825.57,342.85c-16.14-1.2-39.88,2.42-30.87,3.93,8.64,1.41,38.42-2.06,30.87-3.93ZM624.26,350.63c16.83-2.21-1.69-3.97-14.91-5.27-24.82,1.47-5.08,5.24,14.91,5.27ZM474.21,349.14c-.49.41-.24,1.65,1.12,1.93,15.18,1.18,31.24-1.6,32.2-3.59.48-.98-18.15-1.09-21.18-.8-.86.08-11.77,2.16-12.14,2.46ZM282.72,352.56c1.56.26,16.44,1.3,18.17,1.24,22.23-.95-1.1-5.51-10.54-5.83-15.82-.53-14.66,3.41-7.63,4.59ZM158.07,353.31c18.98.62,23.29-1.78,29.97-3.85-.22-.37-8.36-.98-11.24-1.06-15.08-.41-32.9,3.6-18.72,4.91ZM4.17,257.09c.25,3.87,1.43,7.52,2.08,7.52.8,0,4.1-15,4.01-19.12-.23-13.53-3.51-12.57-4.71-5.94-.36,1.98-.4,6.24-.68,9.17-.17,1.81-1.17,1.04-.7,8.37ZM5.6,112.7c-1.25,18.15,1.33,32.87,4.16,32.54.6-10.67.39-21.7-1.07-28.96-.82-4.08-2.1-4.71-3.1-3.57ZM161.99,9.36c8.05-2.05-9.92-5.05-23.55-5.14-17.15,2.15-.59,4.47,11.96,6l11.59-.86ZM280.11,5.33c-16.9-.67-29.26,2.17-30,4.5,19.5,1.46,43.18-1.42,30-4.5ZM463.75,10.33c21.65-1.4,8.17-5.6-11.42-6.07l-10.44,1.65c-.75.62,6.81,2.24,9.72,2.8,1.75.34,9.57,1.67,12.13,1.62ZM564.03,9.82c17.01,1.32,36.06-1.31,32.47-4.16-20.69-1.46-31.75,1.04-32.47,4.16ZM763.08,4.23c-3.88.25-7.52,1.43-7.52,2.08,0,.8,15,4.1,19.12,4.01,12.6-.29,13.48-3.14,7.35-4.46-2.64-.57-7.02-.61-10.58-.94-1.75-.16-1.03-1.17-8.37-.7ZM907.83,7.71c.61-.43.79-1.73-.44-2.04-15.96-1.19-30.69.91-32.39,3.49-.67,1.02,17.15,1.32,20.19,1.04.87-.08,12.18-2.17,12.63-2.49ZM1054.78,108.28c.22-11.39-1.09-12.44-2.53-9.03-1.45,3.42-3.04,11.23-3.46,17.82-.41,16.68,2.83,18.11,4.22,11.07.16-.78,1.75-17.84,1.78-19.85ZM1048.29,260.88c1.69-20.04-.39-29.53-2.31-34.93-1.09,10.23-1.28,22.04-.86,29.8.43,7.75,1.49,11.47,3.17,5.13ZM908.46,347.86c15.85-.3,2.71-4.54-3.15-5.48-24.08.52-20.44,5.17,3.15,5.48ZM588.73,353.31c16.14-.41,2.51-6.21-5.99-6.4-14.7-.32-19,7.03,5.99,6.4ZM532.15,347.46c-5.25-.64-20.38,1.49-22.78,2.13-23.23,6.21,36.59,4.9,22.78-2.13ZM264.8,356.4c18.6-.32,5.87-6.64-1.31-6.96-15.87-.7-24.13,6.7,1.31,6.96ZM201.17,349.74c-5.54,1.18-29.77,4.81-15.35,6.3,17.49,1.79,31.83-3.78,26.8-5.89l-11.45-.42ZM2.52,211.15c-3.54,25.56,5.87,22.39,6.29,7.02.31-11.39-4.59-19.31-6.29-7.02ZM176.88,1.84c-17.85-.02-10.04,5.85.03,7.05,17.85-.61,18.22-7.03-.03-7.05ZM252.95,2.34c-25.67-.4-27.59,3.42-26.73,6.55,11.36.38,10.98-.45,16.15-1.22,10.43-1.55,15.35-3,10.58-5.33ZM487.74,1.82c-18.06.23-6.81,6.71.13,7.06,16.01.81,25.22-6.54-.13-7.06ZM536.9,8.13c30.43,2.73,41.68-9.35,10.02-5.21-5.76.75-12.13,4.09-10.02,5.21ZM798.74,1.81c-15.02.19-6.86,6.69,3,7.07,14.01.54,21.41-7.38-3-7.07ZM863.75,2.67c-14.17.97-13.23,4.15-12.74,6.22,21.59.99,41.29-8.18,12.74-6.22ZM1056.32,148.14c-.63-20.69-4.71-11.5-6.81-1.75-.6,8.46.89,14.59,2.63,15.82,1.73,1.23,3.77-2.55,4.19-14.07ZM1048.32,200.96l-.88,11.93c.36,3.81,1.2,11.86,2.12,17.39.93,5.53,1.96,8.53,2.85,2,1.25-9.1.82-18.21-.26-24.34-1.07-6.14-2.75-9.33-3.83-6.99ZM869.56,349.29c18.87-.03,20.91-6.65-3.27-5.92-4.16,2.05-19.07,4.9,3.27,5.92ZM554.97,347.68c-15.43-.47-23.03,6.06-10.12,6.97,7.88.55,15.37-1.07,18.39-2.87,3.02-1.81,1.58-3.81-8.27-4.1ZM227.86,357.5c19.93-.09,19.05-7.02,5.08-7.48-10.51-.35-31.07,7.58-5.08,7.48ZM7.9,194.62c2.11-13.76-4.12-23.73-5.31-21.96-1.67,2.49-2.1,15.82-.65,22.48,1.15,5.27,4.9,6,5.96-.52ZM210.36.97c-16,.93-21.1,6.08-3.65,7.32,11.72.15,18.51-4.82,15.54-6.32-.42-.21-7.52-1.25-11.89-1ZM529.78,6.57c14.75-4.04-1.62-7.32-15.69-4.58-10.29,2-2.55,9.58,15.69,4.58ZM828.87,8.39c13.53.63,25.14-5.97,12.76-7.42-23.88-.87-26.19,6.79-12.76,7.42ZM1055.79,183.44c-.61-19.35-5.9-17.41-6.76-4.14-.29,4.3.69,10.4,1.8,15.31,1.11,4.9,2.37,8.6,2.78,7.89.38-.66.86-5.42,1.25-7.85.47-2.9,1.23-.53.92-11.21Z"/>
        <path class="cls-1" d="M987.43,286.63c-3.52-42.22-6.94-83.12-9.16-123.41-2.26-40.3-3.24-80.2-3.22-120.95l42.27,42.27H42.21l42.27-42.27v274.25l-42.27-42.27c156.37-.02,311.91.94,467.84,3.17,155.91,2.19,312.42,5.56,470.22,9.05l29.01,29.32-967.07-.29,1.02,1.02V42.27l-1.02,1.02h975.1l-1.02-1.02.3,273.53-29.17-29.17Z"/>
      </g>
    </g>
  </g>
</svg>