<?xml version="1.0" encoding="UTF-8"?>
<svg id="Calque_2" data-name="Calque 2" xmlns="http://www.w3.org/2000/svg" viewBox="0 0 724.22 623.11">
  <defs>
    <style>
      .cls-1 {
        fill: none;
      }

      .cls-2 {
        fill: #fbfbfa;
      }

      .cls-3 {
        fill: #e5c17c;
      }
    </style>
  </defs>
  <g id="Calque_1-2" data-name="Calque 1">
    <g>
      <rect class="cls-2" x="42.27" y="40.9" width="640" height="540"/>
      <g>
        <path class="cls-3" d="M711.58,199.84l-.2,9.2c1.83,11.42,3.62,19.1,6,14.62-.59,7.76-1.81,6.06-1.91,7.08-.07.7.77,9.44.64,17.51-.22,13.27-2.13,11.33-2.37,13.85-.18,1.88.2,8.86-.17,13.3-.56,6.59-2.78,3.16-3.25,13.05l2.92,16.74-1.78,25.79c2.06-.32,3.72,15.08,2.61,27.16-.49,5.26-1.58,5.17-1.9,8.12-.6,5.59.62,7.23,1.04,11.85.35,3.87.33,10.84.85,13.06.6,2.54,2.81.58,3.2,4.03.25,2.21,0,7.63.3,10.6.6,5.96,4.4,11.26,1.64,31.69l3.72,10.22c1.08,10.01-1.45,26.54-1.06,29.59,3.3,1.93,2.9,25.27.35,34.11l.34,23.63c-.34,6.71-2.61,6.94-2.73,8.01-.12,1.13,1.19,12.07-.7,23.51-.65,3.93-1.9,5.68-2,6.68-.18,1.82-.04,4.96-.06,7.68l-.21,35.01-34.59-.21c-1.5,0-2.87-.07-3.78-.28-2.94-.68-1.49-2.9-8.19-3.95-17.26,3.2-22.12,3.76-42.24.46-10.6,4.15-29.05,3.4-38.17-.47-.97,1.6-19.23,2.04-20.68,2.43-1.91.52,1.08,1.7-3.03,2.55-2.71.56-9.42.63-13.09,1.11-3.19.42-4.23,1.38-6.96,1.66-8.25.85-22.61-.55-25.3-.23-3.67,3.98-16.59,4-33.94,1.87-4.8,2.91-27.55,3-32.71.04-31.05,2.09-24.83-1.68-29.49-2.39-.92-.14-14.03,1.2-23.37-.44-3.93-.69-2.49-1.57-4.58-2.07-1.95-.46-9.24-.42-13.26-1.19-5.14-.99-3.24-2.58-11-3.33-8.5,3.39-25.43,3.95-36.69.46-14.58,3.74-29.24,3.85-39.54-.48-1.57,1.51-17.35,1.68-19.87,2.34-3.01.79.56,2.44-7.84,3.15-3.27.28-7.83.02-9.83.23-2.08.22-1.98,1.62-6.16,2.04-7.34.74-19.33.21-25.44-.71-4.62,6.9-27.26,2.32-32.51,2.35-1.53.01-6.04,2.47-22.03,2.24-7.83-.12-9.62-1.09-10.48-2.25-8.79.25-17.48,1.1-25.36,0,26.03.7,25.92-3.31,25.4-6.57-18.17.34-28.73,3.67-25.4,6.57-5.97-.83-6.07-1.87-8.29-2.14-.9-.11-12.78.43-21.09-.73-6.62-.92-3.35-1.99-4.83-2.25-1.08-.19-8.57.05-12.67-.47-5.98-.76-1.79-3.1-11-3.8l-17.05,2.82-19.52-1.93-34.23-3.38,2.78-28.08.43-4.34c-2.18-.42-3.65-15.54-2.31-26.65.59-4.85,1.72-4.45,2.09-7.16.69-5.04-.68-8.37-1.13-13.18-.33-3.49-.48-11.5-.58-11.98-.28-1.37-1.56.51-2.3-1.68-.72-2.11-.86-9.83-1.42-14.04-.34-2.58-1.31-3.48-1.62-7.17-.71-8.38.21-16.96.24-25.44-6.29.12-1.53-30.95-1.88-33.83-5.07-12.91-.25-28.3-.07-32.77.18-4.38-1.03-16.16-.18-23.88,3.92-8.39,1.91-4.95,2.21-17.64.32-13.52,2.87-14.68,3.13-16.63.27-2.04-.21-7.17.37-11.09.57-3.9,2.99-6.87,3.93-8.2-2.79-15.1-4.31-24.83-.47-40.89-3.84-15.58-3.77-27.74.48-39.54-1.6-.97-2.04-19.23-2.43-20.68-.52-1.91-1.7,1.08-2.55-3.03-.56-2.71-.63-9.42-1.11-13.09-.42-3.19-1.38-4.23-1.66-6.96-.85-8.25.55-22.61.23-25.3-3.98-3.67-4-16.59-1.87-33.94-2.91-4.8-3-27.55-.04-32.71-2.09-31.05,1.68-24.83,2.39-29.49.15-.96-1.19-13.11.45-23.33.81-5.06,2.13-3.9,2.31-5.3.21-1.63-.07-6.32.1-8.5.04-.57.09-1.09.14-1.54L11.75,3.31l30.52,2.99c9.59.94,4.12,3.08,14,4.04,13.68-3.65,21.36-3.31,40.88-.87,3.09-.12,5.86-2.21,18.03-2.29,16.44-.11,13.71,1.99,18.51,2.64,4.79.65,8.67-.58,14.07-1.02,3.44-.28,12.26-.43,12.63-.52.58-.13-6.26-1.74,3.05-2.94,4.29-.55,9.07-.06,11.59-.3,2.14-.2,1.31-1.38,5.68-1.79,7.18-.67,21.04-.54,26.03.69l11.64-3.48c11.09-.86,25.37,1.93,28.73,1.58.6-1.59,6.93-2.18,17.02-2,12.57.22,10.49,1.74,15.44,2.17,6.66.57,34.31-1.23,32.04,2.93,7.13-.69,18.82.02,23.35,1.02,3.73.82,1.54,1.79,2.62,1.98,1.25.23,10.58.02,14.45.88,3.16.7,1.34,2.42,7.24,3.45,17.67-2.98,26.1-2.87,43.97.23,14.13-3.99,29.11-2.11,40.73,1.11-.5-1.53,19.22-1.41,21.17-1.77,2.24-.42-.3-1.52,4.38-2.16,3.09-.43,10.1-.34,14.16-.67,3.53-.29,5.1-1.09,8.09-1.26,9.05-.53,23.27,1.04,26.25.83,4.59-3.63,18.43-2.86,36.32-.64,8.14-1.9,15.58-1.72,21.5-1.06,5.93.66,10.35,1.81,12.61,1.95,4.44.26,17.42-.34,24.89.57l4.13,2.18c14.3-.25,17.72.08,25.54,1.62,1.91.37,1.14.97,2.71,1.23,2.18.36,9.21.43,12.98,1.32,2.94.69,2.68,1.66,3.62,2.41,9.01.42,9.76-1.01,13.78-1.34,10.95-.89,32.15,1.07,26.35,2.61-7.48.04-6.48-.85-9.21-1.23-10.28-1.46-23.04.8-19.26,2.58,4.12,1.93,10.08,2.08,25.16,1.98l-2.66,2.66-20.46-1.63c-9.4.71-9.91,2.16-5.69,3.31,4.23,1.16,13.18,2,22.83,1.65l-5.64,5.65c-7-1.29-28.62-.48-29.85,1.01-.66.79,14.75,1.59,16.92,2.29l9.95-.3c2.28,1.66-5.38,1.48-8.76,1.98-1.25.19.57.63.3.65-1.81.14-31.06.5-36.2.55-16.46.13-59.91-.1-74.98-.64-8.26-.28-23.94-2.34-21.46.02-6.24.06-9.32.16-7.98-.77h-2.74c-6.75,2.3-38.46.78-53.57,1.56l-4.99-.86c-25.94,1.59-56.53.27-82.49.14-6.88-.03-37.63.67-40.6.25l3.51-1.74c-5.86-.08-13.68-.18-14.56,1.07l8.04,1.1c-4.33.06-8.43-.36-12.55-.35-11.6.03-57.91.08-66.63-.35-6.06-.29-9.57-1.56-14.77-1.59-9.33-.06-4.21,1.34-4.64,1.38-10.91.93-7.64-1.51-9.55-1.37-4.98.33-.9,1.19-3.27,1.39-10.77.91-28.73.5-39.56.52-19.77.04-37.8.13-59.33,0-8.62-.05-19.31.55-29.69-.1l-1.25-1.86-6.4.69,2.07.7h-11.32s-1.32-1.39-1.32-1.39l-7.1.46,5.58.93c-7.17-.33-13.5.68-18.76.8-4.04.09-14.46.08-27.29,0h-.18s0,.18,0,.18c-.17,29.02-.7,70.26-1.27,76.31-.16,1.74-.94,1.61-.97,3.7l.51,12.3.92-2.81.95,63.5-1.65-9.78-.72,9.86c.11,7.27,1.81,1.73,2.25,17.59.57,20.21-.59,49.77-.71,69.96-.04,6.78.58,39.34.35,40.86l-1.88-4.2.48,15.53,1.4-2.85c.96,16.49-.16,29.3-.33,44.57-.08,6.72.38,21.28.18,26.99-.2,5.72-1.7,11.59-1.73,17.42-.05,9.28,1.38,3.77,1.41,4.21.85,12.08-1.06,5.21-1.4,11.26,2.81-2.47,1.95,29.93,1.97,40.95.05,19.83.14,37.7,0,59.32-.06,8.45.57,19.3-.1,29.66l-1.87,1.39.69,6.37.7-2.14c-.06,3.49.25,6.84.35,10.03l.02.66.62-.02c.26,0,.52-.01.78-.02,31.92-.57,56.19-.21,87.41.23,7.08.1,22.89-.34,29.21-.09,5.65.22,22.42,3.59,19.4.23,20.42.03,39.08-1.37,59.33-.47-3.58,4.52,13.69-.1,21.91-.38,6.86-.23,22.55.24,30.27.27,9.64.05,21.27-.44,32.49.1-12.5,1.94,7.52,2.82,2.83.47l11.04.06,1.65,1.35,7.06-.47-5.61-.93,33.85-.47-5.65,1.64c.77.61,12.42.25,14.14-.48l-5.66-1.63c3.44-.12,6.8.41,9.84.38,16.73-.15,53.87-.06,70.02.66,5.87.26,8.99,1.09,14.74,1.32l5.66-.48-1.39-.92c13.4.05,27.92-.83,40.91-.95,19.12-.17,46.31.28,67.73.37,19.94.08,41.96.61,61.78.43,5.3-.05,12.27-1.19,21.54-.33l-2.83,1.87c5.87.08,13.69.17,14.11-1.17l-7.02-1.19,10.46.11h.15s0-.15,0-.15l.82-77c.13-2.6,1.4,3.16,1.41-5.95,0-9.43-1.37-3.65-1.4-4.08-.85-11.99,1.06-5.35,1.39-11.47-2.57,2.26-1.37-10.42-1.54-17.79-.26-10.8-.42-9.77-.41-22.93.02-23.14-.53-47.99-.34-72.93.04-4.89.58-10.65.42-16.13l1.76-1.99-.66-6.13-.66,2.36v-11.33c1.6,4.03,1.68-7.7.02-3-.84-16.14-.62-29.4-.59-46.17.03-15.84-.07-55.88.56-70.45.22-4.89,2.6-20.8-.09-16.09,0-20.48-1.15-38.33-.43-59.11,3.58,2.63-.33-17.4-.01-19.71l1.45-8.27-1.22-.46-.59,6.15c.45-25.94-.37-51.35.86-77.25,2-6.68,4.14,4.71,5.02,2.68.43-.99,1.42-14.33,2.75-10.24.44,2.53-1.65,21.5-2.16,22.27-.06,3.97.15,2.72.54,2.43.73-.55,2.57-4.29,3.03-8.49.58-5.26.09-15.15.79-18.06.4-1.68,3.38-4.61,3.94-4.24,1.03.67,2.39,17.71,2.34-2.58,2.21-1.04,4.87-10.25,6.84,7.2,1.5,13.22.35,25.02-1.24,29.27l.08,2.83c1.03-2.45,2.03,17.05,2.39,18.36.45,1.64,1.28-2.15,2.05,1.48.75,3.55.69,11.18,1.02,13.88.27,2.19,1.32,1.2,1.79,5.2.94,7.98.31,24.06.65,26.6,3.06,1.03,4.05,14.59,2.6,33.07,1.28,4.96,2.12,7.79,2.46,19.11.47,15.42-1.35,11-1.36,16.62-.02,6.89,1.51,13.85.67,25.1.1-22.78-3.63-30.39-5.81-23.82ZM686.68,107.67c-.56-3.02-.59-10.62-1.51-8.59l.52,42.22.96-32.07-.09,59.91,2.56-21.8c-.04,15.31-2.82,23.08-.68,35.06l2.44-7.56c-2.03,12.32-.89,10.68-1,21.67,0,1.02-1.13,5.59-1.15,9.81l2.43,2.86c.09,1.71-.04,4.58.04,5.69-.94.9-2.05.64-2.81,5.92l3.83,19.38.22-23.14-1.18.43c-.13-.43-.02-2.06-.06-2.6.4-.38.81-.31,1.22-.7-.19-16.29-.14-33.1-.69-48.93-.16-4.64-.98-17.97-1.83-30.56-.85-12.6-1.74-24.45-2.16-26.35.06.42.46-.17.71,1.25.52,2.9.34,9.04,1.52,5.44l.13-28.76c-1.56.24-2.61,1.36-3.49,13.03.82.54,1.07,8.61,1.13,9.05-.11-.47-.72,1.24-1.07-.65ZM687.37,412.28l-.53-18.34c-2.06,9.92-.19,29.64-.38,42.72l.92-24.38ZM553.29,586.12c12.23-.99,40.75,1.31,43.65-1.42-21.89.31-43.11-.19-64.91.47l21.27.94ZM259.44,586.13l18.39-.73c-.14-1.3-35.97-.58-42.28-.23l23.89.96ZM37.02,504.55l.52,18.33c2.03-8.36.43-27.6.46-39.51l-.97,21.18ZM36.59,216.81c.67,3.11.66,11.01,1.88,9.6l-.47-42.32-1.4,31.03.46-56.45c-1.99,1.96-1.28,14.89-3.28,16.94l2.17-23.96-1.07-10.15-2.98,5.85c2.56-10.71,1.13-10.33,1.39-20.71.02-.79,1.98-5.4.69-13.19-.98-.74-2.41,3.67-2.08-5.59l3.29-4.23-4.22-21.18-.51,20.88.98,3.1c.07,2.59-.68.54-.83,1.92-.45,4.23-.08,39.82.17,47.86.37,12.04,3.04,50.26,4.41,58.93-.08-.47-.59-.21-.91-1.81-.65-3.28-.35-9.17-1.88-6.56l-.5,28.14c2.04,1.09,3.47.92,4.69-9.9-1.06-1.22-1.32-9.39-1.4-9.87.31,1.98,1.13.39,1.41,1.68ZM169.6,35.73l-18.59.7c10.49,1.62,27.14.26,39.63.26l-21.04-.96ZM464.99,36.35l-18.69.39c8.12,1.81,29.62.48,42.31.52l-23.62-.91ZM686.91,208.78c.75-12.81-.08-16.09-.31-28.26-1.53-1.01-.4,10.24-.41,15.93,0,5.91-.46,12.34-.26,18.64,1.05.75.71-1.84.97-6.31ZM686.85,243.05c-.55-4.4-.75.79-.81,4.67-.3,17.4,1.08,39.31.6,58.09,2.34-7.34,2.4-17.26,1.89-28.2-.52-10.95-1.6-22.9-1.67-34.55ZM687.57,506.98c.81-12.33.72-20.42-.85-30.56l-.2,36.93c1.33,1.35.76-2.07,1.05-6.37ZM681.65,589.39c.22.02.44.03.62.05l7.84.63.69-9.17c1.2-15.84,2.4-23.81,1.35-42.29.51,1.22.71,4.78,1.17-.07.29-3.04.7-15.01.69-18.77,0-1.41.03-2.8-.03-4.16-1,2.29-1.31-2.55-1.39-2.8.47-.19.94.08,1.4-.11-.29-11.23.33-28.09-.08-38.31-.09-2.22-.89-1.62-.88-3.01.1-13.14.54-13.96-.59-28.2-.72-9.02-.29-5.64-.72-13.19-.18-3.2-3.31-29.83-3.96-24.91l-.36,59.84,3.19-20.51c.28,10.01-2.07,19.49-2.26,27.57-.02.63,1.46,2.67.94,9.76l3.24-9.01c-.36,6.65-.59,10.22-1.85,8.84.92,9.72.43,14.93-.89,21.5.77,6.2,1.84,6.74,2.81,9.73-6.58,2.67-1.36,9.56-.44,25.8-.98-2.33-2.74-7.29-2.85-13.89-3.26,2.21-.56,25.22-.07,39.15.15,4.26.07,7.98.12,11.95-.6-4.2-1.29-20.12-1.84-27.4-.28-3.76.45-8.38-.98-6.64l.3,39.12.04,4.53-4.6.03-23.19.18,14.94,2.48c2.89.31,5.63.22,8.25.08l7.66-.4-.35-6.91c-.09-1.75-.2-3.43-.22-5.08.11.78.79,3.76,1.16,5.08l1.54,5.48-9.79,2.77c-.45.13-.71.22-.62.24ZM461.43,586.33c12.23.95,16.1.37,28.21-.22,2.03-1.82-9.9-.52-15.52-.55-5.86-.03-11.97-.6-18.34-.37-1.38,1.23,1.44.82,5.65,1.15ZM427.55,586.11c4.67-.61-.38-.85-4.2-.94-17.14-.39-39.53,1.06-57.93.47,15.69,4.83,38.92.66,62.13.46ZM346.84,585.15c-19.36.96-26.68,4.91-2.06,5.52,3.44.09,18.98-1.06,20.04-1.37,6.62-1.89-13.31-2.86-17.98-4.16ZM196.02,586.11c.25-.88,1.33-.97-4.3-.95-10.75.04-21.13.36-32.41.02,9.9,2.39,23.26,1.42,36.71.93ZM95.27,589.18c24.69,3.76,38.08,1.85,55.51-1.89-9.25-2.3-23.88-.11-37.1.4-6.18.24-10.46.24-16.49.3l27.7-1.75,6.17-1.06-59.28.47c7.68,2.46,10.61,2.5,25.41,2.34l-1.92,1.18ZM36.84,409.96c-.94,12.05-.54,20.89.92,31.03l.23-36.68c-1.23-1.38-.82,1.45-1.15,5.65ZM33.78,336.53l-1.9,32.33,3.99,24.11c2.07-5.17-.07-25.39-.48-36.62-.19-5.26-.14-9.25-.21-14.17.63,4.42,1.38,20.35,1.84,27.2.26,3.97-.46,8.25.98,6.66l-.47-62.1c-2.43,9.96-2.56,12.46-2.34,28.23-.15-1.04-1.32-5.99-1.4-5.65ZM34.59,279.09c-2.2-2.66-2.72,26.41-.83,33.47,1.79,6.66,4.98-16.44,3.64-26.11-.2-1.45-2.39-6.85-2.81-7.37ZM36.83,116.36c-.94,12.23,0,15.97.23,28.19,1.83,2,.52-9.9.56-15.53.03-5.86.6-11.97.38-18.34-1.22-1.37-.83,1.4-1.16,5.68ZM37.06,82.44c.61,4.67.85-.38.94-4.2.25-11.09-.27-24.37-.5-37.34l-.09-4.69,4.86-.09c7.13-.13,14.17-.18,20.71.03-5.68-1.8-12.81-2.33-20.71-2.27l-7.06.05.05,6.97c.09,12.69,1.69,27.4,1.81,41.54ZM264.13,35.76c-13.41-.92-16.89-.33-30.69.07-2.5,1.81,12.44.55,18.34.57,5.72.01,11.93.61,18.34.39,1.83-1.28-1.8-.74-5.99-1.03ZM343.12,33.94l-44.34,2c-4.93.57.14.81,3.94.9,17.09.39,40.1-.92,58.4-.33l-18-2.57ZM560.2,36.55c-11.74-.82-15.97-.37-28.49.07-3.07,1.49,9.65.46,15.27.51,5.86.05,11.67.52,18.2.36,2.12-.98-.95-.66-4.98-.94ZM594.12,36.86c-5.1.45-.15.66,3.62.74,16.95.34,40.39-.67,58.47-.16-6.53-1.88-16-2.08-26.85-1.77-10.85.31-23.08,1.14-35.25,1.19ZM691.53,325.62c-.36-23.07-2.67-19.48-3.96-10.03-1.29,9.46-1.56,24.77,2.43,25.85.58-1.6.56-6.97.85-10.47.13-1.52.75-.72.67-5.35ZM647.09,585.95c-9.64-.71-17.47-.13-20.64,1.54-9.39,4.94,42.79,3.28,31.94.12-.38-.11-10.61-1.62-11.3-1.67ZM50.48,590.85c11.05-.01,20.91-1.41,18.5-3.33h-11.31s2.85-1.41,2.85-1.41c-7.83-.58-13.94-.57-18.24-.06l-4.48.53-.67-5.69c-.47-4.01-1.38-6.49-2.64-7.39l-.73,1.46c-.21,1.83-.3,3.91-.42,5.93l-.49,8.39,9.44.55c1.02.06,2.02.13,2.97.22,1.37.14.67.79,5.24.78ZM86.81,31.01c-8.7-.29-21.44,1.09-23.67,2.53,2,1.26,10.6.73,10.98.82,2.79.67-1.55,2.22,15.23,1.76l10.92-2.98-1.43-.73c-2.76-.32-6.1-.36-8.96-.64-1.09-.11-1.23-.68-3.09-.75ZM361.82,34.78l11.4.04-3.42,1.28,16.95.28c8.98-1.05,12.15-2.46,7.01-3.96-15.52-.85-31.75-.79-31.94,2.36ZM686.84,235.88c0,5.13.86,10.17,1.09,15.17.5,10.64.35,23.82,1.84,30.48,2.38-21.94,2.56-34.86-.64-50.01-.95-4.51-2.28-8.49-2.28,4.36ZM551.98,589.44c-2.1,2.17,25.32,2.38,29.61,1.38-1.67-1.77-.5-3.81-12.86-4.24,2.12,2.13-4.72,1.14-8.49,1.41,1.34-.48,3.8-.75,2.81-1.41l-59.27-.47c2.83,1.8,16.82,2.05,22.58,3.75-9.37.29-24.02-2.71-29.61-2.64-15.8.18-7.24,2.55-4.3,4.06l-10.01-1.85-6.56.06-3.12.85c-2-1.51-5.52-2.11-13.88-1.35l-5.92,2.29c4.34-1.29,2.13-2.33-4.24-3.27l-21.16,4.21,63.72.51,5.44-.99,2.71.94c7.52-.81,16.64-.95,24.82-1.43,11.68-.69,23.43-2.34,36-3.25-1.97.72-1.17,1.31-8.25,1.45ZM422.76,591.2c1.05-.05,6.37-.97,11.43-1.9,2.53-.47,4.99-.94,6.81-1.31,1.83-.37,3.02-.64,3.01-.71-.26-2.23-18.42-.3-22.69-.09-3.18.16-37.2,1.26-33.32,2.2,11.15.78,21.08,2.52,34.76,1.81ZM155.08,587.99l-21.18,4.22,22.56.47c-2.08-1.06,2.04-1.21,2.84-1.41.15.47-.16.94-.02,1.41,25.28.19,47.6-.03,71.29-1.45.78-.05,9.77-.64,10.34-.68,8.83-.73,16.3-2.07,25.68-2.57-.38.08-5.71,1.24-6.38,1.38-9.25,2.19,17.42,2.45,25.96,1.88,1.67-2.02.81-3.46-9.71-4.66-1.22,1.06-9.39,1.32-9.87,1.4v-1.41s-59.29-.47-59.29-.47l19.76,3.28-26.91-2.33-7.08,1.24,5.73,2.97-8.72-1.85-13.81.92c1.42-1.27-1.78-1.52-8.44-1.88-.19,1.23-5.13,1.96-8.52,2.82-.34-1.09.56-2.37-4.22-3.28ZM33.31,474.89l2.81-29.73c-1.03-1-.81-7.78-1.06-9.08-.3-1.55-1.05-.06-1.21-1.07-.38-2.45.52-12.98-1.01-10.99l1.86-9.84-2.81-9.85c1.2.12,2.74-.82,3.28-8.44l-4.22-19.81-.5,23.6.96,1.84-.95,4.6c.19,10.65-.24,23.51-.03,33.69.11,5.37.93,3.7.92,5.29-.23,24.49.6,17.68,1.38,30.19.1,1.62-.54,5.39-.17,10.74.19,2.69,3.34,30.1,4.01,25.55l.47-59.27c-1.9,2.87-1.72,18.02-3.75,22.58ZM35.89,98.93c2.27-8.57.5-15.27,0-25.02-.16-3.08-1.2-34.76-2.11-31.01-3.18,27.41-2.1,38.67,2.11,56.03ZM239.9,32.64l14.42-.87,6.71,1.83c4.96-.76,7.11-1.76,10.73-2.68.02.47-.51,4.26,7.61,3.18.44-.06.73-.78,3.17-1.12,5.45-.77,12.13-1.47,17.87-2.17l-23.89-1.24c-1.03.68-3.07.93-4.76,1.36-.02-.45.42-.91.4-1.36l-40.14-.14c-.12.3-.14.61-.19.91-10.94-1.04-15.35-.57-28,.25-8.74.56-6.61.37-14.98.79-3.25.16-31.02,3.22-26.38,3.91l59.59.53-19.28-3.25,27.79,2.32,9.09-1.55c-5.62-.86-8.06-1.72-7.84-3,4.21.4,9.93,1.46,8.06,2.31ZM321.82,31.53c-4.43-.31-9.03-.53-14.05-.47-15.07.16-34.53,5.16-19.06,4.86l50.83-2.54-17.72-1.85ZM574,35.28l23.95-3.16-25.34-.58c1.61.82-3.44,1.03-3.75,1.09.17-.38.71-.75.87-1.12l-38.17-.33-3.8.76-4.86-.79c-7.32.65-15.57.68-23.26,1.01-12.01.52-24.97,1.85-38,2.59,2.34-.61,1.85-1.15,9.12-1.22-1.99-2.03-17.66-2.13-29.35-1.39-4.18.73,2.11,3.83,10.99,3.8-1.1-1.87,5.31-.98,9.24-1.2-1.58.42-4.19.64-3.52,1.21l59.38.61c-1.84-1.51-15.8-1.78-20.72-3.26l28.4,2.51c1.59-.86,8.31-.64,9.76-.84,1.73-.24.65-.86,1.77-.98,2.69-.3,12.79.5,11.67-.76l8.83,1.57c6.73-.59,7.99-1.44,11.65-2.19-.49,1.11-2.73,1.89,5.13,2.65ZM574.86,36.03c13.87,1.36,14.58.35,26.2.01,3.38-.11,38.19-.77,34.96-1.48-29.1-2.73-37.65-1.71-61.16,1.47ZM691.65,412.61c1.46-7.97.58-18.74.59-28.76-.31-1.95-4.9,5.52-4.48,15.52,1.6-4.38,2.53,17.38,3.89,13.24ZM33.07,503c-1.87-.16-1.69,25.79-.42,28.19.79,1.56,4.86-8.56,3.94-13.93-1.6,3.41-2.37-14.16-3.51-14.26ZM171.3,31.16c-10.11-.96-16.88-.88-28.18-.55.13,1.75-.24,4.46,13.64,4.67-4.06-1.6,20.16-2.71,14.54-4.12ZM693.72,269.79c-2.62-5.66-1.69,9.21-2.45,18.12-.42,4.85-1.44,3.16-1.2,9.26,1.2,10.36,3.17,9.87,4.51,4.48,1.34-5.38,2.02-15.7.8-24.68-.08-.58-1.56-6.98-1.65-7.18ZM696.18,368.54l-5.83-7c1.15,5.22,2.43,16.03,3.38,20.98,1.84,9.59,3.1-9.33,2.45-13.98ZM678.85,592.21c1.65-1.39-6.29-1.69-9.9-2.81-9.64,1.25-12.65,3.24-8.5,5.16,1.19.33,12.34,1.28,14.84,1.34,2.33.05,4.73-.05,6.97-.26l15.96-1.51-1.22-13.23c-1.02-11.06-4.5-18.58-4.27,0l.13,10.32-10.59.15c-.08,0-.17,0-.26,0l-3.16.84ZM602.56,589.4l-22.4,4.05c-2.01,1.63,9.93,2.4,16.1,1.48,4.21-.63,6.95-4.42,6.29-5.52ZM376.62,589.41c-8.18-.95-22.28,5.7,2.19,6.49,14.32.46,27.46-3.33,17.78-4.42-3.46-.51-8.85.29-10.98.17-.77-.04-8.58-1.84-8.99-2.24ZM78.84,589.41c-22.94,2.52-.85,8.43,17.52,5.95,27.46-3.72-10.56-3.59-17.52-5.95ZM30.96,333.74l1.41-1.49-.48-6.99,1.88-.05c-1.44-17.92-6.95-14.9-6.58,6.98.2,12.21,5.13,25.73,4.62,4.7l-.84-3.15ZM33.77,257.45l-4.06-22.3c-.37-.64-1.89,1.9-1.99,2.86-1.58,15.01,4.5,21.51,6.05,19.44ZM31.12,53.95c1.33-2.42.38-10.33.39-13.05l.02-11,10.74.25c.16,0,.29,0,.41,0,.97.05,9.02,2.58,13.22,2.25,16.34-2.4,7.24-7.58-13.63-6.23l-15.64,1.02.91,13.71c.08,1.23.19,2.5.32,3.81.53,5.34,2.17,11.23,3.26,9.24ZM146.18,28.01c-6.65-2.15-13.73-1.74-18.84-.44-5.12,1.3-8.26,3.49-7.23,4.87,5.46-.47,8.27-1.82,12.66-2.62,3.19-.58,10.75-.93,13.41-1.8ZM352.57,32.99c16.67-2.26,15.76-5.11-6.29-6.16l-19.23,2.82c.95,2.14,12.79,1.04,15.88,1.21.81.04,7.49,1.92,9.64,2.12ZM647.5,34.62c7.55.72,26.4-3.96,2.16-4.82-14.5-.54-28.88,2.33-20.89,3.13,4.11.4,9.05-.15,11.16-.03.75.04,7.43,1.43,7.56,1.73ZM691.75,84.46c2.04-5.08,1.79-11.49.81-15.91-.98-4.42-2.69-6.85-3.72-4.14.3,6.12,1.17,7.52,1.73,10.89.38,2.29.54,8.44,1.17,9.16ZM630.8,595.97c1.23-.27-1.71-1.61,5.67-1.64l-28.2-4.46c-.17,1.42.32,3.23,3.88,4.53,2.15.79,18,1.71,18.65,1.57ZM338.65,594.09l-24.02-4.22c-.52,1.72-.65,4.73,10.27,5.48.56.04,11.67.21,12.13.14.33-.05,2.29-1.14,1.62-1.41ZM283.55,594.34c6.04.63,7.84,1.69,16.39,1.06l8.98-5.53c-6.34.32-8.4,1.51-12.25,2.18-3.92.69-10.86,1.04-13.13,2.29ZM33.3,551.09l-4.06-22.33-1.48,7.26c-.08,2.27.22,7.14.5,8.76.86,4.95,3.82,6.98,5.04,6.31ZM29.55,287.31l3.75-24.15c-3.18-.2-5.65.67-6.1,22.53l2.35,1.63ZM396.5,28.02l-2.68-.83-5.75,1.47,25.99,4.2c2.79-1.91-1.47-3.41-6.5-5.09l-11.07.26ZM419.82,32.88l24.3-3.04c2.66-1.43-8.77-2.2-15.64-1.43-4.9.55-9.09,3.49-8.66,4.47ZM691.22,355.47c1.5,1.22,3.15-1.19,4.05-6.1.9-4.91,1.04-12.33-.43-20.98-.92,4.37-1.37,11.94-2.04,16.96-.44,3.3-1.43,4.85-1.57,10.12ZM27.74,565.82c-.22,2.23-.04,10.55.43,15.08l1.57,15.36,12.52-1.26c2.33-.23,3.67-.54,2.77-.91l-2.77-.39-14.31-2,1.51-10.81,3.37-24.12c-.29-1.51-4.73,5.4-5.09,9.04ZM114.43,31.5c.64-1.63.27-4.3-10.04-5.01-.57-.04-11.85-.22-12.32-.15-8.81,1.22,16.34,4.3,22.36,5.17ZM692.31,142.11c1.71-10.63,1.63-20.96.91-25.38-.72-4.43-2.08-2.97-3.13,9.73,1.43-2.75,1.06,18.51,2.22,15.66ZM696.75,420c-1.76-9.18-3.09-4.39-4.83,1.27.81,6.51,1.69,10.13,1.44,19.75,1.4,4.43,3.98-14.73,3.38-21.02ZM248.23,590.81c-3.72,1.6-8.68,1.54-18.35,1.41,5.55,5.69,41.08,3.51,18.35-1.41ZM32.36,494.62c-.81-6.6-1.69-10.33-1.41-19.75-1.9-11.67-7.13,39.89,1.41,19.75ZM184.11,26.25l-6.2.41c-6.1,1.34-3.45,3.4,3.72,4.46,5.14-1.04,10.37-1.54,18.85-1.34,3.56-.52-9.35-3.8-16.36-3.53ZM548.93,595.5c-.61-1.47,4.65-2.87-2.73-4.02l-19.85.74c-1.75,2.35,8.82,3.65,22.58,3.28ZM31.9,199.52l-1.64-21.03c-1.8,5.98-2.98,11.73-2.59,25.34.89-.25,4.04,2.12,4.23-4.31ZM498.06,31.31c2.97-1.99-7.08-3.18-21.21-3-2.81,1.07-5.28,4.54,8.68,3.6.9-.06,2.96-1.18,12.53-.59ZM696.97,253.64c1.28-15.81-.96-30.4-3.22-27.55l-.94,33.93,4.15-6.38ZM694.9,551.48c-.04,1.91-1.25.27-.86,5.63.49,6.35,2.33,5.55,3.71.65,1.38-4.89,2.29-13.93.95-23.82-.29-2.13-3.13-10.6-3.28-9.9-1.19,9.82-.37,20.31-.52,27.44ZM411.28,597.26c18.68,1.68,29.32.05,29.24-3.19-6.18-1.22-17.91-.4-22.91-.53-1.38-.04-2.12-1.4-9.82-.86l3.49,4.58ZM118.33,597.38c15.15,1.7,28.87-.78,28.5-3.31l-32.69-1.39,4.19,4.7ZM27.67,388.97c3.19,4.48,1.77-15.88,1.96-22.84.04-1.35,1.4-2.14.86-9.82-4.53-8.55-7.76,25.73-2.82,32.66ZM29.09,95.4c1.18-5.51.34-18.51.54-22.91.07-1.49,1.37-1.87.85-9.82-6.11-7.51-7.53,30.8-1.39,32.73ZM320.91,27.88c-1.58-4.7-33.13-3.98-35.73.39,5.21,1.14,19.78.49,26.01.64,1.13.03,1.43,1.55,6.75.84.88-.12,3.1-1.49,2.97-1.87ZM617.65,28.39c-17.89-1.53-29.75-.41-31.65,2.15,5.5,1.01,17.88.48,22.85.64,1.38.04,1.25,1.1,9.37.75l-.58-3.53ZM692.42,153.46l.84,22.66c2.4-3.32,3.15-15.79,2.82-24.02-.34-8.24-1.69-12.15-3.66,1.36ZM492.46,594.1c-.79,2.62,9.08,4.21,25.2,3.71,2.7-1.25,3.48-4.55-6.88-4.66-1.42-.02-1.44.74-2,.76-3.33.14-15.49.05-16.32.19ZM224.29,594.82c-2.66-2.75-17.04-.27-28.27-.73.34,3.97,33.21,5.82,28.27.73ZM29.07,144.54c-5.77,3.16-4.1,44.79.24,25.41,1.57-7.02.07-5-.1-6.1-.11-.71.17-15.73-.14-19.31ZM210.4,24.33c-2.89,1.59-6.2,2.99,1.7,4.36l23.13-.64c-3.05-2.26-7.09-4.22-24.83-3.72ZM698.89,448.87c-1.46-2.07-2.69-4.05-4.08.79l.51,25.51c2.63-3,4.15-7.48,3.57-26.3ZM25.36,466.16c1.48,3,2.68,2.49,4.17.13l-.46-25.3c-2.65.88-4.23,8.15-3.71,25.17ZM509.85,26.67l-2.48,3.53,26.03-.17c2.3-2.13-6.8-3.58-23.54-3.36ZM693.35,184.74c.76,7.13-.02,29.88.96,31.05.75.97,3.4-11.26,3.57-14.12.95-15.34-3-22.61-4.54-16.93ZM698.73,483.34c-.92-1.41-2.36,1.28-3.38.48.69,5.89.15,27.51.28,28.73.43,4.13,1.96,2.69,3.22-1.59,1.26-4.27,2.23-11.41,1.54-18.51-.06-.59-1.54-8.95-1.65-9.11ZM455.1,597.26c13.8,5.56,40.77-2.51,24.45-3.11-14.6.91-35.16-1.2-24.45,3.11ZM169.79,599.26c16.51.02,20.15-2.71,17.73-5.17l-28.24.22c-4.57.49-1.17,2.7.96,3.39.73.23,8.04,1.01,9.55,1.56ZM25.67,404.97c-5.03,14.88,2.76,39.02,3.36,23.11-.84-15.88,1.11-36.34-3.36-23.11ZM29.07,135.95c-.75-7.03.33-29.74-.71-30.92l-4.36,11.76c-.58,16.64,2.81,25.58,5.07,19.16ZM263.36,23.23c-13.91-.96-23.29,2.97-19.51,4.84l28.76-.09c4.87-.46,1.85-2.56-.12-3.26-.26-.09-8.52-1.45-9.13-1.5ZM571.94,27.64c-6.05-2.1-16.42-1.7-23.23-.63-6.82,1.06-10.09,2.77-2.21,3.09,16.59-.53,36.15,1.25,25.44-2.46ZM694.34,94.17c-.71,1.72-.23,9.59.5,16.5.73,6.91,1.72,12.88,1.92,10.65.02-15.82-.42-23.77-2.42-27.15ZM697.52,393.92c-.93,1.39-.52,8.81.26,16.09.78,7.28,1.92,14.43,2.42,15.15.14-16.46.09-26.58-2.68-31.24ZM568.71,596.68c-2.4-1.54-18.04.64-21.66,1.08-3.48.42-7.87.49-6.56,1.49,12.63.24,27.13.07,28.22-2.57ZM275.08,596.69c-2.2-1.91-32.21,1.98-28.24,2.57,15.39.67,22.7-.08,28.24-2.57ZM23.92,489c-.36,15.57.27,29.84,3.28,28.22.24-1.27-1.74-22.8-2.01-24.57-.15-.95-1.23-3.99-1.27-3.65ZM26.48,223.61c.56-3.12.92-3.53.49-8.51-.21-2.43-2.56-23.14-3.06-19.73-.33,15.3.04,23.31,2.57,28.24ZM155.22,25.25c1.04,1,9.51.56,17.15-.22,7.63-.78,14.45-1.88,12.04-2.24-15.59-.39-23.85-.04-29.19,2.46ZM467.15,25.16c-10.13.5-14.33,2.89-2.37,2.3,2.53-.14,26.88-1.69,22.57-2.28-6.69-.05-13.54-.35-20.2-.02ZM699.06,312.11c-.15,1.97-2.44,11.08-.93,16.54.9,3.24,5-.48,5.48-6.41l-.07-17.34c-1.45-2.73-2.91-2.17-4.3,1.43.28-3.68,1.16-14.26,1.25-15.85.18-3.13.13-24.69-.01-25.52l-1.28,2.36c-.03,14.89-2.24,31.17-2.53,44.38-.22,10.32,1.72-3.11,2.58-5.37-.06.84.02,3.27-.19,5.79ZM701.78,567.08c-.85-2.5-.82,5.12-1.02,7.99-.08,1.1-.25,3.17-.45,5.83l-1.5,19.39-16.54-1.35c-11.2-.91-33.02-2.73-34.48-2.5.24,1.79,20.01,4.48,34.48,4.88l19.86.55.56-20.97c.16-6.13-.06-11.34-.9-13.82ZM374.61,600.78c8.14.55,16.27.35,24.68.35.73-1.09.56-1.22-4.83-1.78-9.66-1-26.5-1.66-36.67-2.84l-6.46.85c9.82.45,13.45,2.75,23.28,3.41ZM60.58,599c-3.84-.42-5.91-2.13-16.87-1.6-.6.27-1.1.55-1.44.85l-2.35,2.06-15-19.41c-.94-1.22-2.02-1.27-2.99,0l-1.94,2.55,22.27,17.79c2.4,1.91,9.85,3.41,23.54,2.66,3.21-1.52,3.26-3.1.33-4.64,3.91.38,13.11,1.41,14.84,1.54,2.95.23,23.82.48,24.7.33l-1.68-1.45c-14.4-.24-29.27-2.82-42.06-3.25-9.97-.33,2.37,1.87,4.2,2.82-.85-.08-3.22,0-5.55-.26ZM22.74,350.6l3.99-47.93c-3.04,3.61-6.31,30.92-3.99,47.93ZM82.41,24.38c15.62.74,15.32-6.97-8.86-6.54-12.33.23-7.6,3.43-4.5,4.72-2.77-.27-17.05-1.58-18.59-1.67-1.1-.06-4.44-.13-8.19-.18l-19.92-.26-.27,20.45c-.08,5.89-.11,12.8-.04,13.27l1.63-2.89c.09-3.59.28-7.04.54-10.38l1.47-19.3,16.6,1.24c10.05.75,19.19,2.01,28.71,2.44,13.66.63.81-1.6-1.92-2.73,4.89.48,10.01,1.66,13.36,1.82ZM329.19,22.51c-2.79.77,4.81.82,7.61,1.03,5.58.43,37.41,3.4,39.91,3.07.33-1.16-9.1-2.83-19.89-3.89-10.78-1.07-22.88-1.53-27.64-.21ZM632.34,25.61c-.77.57-1.74.81,1.91,1.27.83.1,10.6.88,20.35,1.58,9.76.7,19.5,1.33,20.42,1.24-2.43-2.23-23.08-4.32-42.68-4.09ZM695.11,73.15c-.68,9.03-.07,16.74.94,20.45,1,3.71,2.38,3.4,3.11-3.74-.22-11.72-3.27-27.51-4.05-16.7ZM701.6,398.63c2.43-1.66,2.11-10.82.97-18.06-1.14-7.25-3.1-12.56-4.01-6.85-1.41,8.75.94,26.32,3.04,24.91ZM655.92,603.9c14.8-4.21-32.38-10.33-24.94-3.02.53.52,7.44,2.84,8.89,2.97,2.28.21,14.7.23,16.05.04ZM568.75,603.02c11.56-.29,21.87-1.46,22.58-3.57.59-1.76-13.69-2.38-19.05-1.49-6.95,1.16-7.47,3.59-3.53,5.05ZM344.08,603.51c28.21,3.42,24.72-5.07,2.51-6.06-14.39-.64-11.86,4.92-2.51,6.06ZM294.85,598.09c-16.35-2.15-32.06,2.66-19.51,4.9,11.39.05,29.27-3.62,19.51-4.9ZM20.36,519.95c-.01,16.33,2.53,21.13,4.92,19.6,1.47-18.62-2.48-32.68-4.92-19.6ZM19.49,294.37c-.36,3.37-.37,8.78-.62,12.68,1.71,15.13,6.3.32,6.85-11.92.67-14.77-5.03-11.94-6.24-.76ZM25.71,232.88c-.95-13.23-3.47-14.33-5.56-9.24.54,17.69,4.85,34.88,5.56,9.24ZM138.22,20.99c-8.73,3,1.15,3.76,10.43,3.14,9.28-.62,18.11-2.6,7.09-5.13-7.75.33-13.94.76-17.52,1.99ZM370.61,19.82c-7.88,1.66-.97,4.05,7.48,5.23,8.45,1.18,18.53,1.16,17.3-1.89-.24-.6-5.3-3.02-7.64-3.26-3.34-.34-13.25-.33-17.14-.08ZM447.76,26.24c14.42-1.06,15.71-2.59,12.6-4.69-20.33-.19-37.64,3.87-12.6,4.69ZM694.85,58.93c1.72,4.73,3.88,7.51,4.54-9.13,0-2.13-.76-9.84-.98-11-1.66-8.64-4.66.76-3.56,20.13ZM704.62,352.78c-.83-19.19-4.16-18.74-6.29-8.01.5,4.15.32,13.77.6,16.4.79,7.26,5.44,7.63,5.68-8.38ZM609.11,604.35c19.41-1.3,13.33-3.72,10.41-6.51l-19.26.56c-2.75,2.29-8.92,5.01,8.85,5.95ZM323.23,598.07l-16.71.31c-16.74,8.65,40.03,6.97,16.71-.31ZM25.31,567.91l-.92-18.25c-2.31-11.05-7.41.42-5.02,17.56,1.55,11.14,4.12,5.54,5.94.69ZM18.82,263.98c.4,16.86,4.54,14.03,6.5,10.41l-.48-19.71c-1.4-1.68-6.39-6.2-6.02,9.3ZM130.09,19.6c-.44-.52-10.27-2.19-12.78-2.15-20.23.51-20.81,4.03-11.03,6.33.84.08,16.03-.2,16.98-.3,1.89-.19,7.34-3.27,6.83-3.88ZM406.1,25.58l19.88-.31c19.74-7.67-36.29-6.83-19.88.31ZM701.65,170.53c1.63-21.98-.67-35.26-2.3-51.16l-2.03,15.03c.83,6.63,1.18,27.57,1.81,31.17.2,1.14,2.24,5.68,2.52,4.96ZM705.56,472.51c1.7-18.1-.16-36.09-2.4-47.92l-2.41,13.73,1.62,32.32,3.18,1.87ZM527.54,599.69c-16.65,1.34-34.68.51-37.87,4.47,19.01,2.32,33.98.45,49.53-1.62,1.89-.34-1.21-.97-2.62-1.26-2.26-.46-7.11-.82-9.04-1.6ZM196.12,604.14c4.17,2.26,45.67.68,48.06-2.32l-10.51-2.13c-6.97.69-27.12.92-31.33,1.57-2.07.32-7.11,2.41-6.23,2.88ZM18.75,438.18c-1.51,20.5-.58,36.4,2.13,50.76l2.54-12.84c-.96-6.92-.78-27.76-1.5-31.59-.12-.66-3.03-6.92-3.16-6.33ZM19.01,144.55c-2.44,20.03-.04,34.22,1.64,50.77l2.83-12.9c-1.11-7.26-.74-26.77-1.58-31.47-.22-1.24-2.56-6.92-2.89-6.4ZM236.37,17.95c-17.36-1.88-35.89-.26-48.49,1.86l12.72,2.55,32.8-1.29,2.97-3.13ZM489.07,22.55l13.84,2.36c17.95-.85,35.18-.11,39.2-3.35-22.13-1.75-34.34-.89-53.03.99ZM700.03,203.81l-.11,49.73c1.38,5.67,2.74-24.47,2.73-30.65,0-3.49-1.31-18.92-1.45-19.43-.26-.99-.8.51-1.17.35ZM703.1,508.9l-1.08,46.53c.77,3.38,1.73-3.31,2.47-11.82.74-8.5,1.24-18.82,1.12-22.53-.81,1.05-1.71-21.39-2.51-12.18ZM116.98,600.67c-5.68,1.31,22.13,3.57,27.49,3.69,7.67.18,12.54-1.4,20.48-1.35,8.93-1.91-44.92-1.77-47.97-2.34ZM21.34,407.17l1.17-45.2c-1.41-6.12-4.18,26.51-3.64,33.14.77-.94,1.68,20.98,2.47,12.06ZM271.67,20.73l45.98,1.46c7.57-1.43-25.73-3.74-32.97-3.76.81.79-21.91,1.44-13.01,2.3ZM443.39,604.43c1.89.02,11.32-1.51,15.2-1.66l-1.65-1.17-46.34-.47c4.16,1.42,24.04,3.18,32.8,3.29ZM20.39,113.54l1.17-1.94.47-46.12c-2.81,12.37-4.12,30.97-1.64,48.06ZM589.45,22.34c-1.94-.06-12.48,1.01-16.53,1.06l.98.96,46.94,1.07c-4.24-1.06-22.35-2.85-31.39-3.1ZM705.17,125.24c-.97-13.88-1.58-23.31-3.59-30.79-1.48-2.4-1.58,10.92-2.25,17.53.06,2.6.33,4.02.53,5.88,1.18,11.02,4,18.61,5.31,7.37ZM706.46,229.41l-2.36-3.21-2.39,31.39c.95,10.32,2.69,8.33,3.9,1.19,1.22-7.13,1.89-19.42.85-29.37ZM705.1,398.11l-1.53,20.49c1.89,12.05,3.55,21.23,6.37,19.16.76-18.05-2.02-39.74-4.84-39.65ZM705.54,572.01l3.49-9.62c1.2-5.65.85-19.41.71-27.85-3.69-10.11-4.2,10.41-5.78,25.72l1.58,11.75ZM547.54,602.56c-12.18,1.91-24.8,3.45-19.82,6.56l19.73-.44c8.01-1.08,18.96-2.22,18.34-4.24l-18.25-1.88ZM412.58,608.56c6.71.3,23.29-.01,23.04-1.67,2.2-1.58-23.12-4.19-29.77-4.29-15.5-.22-3.55,5.49,6.73,5.96ZM110.4,607.74c4.38.77,23.34,1.26,27.73.46,9.3-3.28-28.93-7.69-38.08-3.79,10.26-.08,5.09,2.4,10.35,3.33ZM20.42,494.65c-1.88-11.85-3.36-23.07-6.38-18.48-1.6,6.22,2.38,42.24,4.65,37.93l1.73-19.44ZM20.47,354.83c-.55-15.29-4.62-3.9-5.45,3.2-.43,3.69-.45,23.5.03,26.21,3.02,2.43,4.57-13.91,5.42-29.41ZM13.6,185.46c.86,14.29,1.53,30.49,4.53,34.89.94,1.37,1.19-14.44,2.27-16.49.25-3.03-.16-5.29-.41-7.56-1.21-10.6-4.56-20.46-6.39-10.83ZM14.74,85.15c2,19.19,5.2-13.73,5.83-24.42-1.66-20.96-7.78,5.74-5.83,24.42ZM335.71,19.02c-10.5-3.14-7.17-4.94-36.14-4.41-11.39,3.42,8.86,4.14,23.57,5.78l12.57-1.37ZM483.39,22.1c9.7-.84,29.09-3.39,22.23-5.14-2.01-.52-17.91-.14-20.58.02-6.02.34-24.39,2.26-20.72,3.35l19.07,1.78ZM628.24,20.27c-4.76-.88-27.96-1.31-29.32.27-2.54.62,4.42,1.69,12.41,2.54,7.99.85,17.02,1.5,18.75,1.38,9.51-.66,3.2-3.25-1.85-4.19ZM704.14,185.18c-.94-8.25-2.05-6.66-3.3-5.27l1.05,14.02,2.24-8.75ZM469.9,606.77l8.26-.03,2.99-3.73-14.12.94,2.87,2.81ZM235.5,609.37c11.78-.12,31.77-1.76,33.57-3.89,1.22-1.44-13.65-2.89-21.6-2.36-5.88.4-25.23,5.31-11.97,6.24ZM180.44,606.76c8.46-.91,7.64-2.26,7.07-3.75l-14.12.94,7.05,2.81ZM16.64,418.4c-.91.69.13,18.25,2.78,13.97,1.14-1.84-.01-12.29-.3-13.33-.6-2.15-1.75-.01-2.48-.64ZM16.41,128.97c.91,8.46,2.25,7.64,3.75,7.07l-.94-14.12-2.81,7.05ZM197.87,12.91c-5.97-.28-16.38.43-24.5,1.44-8.12,1.01-13.96,2.31-10.94,3.18l22.01,1.45c8.92-1.84,26.84-3.7,13.43-6.08ZM254.13,15.82c-8.86.81-8.44,2.12-8.18,3.59,2.76-.34,13.55-.72,14.26-.88,2.82-.64,1.19-2.89-6.08-2.71ZM563.51,20.24c-9.47-1.39-19.33,1.79-13.5,2.61l14.99-.54-1.49-2.07ZM707.94,489.5c-.83-7.46-1.93-8-3.29-6.91l.57,14.12c.73,1.74,3.01.46,2.72-7.21ZM709.88,268.5c-.58-9.7-1.8-8.75-2.98-4.08-1.18,4.67-2.32,13.04-2.68,18.34-.44,17.5,7.17,10.83,5.66-14.25ZM671.01,610.88c4.46.33,8.2.48,11.25.51l30.24.27.26-30.77c.15-18.12-3.89-13.97-5.68,0l-3.54,27.65-21.27-2.83c-4.11-.55-9.13-.88-14.72-.83l3.47,5.99ZM396.12,611.4c11.52-1.21-5.38-6.18-17.99-6.53-13.28.07-4.97,5.21-.72,6,2.54.48,15.75.84,18.71.53ZM98.11,611.41c17.1-2.11-.03-4.8-11.28-6.46-17.17-.75-12.48,7.7,11.28,6.46ZM16.25,320.63c-2.93.56-4.93,4.17-4.5,24.1,1.92,12.69,7.95-12.02,6.52-22.18-.07-.47-1.67-1.99-2.02-1.93ZM13.82,54.48c.7-.03,2.54-7.06,3.63-13.58l4.7-28.09,20.11,3.28c3.06.5,6,.84,8.1.85l6.78-.8c2.36-1.19-.23-4.36-6.02-5.2-2.65-.38-5.78-.59-8.86-.63l-30.18-.38-.41,30.97c-.09,6.96.7,13.65,2.14,13.58ZM339.24,12.27c-9.65.7-6.76,2.59-.38,4.13,6.39,1.55,16.25,2.76,20.83,2.2,5.55-1.87-.7-7.74-20.45-6.34ZM661.24,18.74l-19-.84c-11.53,2.06.94,3.22,7.47,5.09l13.89-.1-2.36-4.15ZM17.09,539.74c2.23-27.34-3.14-27.98-6.32-22.46-.29,14.44,5.13,37.01,6.32,22.46ZM464.79,13.62l-7.18-.42c-2.26,1.08-7.11.19-12.24,1.03-17.44,2.91-13.85,5.36,15.88,4.78,4.24-1.82,7.13-3.43,3.54-5.39ZM706.33,82.55c-1.46-26.91-6.64-31.42-4.96,5.39,2.13,4.14,3.32,6.43,4.96-5.39ZM711.8,301.54c-1.73-4.28-3.57-4.25-4.77.37-1.2,4.63-1.76,13.82-.9,28.07,2.53.06,6.94-7.27,5.67-28.44ZM707.25,365.27l-.87,24.42c.89,6.82,2.97,8.64,4.47,6.16,1.51-2.48,2.44-9.31,1.09-19.63-.53-4.02-4.03-12.28-4.69-10.94ZM653.67,612.57c13.95-3.13-.94-8.27-24.51-5.82-.77.16,1.74,3.96,2.35,4.14,1.49.45,18.02,2.97,22.16,1.68ZM568.7,612.09l7.08.33c2.41-1.31,6.95-.29,12.28-1.71,13.23-3.53,7.09-5.72-19.21-4.84-2.04,2.18-5,4.05-.16,6.23ZM352.71,612.9c18.25-1.62,14.32-4.48,2.19-6.64l-19.38.48c-2,.44.93,3.68,2.44,4.13.47.14,13.11,2.03,14.74,2.03ZM276.52,612.41c26.49-.85,35.54-7.73-.99-6.5-8.48,2.53-8.43,4.18.99,6.5ZM52,612.64c22.64,2.32,25.12-8.67-9.73-6.36l-23.46,1.56-1.92-26.93c-.03-.36-.05-.76-.08-1.16-.76-2.7-2.24-1.58-3.59,1.16l-5.77,11.76,34.82,17.29c2.46,1.22,6.27,2.33,9.73,2.69ZM10.66,308.2c2.64,10.18,3.99,7.16,6.47-5.58l-.71-18.6c-.16-.78-3.96,1.77-4.14,2.38-.55,1.83-2.86,17.03-1.62,21.8ZM10.76,225.06c.65,17.49,2.77,24.47,5.64,22.71,1-6.31,1.1-15.61.89-23.92-2.51-3.85-4.16-7.62-6.54,1.21ZM69.76,9.01c-8.79,2.69-5.93,4.13,4.42,6.56l20.06-.46c2.26-.48-.76-3.53-2.38-4.12-1.41-.52-16.44-2.76-22.1-1.98ZM155.5,9.68c-17.12.36-21.74,2.67-24.49,5.19.93,1.21,21.41,1.55,24.98,1.23,6.21-.56,11.22-5.64-.48-6.43ZM398.25,17.57c3.98-.29,3-2.05-1.05-3.63-4.05-1.57-11.2-2.97-19.4-2.43-7.45.49-9.59,2.55-6.25,4.21,3.35,1.66,12.12,2.9,26.7,1.85ZM701.89,54.86c1.37,2.24,4.42-1.63,4.25-16.88-1.25-9.94-5.7-9.1-5.45,5.18.02,1.31.57.72.62,1.36.17,1.9-.36,8.79.58,10.33ZM707.17,340.14c-1.02,4.31-.22,16.17.16,17.37,1.79,5.7,6.65,3.13,6.09-15.29-2.71,1.33-3.47-13.9-6.25-2.08ZM612.43,613.81c9.79-2.2,14.92-5.24,2.86-7.49-2.57,1.11-11.51.37-12.42.47-6.01.66-5.12,6.8,9.55,7.02ZM308.86,606.98c-9.57.94.93,9.12,11.63,6.56,6.51-1.56,13.15-7.2-1.71-7.24-1.17,0-1.17.74-2.07.83-2.27.23-5.97-.33-7.85-.15ZM9.36,565.22c2.63.95,5.23,13.65,7.45-1.39l-.4-12.59c-2.46-4.59-6.95-5.56-7.04,13.98ZM121.71,14.93l2.47-.55c.48-2.18,5.93-6.42-13.65-6.29-5.02,2.83-18.02,5.25,2.27,7.49l.74-.84,8.18.19ZM415.83,11.18c-2.87,2.41-14.92,4.4-1.78,6.79,3.11-.96,12.04-.17,12.99-.25,7.53-.59,8.25-6.89-11.21-6.55ZM9.85,270.07c2.33,7.97,4.01,7.56,6.56,4.34l-.44-18.45c-.62-2.28-4.37-2.3-5.08-.51-.14.35-2.3,12.91-1.04,14.62ZM703.69,144.08c.19,9.3,4.11.03,2.72-15.33-.39,4.65-2.81,10.27-2.72,15.33ZM711.77,434.47c-.88,9.43-3.54,6.92-3.56,18.3,2.09.58,4.11-2.33,3.56-18.3ZM529.18,610.99c-5.38-1.14-10.78-2.21-11.33-3.75l-8.64,1.18c-.21.5,4.7,2.3,6.46,2.46,3.53.33,9.36.03,13.51.1ZM232.72,610.99c-7.31-1.02-6.22-3.67-16.93-3.75-.9,2.11,1.56,4.18,16.93,3.75ZM15.93,462.22c-.39-11.25-4.82,3.92-3.75,15.49.55-6.78,3.99-8.51,3.75-15.49ZM13.13,177.11c.6-2.44,3.31-2.22,2.8-8.53-.89-7.35-2.29-4.15-3.29-.1l-.45,15.57c.73.84.44-4.88.95-6.94ZM200.96,11.3c9,1.02,5.51,3.64,16.8,3.79,1.36-2.06-.77-4.11-16.8-3.79ZM519.02,18.8c13.77-.58-1.23-3.92-13.94-3.46,6.12.49,8.33,3.71,13.94,3.46ZM704.52,164.21c.75,8.04,2.04,7.89,2.95,4.21.91-3.68,1.41-10.89.66-16.84-.84-6.67-3.21,5.66-3.61,12.63ZM709.08,218.97c1.13-3.13.4-11.25-.69-15.69-1.09-4.44-2.54-5.21-2.95,6.11.8-1.22,1.17,5.73,1.51,7.02.67,2.58,1.42,4.52,2.13,2.56ZM712.78,472.85c2.6-20.7-3.64-16.85-4-3.92-.21,7.34,2.61,14.85,4,3.92ZM711.85,527.25c1.98,3.94,2.04-4.91,1.21-12.31-.83-7.4-2.54-13.27-4.09-3.56-.16,4.26.42,2.06.73,3.96.62,3.8,1.29,10.18,2.15,11.91ZM506.25,611.63c3.73-1.84-6.06-2.41-8.22-3.91-22.02.59-9.53,6.81,8.22,3.91ZM200.25,607.72c-16.15,2.06-10.16,4.82,9.87,4.69,1.16-1.88-.47-3.5-9.87-4.69ZM161.73,610.7c6.91-2-4.43-3.12-5.2-2.99-.4.08-7.18,1.49-7.52,1.56-10.61,2.65,2.02,4.52,12.72,1.43ZM10.76,448.16c.95,15.89,3.09,2.4,4.7-1.6-.01-11.43-2.22-13.22-3.65-10.56l-1.05,12.16ZM13.12,160.36c.36-.62,2.57-7.76,2.34-11.55-.96-15.93-6.18-3.72-4.65,9.57.24,2.04,1.73,2.96,2.31,1.98ZM10.77,98c-.28,8.21,3.91,25.32,4.69,7.07-.87-.86-4.22-21-4.69-7.07ZM229.17,10.12c-10.37,1.29-3.3,3.53,4.74,4.62,14.52-1.58,14.11-4.04-4.74-4.62ZM292.1,10.73c-15.65-.17-26.17,2.58-15.85,4.36,4.22.21,2.19-.39,4.17-.66,8.77-1.17,12.98-1.5,11.67-3.7ZM529.09,15.28c-4.86,1.46,4.92,2.13,6.28,3.42,11.47-.04,14.9-1.38,12.96-2.47-1.94-1.09-9.29-1.96-19.25-.94ZM458.65,610.66c8.05-5.07-31.89-.33-17.1,1.53l8.09.12c.37-.83,8.39-1.25,9.01-1.64ZM594.62,16.05c-10.84-.52-26.11,2.53-14.07,3.11,7.69.35,25.46-2.59,14.07-3.11ZM705.74,184.13c1.01,7.41,2.49,9.29,3.81,8.02-.08-18.44-2.5-20.04-3.81-8.02ZM713.45,484.81l-3.64,2.99c.2,14.2,2.57,11.84,4.25,11.24l-.6-14.23ZM468.51,612.87c13.05.65,11.56-3.12,9.84-4.22-10.24-.31-18.97,3.76-9.84,4.22ZM180.48,608.66c-8.26,1.08-11.11,2.49-9.87,4.21,17.47.44,20.53-2.38,9.87-4.21ZM14.52,426.86c-.64-13.94-2.19-11.77-4.22-11.25-.18,15.93,2.35,14.37,4.22,11.25ZM14.52,407.11c.94-13.09-2.86-24.44-3.75-16.9-.88,7.45,2.28,21.76,3.75,16.9ZM10.3,123.4c-.66,13.59,3.1,12.09,4.22,9.83.31-10.25-3.78-18.97-4.22-9.83ZM251.48,10.38l1.64,3.6c11.08-.63,14.04-2.29,12.71-3.98l-14.35.38ZM556.16,18.31c14.7-.24,13.4-1.52,14.06-3.18-17.09-.53-14.75,1.62-14.06,3.18ZM709.51,90.49c-1.85-5.14-3.59,2.9-3.61,17.78,1.65,4.59,4.23-2.61,3.61-17.78ZM711.42,277.56c1.81,4.23,1.54-13.7.75-20.37-.44-3.62-4.27-17.11-2.26-1.03.86,6.89,1.29,10.91,1.52,21.4ZM714.82,394.99c-1.77-.09-2.23,6.92-3.26,14.49,1.02,12.24,2.97,8.77,4.08,2.11,1.12-6.66,1.39-16.48-.82-16.59ZM678.84,614.27c.71.19,1.91.3,3.43.35l32.7.99,1.02-34.71c.25-8.48-1.4-26.39-2.93-25.8-1.51,7.06.26,6.19.57,9.58.29,3.2.31,11.01.57,16.22l1.49,30.21-33.42,1.72c-4.15.21-6.59.6-3.43,1.44ZM553.09,611c-13.26.03-8.35,3.7-3.46,4.57,14.37,2.58,20.43-3.17,3.46-4.57ZM410.57,610.99l-25.38,1.88c-1.06,3.6,28.73.76,25.38-1.88ZM265.15,616.15c11.23-1.83.83-4.73-12.64-5.16-5.65,1.96-2.22,4.93,12.64,5.16ZM88.72,612.88c-4.77,1.87,12.3,1.98,18.97,1.27,3.61-.39,18.26-4.34,2.02-2.47-6.95.8-10.95,1.17-21,1.2ZM7.03,511.42c2.35,7.42,3.38-1.55,5.15-9.74.4-9.45-3.69-8.84-4.58-3.53-.34,2.06-.79,11.31-.57,13.27ZM8.89,333.7c-.38,14.72.58,27.04,3.28,25.4-1.06-7.65-1.9-14.79-1.89-25.38h-1.4ZM7.02,213.68c1.63,10.16,3.88,1.96,5.16-5.72-.12-16.47-5.76-6.09-5.16,5.72ZM12.18,65.45c-1.14-7.3-1.65-14.98-1.83-24.55l-.58-31.49,32.5-.43c1.22-.02,2.48-.03,3.77-.05-.62-.59-1.97-1.01-3.77-1.28L14.81,3.58l-5.79,37.32c-1.3,8.36.86,26.75,3.16,24.55ZM168.12,6c-11.83,1.83-2.17,3.82,8.02,5.15,12.89.53,9.02-5.58-8.02-5.15ZM468.72,11.98c-.23.71,9.16,2.15,11.61,2.89,10.23.56,9.65-3.09,5.92-3.87-6.2-1.3-17.11-.32-17.53.98ZM627.22,17.9l27.3-.82c3.48-2.66-29.08-1.31-27.3.82ZM332.46,11.25c6.12-.24,25.1.19,18.95-1.54-4.14-1.17-27.53.23-30.03,1.59-1.61.99,4.13.84,7.76.6.42-.03.79-.55,3.32-.65ZM712.59,116.31c-1.38-26.66-3.92-5.43-4.74,9.75.53,13.12,3.18,10.32,3.96,3.05.23-2.14.14-6.37.27-9.43.06-1.32.53-1.8.51-3.38ZM710.72,224.31c-.59,7.73.1,17.37,1.16,24.07,1.06,6.69,2.48,10.43,3.28,6.16.75-4.07.13-13.44-.92-20.86-1.05-7.43-2.52-12.89-3.52-9.36ZM719.44,419.93c-2.34-16.76-4.32.71-5.79,13.1,1.49,24.24,5.67,6.22,5.79-13.1ZM716.81,563.87c.43.6,1.73.74,2.04-.47,1.4-14.2-1.41-30.48-3.53-31.98-1.04-.74-1.3,17.07-1.02,20.07.08.85,2.19,11.94,2.5,12.39ZM522.23,617.55c1.39.27,14.84,1.41,16.43,1.37,20.54-.84.02-5.63-8.64-5.99-14.48-.61-14.04,3.4-7.79,4.62ZM407.78,617.83c17.38.67,21.54-1.73,27.89-3.79-.17-.38-7.6-1.01-10.25-1.09-13.88-.45-30.57,3.54-17.64,4.89ZM245.16,618.94c3.66-.25,7.1-1.43,7.1-2.08,0-.8-14.17-4.1-18.05-4.01-12.78.23-11.87,3.51-5.61,4.71,1.87.36,5.89.4,8.66.68,1.71.17.98,1.17,7.9.7ZM108.79,617.51c17.14,1.25,31.05-1.33,30.73-4.16-10.07-.6-20.49-.39-27.35,1.07-3.85.82-4.45,2.1-3.38,3.1ZM9.36,467.77c-2.05-7.61-5.05,9.36-5.14,22.24,2.15,16.2,4.47.56,6-11.29l-.86-10.95ZM5.33,356.2c-.67,15.96,2.17,27.63,4.5,28.34,1.46-18.42-1.42-40.78-4.5-28.34ZM10.33,182.77c-1.4-20.45-5.6-7.72-6.07,10.78l1.65,9.86c.62.71,2.24-6.43,2.8-9.18.34-1.65,1.67-9.04,1.62-11.46ZM9.82,88.05c1.32-16.07-1.31-34.06-4.15-30.67-1.46,19.55,1.04,29.99,4.15,30.67ZM189.36,3.38c-3.88.22-7.65,1.36-7.75,2-.11.79,14.09,4.14,18.13,4.08,12.4-.2,13.84-2.98,8.04-4.33-2.5-.58-6.81-.66-10.27-1-1.7-.17-.82-1.16-8.15-.75ZM331.29,8.3c.75-.4,1.35-1.62.25-1.94-15.38-1.37-30.58.44-32.98,2.89-.95.97,16.44,1.46,19.51,1.23.88-.07,12.66-1.9,13.22-2.19ZM499.4,8.41c-20.18-.56-5.86,4.49,5.67,5.25,14.9.42,17.27-2.4,11.45-3.61-.65-.13-15.33-1.59-17.12-1.64ZM634.62,12.74c-17.79-1.03-26.75.97-32.09,2.74,9.02.8,19.73.76,26.85.21,7.12-.55,10.67-1.6,5.23-2.95ZM715.45,144.73c-.49-15.32-4.86-2.81-5.81,2.77.75,23.18,5.72,20.01,5.81-2.77ZM722.17,454.91c-.35-15.69-6.71-4-6.96,4.11-.42,14.04,7.47,20.18,6.96-4.11ZM715.49,507.78c-.71,4.86,1.45,20,2.1,22.49,6.4,24.2,5.55-33.77-2.1-22.49ZM505.21,621.35c17.05-.23,6.44-6.71-.14-7.06-14.52-.77-23.09,6.67.14,7.06ZM447.73,614.35c-5.25,1.17-27.82,4.75-14.74,6.29,15.81,1.86,29.58-3.7,25.22-5.84l-10.48-.45ZM201.77,620.6c24.14,3.54,21.15-5.87,6.63-6.29-10.76-.31-18.23,4.59-6.63,6.29ZM1.84,453.71c-.02,16.86,5.85,9.49,7.05-.03-.61-16.86-7.03-17.21-7.05.03ZM2.34,381.86c-.4,24.24,3.42,26.06,6.55,25.25.38-10.73-.45-10.37-1.22-15.25-1.55-9.85-3-14.5-5.33-10ZM1.82,160.1c.23,17.06,6.71,6.43,7.06-.12.81-15.12-6.54-23.82-7.06.12ZM8.13,113.67c2.73-28.75-9.35-39.37-5.21-9.46.75,5.44,4.09,11.46,5.21,9.46ZM225.09,1.31c-14.93.04-8.08,6.5,1.5,6.95,13.62.64,22.78-6.99-1.5-6.95ZM289.31,2.9c-14.31.75-14.2,3.83-14.27,5.83,10.47.59,21.19-1.26,25.77-3.04,4.58-1.78,2.92-3.54-11.5-2.79ZM535.52,7.2c-18.64.54-11.91,4.07-3.81,5.88,14.81,1.01,24.05-5.19,3.81-5.88ZM580.52,13.78l10.55.62c7.03-.74,29.94-3.38,18.63-4.68-7.89-.91-16.13-.38-21.91.63-5.78,1.01-9.1,2.51-7.27,3.43ZM717.37,182.42c-.22-18.28-7.31-20.62-6.35,2.71,2.23,4.14,5.44,18.81,6.35-2.71ZM715.88,485.92c-.59,14.68,6.34,23.87,7.41,11.68.65-7.45-1.02-15.13-2.95-18.52-1.92-3.4-4.09-2.55-4.47,6.84ZM471.3,622.27c18.21,0,18.41-7.02,5.62-7.52-9.66-.38-29.4,7.52-5.62,7.52ZM186.16,615.21c-13-2.11-22.41,4.12-20.74,5.31,2.35,1.67,14.94,2.1,21.24.65,4.98-1.15,5.66-4.9-.5-5.96ZM.97,422.08c.93,15.11,6.08,19.93,7.32,3.45.15-11.07-4.82-17.48-6.32-14.68-.21.4-1.25,7.11-1,11.23ZM6.57,120.4c-4.05-13.93-7.32,1.53-4.58,14.82,2,9.72,9.58,2.41,4.58-14.82ZM253.39,8.02c13.11.73,26.34-5.49,14.45-7.05-23.53-1.15-27.5,6.31-14.45,7.05ZM566.83,7.49c-17.42.68-17.37,5.22-5.64,5.88,7.56.42,23.12-3.53,22.08-4.2-.49-.32-4.63-.68-6.69-.99-2.47-.37-.14-1.05-9.75-.68Z"/>
        <path class="cls-1" d="M652.38,70.79c-103.18,3.52-205.04,6.94-306.29,9.16-101.26,2.26-202.12,3.24-303.83,3.22l42.27-42.27v540l-42.27-42.27h640l-42.27,42.27c-.02-83.95.93-167.07,3.13-250.58,2.16-83.49,5.5-167.55,8.98-252.9l29.43-28.9-.29,532.37,1.02-1.02H42.27l1.02,1.02V40.9l-1.02,1.02,639.28-.3-29.17,29.17Z"/>
      </g>
    </g>
  </g>
</svg>