<?xml version="1.0" encoding="UTF-8"?>
<svg xmlns="http://www.w3.org/2000/svg" viewBox="0 0 1080 1080">
  <defs>
    <style>
      .cls-1 {
        fill: #987d59;
      }

      .cls-2 {
        fill: #fbfbfa;
      }
    </style>
  </defs>
  <g id="Calque_1" data-name="Calque 1">
    <g>
      <path class="cls-2" d="M515.16,333.93c-5.43.38-7.43,5.75-10.14,9.74-12.99,19.09-21.36,42.76-34.44,61.33-4.15,5.9-10.06,11.17-14.44,16.87-4.27-1.24-7.25-7.74-9.66-11.42-45.28-68.92-82.1-149.72-99.48-230.34-.19-.84.75-1.47.74-1.56l26.49,8.43c-3.84-19.89-29.49-22.74-45.77-27.7,1.41,7.25,3.14,14.48,4.82,21.67,18.21,77.97,54.6,166.65,100.9,232.15,3.89,5.5,9.34,14.43,15.94,15.98-.24.34-.03,2.7-1.1,4.27-9.47,13.79-19.09,21.66-16.43,40.37,4.02,28.2,18.8,29.98,5.7,63.38-25.56,65.12-77.53,110.88-110.04,171.83-1.15,2.17-2.3,4.38-3.43,6.64h-12.91c15.89-58.52,21.95-119.57,31.56-179.32l54.05-2.56c3.02-1.03,4.07-8.82,4.42-11.85h-53.6c-4.63,0,1.46-25.94,1.78-29.53,4.18-45.08,3.01-93.09-12-136.11l-25.31-63.2c-1.93,121.29-1,242.85-1.24,364.31-1.48,7.81-14.36,3.12-19.79,3-16.25-.38-32.59.39-48.83.05v-30.71c0-4.25,19.33-.49,22.28-.5,5.47-.04,12.98-2.13,18.67-2.52,1.46-4.63-5.86-7.22-9.04-7.22h-31.91c-2.48-5.43.48-10.04-.01-15.66,6.63.03,13.29-.01,19.93-.05,3.23-.03,22.92,2.36,16.9-6.06-3-4.18-33.73,1.44-36.31-2.25-1.22-1.76-.66-37.25-.56-42.88,1.79-102.92-.6-206.62,2.5-309.45.83-27.14.54-54.33,4.98-81.16,43.4-20.86,95.43-33.6,134.04-62.87,2.89-2.2,9.54-9.2,11.47-10.22,1.63-.85,1.88-.8,3.07.59,6.22,57.25,9.81,114.6,20.22,171.29,7,38.21,19.99,104.72,35.7,138.95.55,1.19.74,2.82,2.45,2.96,11.67-40.59,23.43-80.95,30.95-122.64,10.04-55.75,12.8-112.21,21.01-168.09.61-4.18,1.52-11.27,3.17-14.9.74-1.62.11-1.91,2.69-1.52,3.11,16.43,1.82,32.35,2.36,48.83,2.08,63.18-2.69,126.43-2.35,189.65Z"/>
      <path class="cls-2" d="M838.06,715.57h-12.98c-13.48-42.77-31.8-84.31-50.32-120.29-58.49-113.56-153.21-214.63-48.23-339.66,19.79-23.57,55.41-55.18,88.44-44.43.59,2.55-.25,5.01-1.72,7.09-3.46,4.92-26.78,18.25-33.48,23.13-28.74,20.93-50.78,40.7-63.48,75.03-34.44,93.09,22.19,159.13,62.86,235.9,27.58,52.07,47.55,106.67,58.91,163.22Z"/>
      <path class="cls-2" d="M515.16,349.59l-15.16,27.6c-6,7.17-11.55,19.82-18.57,25.4,1.05,3.88-2.64,4.66-3.61,6.02-.69.98-1.48,2.31-2.41,3.61-7.22,10.28-31.39,45.66-32.52,56-2.84,26.13,16.65,53.96,24.16,77.03,11.62,35.73,18.39,71.16,40.38,102.95.95,1.38,4.36,7.63,6.51,6.12,2.2-1.56.48-24.82,2.47-29.45,1.37-91.8-1.69-183.63-1.25-275.28ZM455.62,479.61c-20.51-2.99-.45-29.1,11.03-17.66,7.14,7.12,1,19.4-11.03,17.66Z"/>
      <path class="cls-1" d="M533.27,715.57c.87-190.43-1.15-381.12,1.1-571.39.25-20.95-.85-44.82,0-65.05.43-10.08,6.05-31.69,8.47-8.36,6.76,65.27,1.88,132.07,1.17,197.47-.79,72.84-1.17,145.35.06,218.04,1.29,76.29,3.41,152.82,3.56,229.28h-14.37Z"/>
      <path class="cls-2" d="M622.25,715.57h-14.09c-.48-20.52-1.74-41.28-2.71-63-.11-2.47-1.12-6.43,2.45-5.47,3.6,23.03,11.33,45.04,14.32,68.21l.04.26Z"/>
      <path class="cls-2" d="M673.12,715.57h-23.12c-13.03-41.18-27.46-80.76-34.5-114.01-4.03-19.06-5.43-38.36-8.73-57.53l3.51-1.71c11.11,51.68,35.4,99.77,53.94,149.05,2.89,7.67,5.9,15.77,8.9,24.2Z"/>
      <path class="cls-2" d="M469.38,574.83v21.07c0,24.59-29.67,90.8-38.87,117.72-.23.64-.44,1.29-.65,1.94h-22.51c13.1-36.88,28.46-72.49,41-102.15,3.29-7.78,12.25-32.72,17.41-36.8,1.22-.95,1.56-2.28,3.63-1.78Z"/>
      <path class="cls-2" d="M810.26,170.12l1.21,28.92c-46.82,3.61-98.55,10.24-136.69,39.77-16.43,12.72-32.09,33.24-38.31,53.23-1.2,3.85-3.7,20.66-4.49,21.42-2.02,1.92-2.03-.42-2.43-1.75-1.4-4.67-1.53-10.04-2.98-15.1-6.96-24.17-21.88-45.53-42.86-59.52-7.57-5.05-15.87-8.22-23.92-12.3,3.73-9.14,2.03-18.5,2.36-28.16,20.05,5.98,42.49,22.4,56.02,38.52,3.79,4.52,6.96,11.7,10.9,15.6.99.98,1.06,1.73,2.91,1.28,33.51-63.1,113.36-76.19,178.29-81.9Z"/>
      <path class="cls-2" d="M783.74,715.57h-21.92c-35.42-85.06-86.13-166.64-103.31-256.37l25.45,60.65c31.39,64.67,71.94,128.16,99.78,195.71Z"/>
      <path class="cls-1" d="M447.47,551.01c-1.37,15.01-9.05,35.13-14.52,49.41-15.14,39.51-35.53,76.82-53.14,115.14h-21.5c18.84-38.43,41.95-75.21,58.63-114.28,5.06-11.83,14.04-43.72,22.41-51.07,2.89-2.54,8.66-5.16,8.11.79Z"/>
      <path class="cls-2" d="M669.34,65.33c-3.01,34.48,29.64,53.96,57.51,64.74,23.62,9.14,50.19,13.44,72.16,26.61,1.33.8,5.99,2.64,5.21,4.4-.84,1.91-8.5,4.3-10.79,4.87-16.59,4.13-44.75-4.58-61.46-9.68-27.49-8.38-62.53-23.13-76.51-49.96-2.01-3.86-3.8-11.43-5.5-13.77-3.22-4.45-13.08-.83-17.49-.83-4.87,0-10.91-2.64-16.21-.56-8.35,24.59-28.95,48.32-55.27,53.64-2.29-7.46-1.09-15.55-1.1-23.29.59-1.73,8.6-4.23,11.06-5.8,17.16-10.87,22.1-31.22,23.71-50.37,14.84,4.87,35.46,4.78,51.24,3.66,8.14-.58,15.33-3.76,23.44-3.67Z"/>
      <path class="cls-2" d="M476.02,643.49l-.63,25.88c-1.63,15.17-2.86,30.63-3.49,46.2h-17.16c2.41-15.69,5.99-31.25,10.7-46.51,2.66-8.61,5.3-18.22,10.57-25.56Z"/>
      <path class="cls-1" d="M333.28,180.96c3.18-2.27,2.38-6.38,2.41-9.64,3.4-1.88,11.49,5.12,12.04,7.23.02.08-.92.71-.74,1.55,17.38,80.62,54.21,161.42,99.48,230.34,2.42,3.68,5.39,10.18,9.66,11.42-1.9,2.47-4.24,4.72-6.02,7.23-6.59-1.55-12.05-10.49-15.93-15.99-46.3-65.49-82.69-154.16-100.9-232.14Z"/>
      <path class="cls-2" d="M553.71,478.47c.41-7.8,3.66-17,3.71-24.7.06-10.38-2.18-21.35-1.29-32.5.96-12.03,5.44-23.91,6.05-36.1,1.3-25.79-5.19-51.82-2.42-78.33.18-1.76-1.06-3.53,1.76-3.02,12.72,16.12,19.9,39.43,22.14,59.77,4,36.34-6.2,80.14-26.11,110.89-.98,1.51-1.95,3.48-3.84,3.98Z"/>
      <path class="cls-2" d="M495.89,146.03c-7.34-2.18-14.52-5.06-21.64-7.87-3.76-1.48-8.7-5.14-12.04-6.01-14.32-3.72-30.69,10.87-44.6,12.67.88-15.36-1.78-30.43-1.2-45.76,11.77,5.12,27.19,15.49,40.35,15.75,9.39.18,25.6-8.39,34.36-12.7,1.15-.57,6.97-5.48,5.83-1.42-.18.64-1.05,1.06-1.05,1.38v43.96Z"/>
      <path class="cls-2" d="M506.72,71.33l-51.01,33.65-45.34-36.02c2.75-.46,5.18-1.77,7.94-2.31,21.27-4.19,61.36-3.86,82.71.17,2.45.46,6.21,1.41,5.7,4.51Z"/>
      <path class="cls-1" d="M515.16,333.93c.03,4.86.02,10.88,0,15.66l-15.16,27.6c-5.99,7.16-11.54,19.81-18.57,25.4-1.53,1.21-4.16.27-3.61,6.02-.7.98-1.49,2.31-2.41,3.61-5.38-1.35-2.43-3.66-4.82-7.23,13.07-18.57,21.44-42.24,34.43-61.33,2.71-3.99,4.72-9.36,10.14-9.74Z"/>
      <path class="cls-2" d="M311.61,676.01v3.6c-17.02,2.91-34.08-.56-51.25-.05-5.71.17-11.44,2.17-17.41,1.27v-6.03s68.67,1.22,68.67,1.22Z"/>
      <path class="cls-2" d="M461.83,227.07c5.23,5.19,3.11,15.93-5.29,16.22-14.7.5-5.9-27.33,5.29-16.22Z"/>
      <path class="cls-2" d="M461.81,275.28c6.62,5.34,1.17,18.92-8.06,14.69-10.37-4.75-2.32-23.06,8.06-14.69Z"/>
      <path class="cls-2" d="M451.63,191.47c-6.43-5.93-1.17-19.74,9.33-14.72,9.97,4.76-1.92,21.55-9.33,14.72Z"/>
      <path class="cls-2" d="M726.16,715.56h-21.87c-2.28-5.44-4.64-10.86-7.04-16.28-26.45-59.16-51.91-105.38-66.48-170.22-2.26-10.12-6.35-21.51-6.04-31.92.07-1.83-1.07-4.78,1.81-4.21,3.8,6.46,3.45,14.88,5.51,22.22,1.54,5.54,4.09,11.86,5.94,17.52,21.13,64.15,60.06,121.95,88.15,182.89Z"/>
      <path class="cls-2" d="M453.39,322.1c6.88-2,14.46,8.29,5.6,12.87-13.65,7.05-13.3-10.63-5.6-12.87Z"/>
      <path class="cls-2" d="M458.38,146.21c3.33,2.08,3.36,18.44-3.82,16.56-7.72-2.01-4.4-21.69,3.82-16.56Z"/>
    </g>
    <g>
      <path class="cls-2" d="M315.16,852.39h-58.95l-11.31,30.77h-13.72l47.27-127.9h14.64l47.08,127.9h-13.72l-11.31-30.77ZM311.27,841.64l-25.58-70.07-25.58,70.07h51.16Z"/>
      <path class="cls-2" d="M436.76,753.59v10.75h-35.96v118.82h-12.98v-118.82h-36.15v-10.75h85.08Z"/>
      <path class="cls-2" d="M470.31,764.16v48.38h49.12v10.75h-49.12v49.12h54.68v10.75h-67.66v-129.75h67.66v10.75h-54.68Z"/>
      <path class="cls-2" d="M563.54,872.6h46.53v10.57h-59.5v-129.57h12.98v119Z"/>
      <path class="cls-2" d="M641.58,753.59v129.57h-12.98v-129.57h12.98Z"/>
      <path class="cls-2" d="M684.02,764.16v48.38h49.12v10.75h-49.12v49.12h54.68v10.75h-67.66v-129.75h67.66v10.75h-54.68Z"/>
      <path class="cls-2" d="M833.24,883.16l-32.07-54.13h-23.91v54.13h-12.98v-129.57h38.93c14.46,0,25.42,3.46,32.9,10.38,7.48,6.92,11.21,16,11.21,27.25,0,9.39-2.69,17.4-8.06,24-5.38,6.61-13.32,10.91-23.82,12.88l33.37,55.05h-15.57ZM777.26,818.47h26.14c10.13,0,17.76-2.47,22.89-7.42,5.13-4.94,7.69-11.55,7.69-19.83s-2.47-15.11-7.41-19.74c-4.94-4.63-12.73-6.95-23.36-6.95h-25.95v53.94Z"/>
    </g>
    <g>
      <g>
        <path class="cls-2" d="M241.46,936.25c4.33,4.17,6.49,9.98,6.49,17.42s-2.16,13.22-6.49,17.35c-4.33,4.13-10.48,6.19-18.46,6.19h-13.25v-47.2h13.25c7.98,0,14.13,2.08,18.46,6.25ZM239.28,969.1c3.72-3.7,5.58-8.84,5.58-15.43s-1.86-11.81-5.58-15.53c-3.72-3.72-9.14-5.58-16.27-5.58h-10.22v42.09h10.22c7.13,0,12.55-1.85,16.27-5.55Z"/>
        <path class="cls-2" d="M289.84,960.12h-31.54c.09,3.27.81,6.03,2.15,8.27,1.34,2.24,3.12,3.92,5.31,5.04,2.2,1.12,4.59,1.68,7.19,1.68,3.59,0,6.59-.88,9.01-2.66,2.42-1.77,3.94-4.18,4.57-7.23h3.16c-.72,3.72-2.56,6.74-5.51,9.04-2.96,2.31-6.7,3.46-11.23,3.46-3.41,0-6.46-.76-9.14-2.29-2.69-1.52-4.8-3.71-6.32-6.56-1.52-2.85-2.29-6.17-2.29-9.99s.75-7.13,2.25-9.95c1.5-2.82,3.6-4.99,6.29-6.49,2.69-1.5,5.76-2.25,9.21-2.25s6.53.75,9.11,2.25c2.58,1.5,4.54,3.5,5.88,5.98,1.35,2.49,2.02,5.17,2.02,8.04,0,1.61-.05,2.82-.13,3.63ZM285.24,949.43c-1.28-2.24-3.02-3.91-5.21-5.01-2.2-1.1-4.57-1.65-7.13-1.65s-4.92.55-7.09,1.65c-2.18,1.1-3.95,2.77-5.31,5.01-1.37,2.24-2.1,4.98-2.19,8.2h28.65c.13-3.23-.44-5.96-1.71-8.2Z"/>
        <path class="cls-2" d="M326.22,943.95c2.73,2.67,4.1,6.62,4.1,11.87v21.38h-2.96v-21.18c0-4.35-1.1-7.68-3.3-9.99-2.2-2.31-5.18-3.46-8.94-3.46s-7.09,1.26-9.45,3.77c-2.35,2.51-3.53,6.23-3.53,11.16v19.7h-3.03v-36.51h3.03v7.73c1.03-2.73,2.75-4.83,5.14-6.29,2.4-1.46,5.17-2.19,8.3-2.19,4.35,0,7.89,1.33,10.62,4Z"/>
        <path class="cls-2" d="M345.52,943.31v24.14c0,2.69.49,4.54,1.48,5.55.99,1.01,2.73,1.51,5.24,1.51h4.1v2.69h-4.57c-3.18,0-5.53-.75-7.03-2.25-1.5-1.5-2.25-4-2.25-7.5v-24.14h-5.51v-2.62h5.51v-9.28h3.03v9.28h10.83v2.62h-10.83Z"/>
        <path class="cls-2" d="M397.09,960.12h-31.54c.09,3.27.81,6.03,2.15,8.27,1.34,2.24,3.12,3.92,5.31,5.04,2.2,1.12,4.59,1.68,7.19,1.68,3.59,0,6.59-.88,9.01-2.66,2.42-1.77,3.94-4.18,4.57-7.23h3.16c-.72,3.72-2.56,6.74-5.51,9.04-2.96,2.31-6.7,3.46-11.23,3.46-3.41,0-6.46-.76-9.14-2.29-2.69-1.52-4.8-3.71-6.32-6.56-1.52-2.85-2.29-6.17-2.29-9.99s.75-7.13,2.25-9.95c1.5-2.82,3.6-4.99,6.29-6.49,2.69-1.5,5.76-2.25,9.21-2.25s6.53.75,9.11,2.25c2.58,1.5,4.54,3.5,5.88,5.98,1.35,2.49,2.02,5.17,2.02,8.04,0,1.61-.05,2.82-.13,3.63ZM392.49,949.43c-1.28-2.24-3.02-3.91-5.21-5.01-2.2-1.1-4.57-1.65-7.13-1.65s-4.92.55-7.09,1.65c-2.18,1.1-3.95,2.77-5.31,5.01-1.37,2.24-2.1,4.98-2.19,8.2h28.65c.13-3.23-.44-5.96-1.71-8.2Z"/>
        <path class="cls-2" d="M409.4,927.44v49.76h-3.03v-49.76h3.03Z"/>
        <path class="cls-2" d="M423.52,927.44v49.76h-3.03v-49.76h3.03Z"/>
        <path class="cls-2" d="M467.36,960.12h-31.54c.09,3.27.81,6.03,2.15,8.27,1.34,2.24,3.12,3.92,5.31,5.04,2.2,1.12,4.59,1.68,7.19,1.68,3.59,0,6.59-.88,9.01-2.66,2.42-1.77,3.94-4.18,4.57-7.23h3.16c-.72,3.72-2.56,6.74-5.51,9.04-2.96,2.31-6.7,3.46-11.23,3.46-3.41,0-6.46-.76-9.14-2.29-2.69-1.52-4.8-3.71-6.32-6.56-1.52-2.85-2.29-6.17-2.29-9.99s.75-7.13,2.25-9.95c1.5-2.82,3.6-4.99,6.29-6.49,2.69-1.5,5.76-2.25,9.21-2.25s6.53.75,9.11,2.25c2.58,1.5,4.54,3.5,5.88,5.98,1.35,2.49,2.02,5.17,2.02,8.04,0,1.61-.05,2.82-.13,3.63ZM462.75,949.43c-1.28-2.24-3.02-3.91-5.21-5.01-2.2-1.1-4.57-1.65-7.13-1.65s-4.92.55-7.09,1.65c-2.18,1.1-3.95,2.77-5.31,5.01-1.37,2.24-2.1,4.98-2.19,8.2h28.65c.13-3.23-.44-5.96-1.71-8.2Z"/>
      </g>
      <g>
        <path class="cls-2" d="M545.21,941.19c1.95-3.65,4.64-6.51,8.07-8.57,3.43-2.06,7.27-3.09,11.53-3.09,5.38,0,9.91,1.26,13.58,3.77,3.68,2.51,6.37,6.03,8.07,10.56h-3.5c-1.34-3.59-3.57-6.42-6.69-8.51s-6.94-3.13-11.46-3.13c-3.63,0-6.93.86-9.88,2.59-2.96,1.73-5.29,4.21-6.99,7.46-1.7,3.25-2.56,7.05-2.56,11.4s.85,8.06,2.56,11.26c1.7,3.21,4.03,5.68,6.99,7.43,2.96,1.75,6.25,2.62,9.88,2.62,4.53,0,8.35-1.04,11.46-3.13,3.12-2.09,5.35-4.92,6.69-8.51h3.5c-1.7,4.53-4.39,8.05-8.07,10.56-3.68,2.51-8.2,3.77-13.58,3.77-4.26,0-8.1-1.02-11.53-3.06-3.43-2.04-6.12-4.89-8.07-8.54-1.95-3.65-2.93-7.79-2.93-12.41s.98-8.82,2.93-12.47Z"/>
        <path class="cls-2" d="M602.8,975.45c-2.73-1.52-4.87-3.71-6.42-6.56-1.55-2.85-2.32-6.17-2.32-9.99s.78-7.07,2.35-9.92c1.57-2.85,3.73-5.02,6.49-6.52,2.76-1.5,5.84-2.25,9.25-2.25s6.48.75,9.21,2.25c2.73,1.5,4.87,3.66,6.42,6.49,1.55,2.82,2.32,6.14,2.32,9.95s-.78,7.14-2.35,9.99c-1.57,2.85-3.73,5.03-6.49,6.56-2.76,1.53-5.84,2.29-9.25,2.29s-6.48-.76-9.21-2.29ZM619.45,973.27c2.31-1.19,4.16-2.99,5.55-5.41,1.39-2.42,2.08-5.4,2.08-8.94s-.7-6.46-2.08-8.88c-1.39-2.42-3.23-4.22-5.51-5.41s-4.75-1.78-7.4-1.78-5.1.59-7.36,1.78c-2.26,1.19-4.09,2.99-5.48,5.41-1.39,2.42-2.08,5.38-2.08,8.88s.68,6.52,2.05,8.94c1.37,2.42,3.18,4.23,5.45,5.41,2.26,1.19,4.72,1.78,7.36,1.78s5.12-.59,7.43-1.78Z"/>
        <path class="cls-2" d="M641.5,975.05c-2.58-1.79-4.02-4.35-4.34-7.67h3.09c.22,2.38,1.31,4.26,3.26,5.65,1.95,1.39,4.61,2.08,7.97,2.08,2.78,0,4.99-.71,6.62-2.12s2.45-3.15,2.45-5.21c0-1.43-.44-2.61-1.31-3.53-.87-.92-1.96-1.62-3.26-2.12-1.3-.49-3.07-1.03-5.31-1.61-2.69-.72-4.86-1.42-6.52-2.12-1.66-.69-3.07-1.74-4.24-3.13-1.17-1.39-1.75-3.25-1.75-5.58,0-1.7.51-3.28,1.55-4.74,1.03-1.46,2.46-2.61,4.3-3.46,1.84-.85,3.92-1.28,6.25-1.28,3.81,0,6.89.95,9.25,2.86,2.35,1.91,3.62,4.54,3.8,7.9h-3.03c-.13-2.42-1.08-4.39-2.82-5.92-1.75-1.52-4.17-2.29-7.26-2.29-2.6,0-4.75.67-6.46,2.02-1.7,1.35-2.56,2.98-2.56,4.91,0,1.7.48,3.08,1.45,4.14.96,1.05,2.15,1.86,3.56,2.42,1.41.56,3.28,1.15,5.61,1.78,2.56.67,4.61,1.33,6.15,1.98,1.55.65,2.86,1.59,3.93,2.82,1.08,1.23,1.61,2.88,1.61,4.94,0,1.88-.52,3.59-1.55,5.11-1.03,1.53-2.47,2.71-4.3,3.56-1.84.85-3.9,1.28-6.19,1.28-4.08,0-7.41-.9-9.99-2.69Z"/>
        <path class="cls-2" d="M677.24,943.31v24.14c0,2.69.49,4.54,1.48,5.55.99,1.01,2.73,1.51,5.25,1.51h4.1v2.69h-4.57c-3.18,0-5.53-.75-7.03-2.25-1.5-1.5-2.25-4-2.25-7.5v-24.14h-5.51v-2.62h5.51v-9.28h3.03v9.28h10.83v2.62h-10.83Z"/>
        <path class="cls-2" d="M726.93,940.69v36.51h-3.03v-7.93c-1.03,2.78-2.75,4.9-5.14,6.35-2.4,1.46-5.14,2.19-8.24,2.19-4.35,0-7.9-1.33-10.66-4-2.76-2.67-4.14-6.62-4.14-11.87v-21.25h2.96v21.05c0,4.35,1.1,7.68,3.3,9.98,2.2,2.31,5.18,3.46,8.94,3.46s7.09-1.25,9.45-3.77c2.35-2.51,3.53-6.23,3.53-11.16v-19.57h3.03Z"/>
        <path class="cls-2" d="M791.35,943.95c2.65,2.67,3.97,6.62,3.97,11.87v21.38h-2.96v-21.18c0-4.35-1.04-7.68-3.13-9.99-2.09-2.31-4.94-3.46-8.57-3.46s-6.79,1.3-9.08,3.9c-2.29,2.6-3.43,6.37-3.43,11.3v19.43h-2.96v-21.18c0-4.35-1.04-7.68-3.13-9.99-2.09-2.31-4.94-3.46-8.57-3.46s-6.79,1.3-9.08,3.9c-2.29,2.6-3.43,6.37-3.43,11.3v19.43h-3.03v-36.51h3.03v7.93c1.03-2.87,2.7-5.03,5.01-6.49,2.31-1.46,4.96-2.19,7.97-2.19,3.32,0,6.17.86,8.57,2.59,2.4,1.73,4.04,4.27,4.94,7.63.85-3.36,2.51-5.91,4.98-7.63,2.47-1.73,5.36-2.59,8.67-2.59,4.17,0,7.58,1.33,10.22,4Z"/>
        <path class="cls-2" d="M838.82,960.12h-31.54c.09,3.27.81,6.03,2.15,8.27,1.34,2.24,3.12,3.92,5.31,5.04,2.2,1.12,4.6,1.68,7.2,1.68,3.59,0,6.59-.88,9.01-2.66,2.42-1.77,3.94-4.18,4.57-7.23h3.16c-.72,3.72-2.56,6.74-5.51,9.04-2.96,2.31-6.7,3.46-11.23,3.46-3.41,0-6.46-.76-9.14-2.29-2.69-1.52-4.8-3.71-6.32-6.56-1.53-2.85-2.29-6.17-2.29-9.99s.75-7.13,2.25-9.95c1.5-2.82,3.6-4.99,6.29-6.49,2.69-1.5,5.76-2.25,9.21-2.25s6.53.75,9.11,2.25c2.58,1.5,4.54,3.5,5.88,5.98,1.35,2.49,2.02,5.17,2.02,8.04,0,1.61-.05,2.82-.13,3.63ZM834.21,949.43c-1.28-2.24-3.02-3.91-5.21-5.01-2.2-1.1-4.57-1.65-7.13-1.65s-4.92.55-7.09,1.65c-2.18,1.1-3.95,2.77-5.31,5.01-1.37,2.24-2.1,4.98-2.19,8.2h28.65c.14-3.23-.44-5.96-1.71-8.2Z"/>
        <path class="cls-2" d="M850.28,975.05c-2.58-1.79-4.02-4.35-4.34-7.67h3.09c.22,2.38,1.31,4.26,3.26,5.65,1.95,1.39,4.61,2.08,7.97,2.08,2.78,0,4.99-.71,6.62-2.12s2.45-3.15,2.45-5.21c0-1.43-.44-2.61-1.31-3.53-.87-.92-1.96-1.62-3.26-2.12-1.3-.49-3.07-1.03-5.31-1.61-2.69-.72-4.86-1.42-6.52-2.12-1.66-.69-3.07-1.74-4.24-3.13-1.17-1.39-1.75-3.25-1.75-5.58,0-1.7.51-3.28,1.55-4.74,1.03-1.46,2.46-2.61,4.3-3.46,1.84-.85,3.92-1.28,6.25-1.28,3.81,0,6.89.95,9.25,2.86,2.35,1.91,3.62,4.54,3.8,7.9h-3.03c-.13-2.42-1.08-4.39-2.82-5.92-1.75-1.52-4.17-2.29-7.26-2.29-2.6,0-4.75.67-6.46,2.02-1.7,1.35-2.56,2.98-2.56,4.91,0,1.7.48,3.08,1.45,4.14.96,1.05,2.15,1.86,3.56,2.42,1.41.56,3.28,1.15,5.61,1.78,2.56.67,4.61,1.33,6.15,1.98,1.55.65,2.86,1.59,3.93,2.82,1.08,1.23,1.61,2.88,1.61,4.94,0,1.88-.52,3.59-1.55,5.11-1.03,1.53-2.47,2.71-4.3,3.56-1.84.85-3.9,1.28-6.19,1.28-4.08,0-7.41-.9-9.99-2.69Z"/>
      </g>
      <path class="cls-1" d="M518.17,967.51l9.08,9.35h-3.92l-6.94-7.08c-2.34,2.7-4.82,4.69-7.46,5.95-2.64,1.26-5.63,1.89-8.97,1.89-3.07,0-5.82-.61-8.25-1.82-2.43-1.21-4.32-2.91-5.67-5.09-1.35-2.18-2.03-4.69-2.03-7.53,0-3.44.97-6.4,2.92-8.9,1.95-2.5,4.78-4.46,8.49-5.88-1.79-1.88-3.08-3.63-3.88-5.26-.8-1.63-1.2-3.36-1.2-5.19,0-2.93,1.04-5.32,3.13-7.15,2.09-1.83,4.82-2.75,8.22-2.75,2.02,0,3.87.41,5.57,1.24,1.7.82,3.03,1.99,3.99,3.51s1.44,3.28,1.44,5.29h-3.09c0-2.29-.78-4.1-2.34-5.43-1.56-1.33-3.44-1.99-5.64-1.99-2.43,0-4.4.68-5.91,2.03-1.51,1.35-2.27,3.11-2.27,5.26,0,1.6.41,3.13,1.24,4.57.83,1.44,2.13,3.08,3.92,4.92l17.53,18.01c1.28-1.83,2.73-4.08,4.33-6.74l3.85-6.67h3.3l-4.68,8.11c-1.65,2.89-3.23,5.34-4.74,7.36ZM507.76,973.14c2.27-1.15,4.46-2.98,6.57-5.5l-16.91-17.19-.21.07c-6.74,2.47-10.11,6.67-10.11,12.58,0,2.25.55,4.26,1.65,6.05,1.1,1.79,2.62,3.19,4.57,4.19,1.95,1.01,4.16,1.51,6.63,1.51,2.93,0,5.53-.57,7.8-1.72Z"/>
    </g>
    <path class="cls-2" d="M838.06,715.57h-12.98c-13.48-42.77-31.8-84.31-50.32-120.29-58.49-113.56-153.21-214.63-48.23-339.66,19.79-23.57,55.41-55.18,88.44-44.43.59,2.55-.25,5.01-1.72,7.09-3.46,4.92-26.78,18.25-33.48,23.13-28.74,20.93-50.78,40.7-63.48,75.03-34.44,93.09,22.19,159.13,62.86,235.9,27.58,52.07,47.55,106.67,58.91,163.22Z"/>
    <path class="cls-2" d="M622.25,715.57h-14.09c-.48-20.52-1.74-41.28-2.71-63-.11-2.47-1.12-6.43,2.45-5.47,3.6,23.03,11.33,45.04,14.32,68.21l.04.26Z"/>
    <path class="cls-2" d="M673.12,715.57h-23.12c-13.03-41.18-27.46-80.76-34.5-114.01-4.03-19.06-5.43-38.36-8.73-57.53l3.51-1.71c11.11,51.68,35.4,99.77,53.94,149.05,2.89,7.67,5.9,15.77,8.9,24.2Z"/>
    <path class="cls-2" d="M810.26,170.12l1.21,28.92c-46.82,3.61-98.55,10.24-136.69,39.77-16.43,12.72-32.09,33.24-38.31,53.23-1.2,3.85-3.7,20.66-4.49,21.42-2.02,1.92-2.03-.42-2.43-1.75-1.4-4.67-1.53-10.04-2.98-15.1-6.96-24.17-21.88-45.53-42.86-59.52-7.57-5.05-15.87-8.22-23.92-12.3,3.73-9.14,2.03-18.5,2.36-28.16,20.05,5.98,42.49,22.4,56.02,38.52,3.79,4.52,6.96,11.7,10.9,15.6.99.98,1.06,1.73,2.91,1.28,33.51-63.1,113.36-76.19,178.29-81.9Z"/>
    <path class="cls-2" d="M783.74,715.57h-21.92c-35.42-85.06-86.13-166.64-103.31-256.37l25.45,60.65c31.39,64.67,71.94,128.16,99.78,195.71Z"/>
    <path class="cls-2" d="M669.34,65.33c-3.01,34.48,29.64,53.96,57.51,64.74,23.62,9.14,50.19,13.44,72.16,26.61,1.33.8,5.99,2.64,5.21,4.4-.84,1.91-8.5,4.3-10.79,4.87-16.59,4.13-44.75-4.58-61.46-9.68-27.49-8.38-62.53-23.13-76.51-49.96-2.01-3.86-3.8-11.43-5.5-13.77-3.22-4.45-13.08-.83-17.49-.83-4.87,0-10.91-2.64-16.21-.56-8.35,24.59-28.95,48.32-55.27,53.64-2.29-7.46-1.09-15.55-1.1-23.29.59-1.73,8.6-4.23,11.06-5.8,17.16-10.87,22.1-31.22,23.71-50.37,14.84,4.87,35.46,4.78,51.24,3.66,8.14-.58,15.33-3.76,23.44-3.67Z"/>
    <path class="cls-2" d="M553.71,478.47c.41-7.8,3.66-17,3.71-24.7.06-10.38-2.18-21.35-1.29-32.5.96-12.03,5.44-23.91,6.05-36.1,1.3-25.79-5.19-51.82-2.42-78.33.18-1.76-1.06-3.53,1.76-3.02,12.72,16.12,19.9,39.43,22.14,59.77,4,36.34-6.2,80.14-26.11,110.89-.98,1.51-1.95,3.48-3.84,3.98Z"/>
    <path class="cls-2" d="M726.16,715.56h-21.87c-2.28-5.44-4.64-10.86-7.04-16.28-26.45-59.16-51.91-105.38-66.48-170.22-2.26-10.12-6.35-21.51-6.04-31.92.07-1.83-1.07-4.78,1.81-4.21,3.8,6.46,3.45,14.88,5.51,22.22,1.54,5.54,4.09,11.86,5.94,17.52,21.13,64.15,60.06,121.95,88.15,182.89Z"/>
  </g>
  <g id="Calque_3" data-name="Calque 3">
    <path class="cls-2" d="M838.06,715.57h-12.98c-13.48-42.77-31.8-84.31-50.32-120.29-58.49-113.56-153.21-214.63-48.23-339.66,19.79-23.57,55.41-55.18,88.44-44.43.59,2.55-.25,5.01-1.72,7.09-3.46,4.92-26.78,18.25-33.48,23.13-28.74,20.93-50.78,40.7-63.48,75.03-34.44,93.09,22.19,159.13,62.86,235.9,27.58,52.07,47.55,106.67,58.91,163.22Z"/>
    <path class="cls-2" d="M622.25,715.57h-14.09c-.48-20.52-1.74-41.28-2.71-63-.11-2.47-1.12-6.43,2.45-5.47,3.6,23.03,11.33,45.04,14.32,68.21l.04.26Z"/>
    <path class="cls-2" d="M673.12,715.57h-23.12c-13.03-41.18-27.46-80.76-34.5-114.01-4.03-19.06-5.43-38.36-8.73-57.53l3.51-1.71c11.11,51.68,35.4,99.77,53.94,149.05,2.89,7.67,5.9,15.77,8.9,24.2Z"/>
    <path class="cls-2" d="M810.26,170.12l1.21,28.92c-46.82,3.61-98.55,10.24-136.69,39.77-16.43,12.72-32.09,33.24-38.31,53.23-1.2,3.85-3.7,20.66-4.49,21.42-2.02,1.92-2.03-.42-2.43-1.75-1.4-4.67-1.53-10.04-2.98-15.1-6.96-24.17-21.88-45.53-42.86-59.52-7.57-5.05-15.87-8.22-23.92-12.3,3.73-9.14,2.03-18.5,2.36-28.16,20.05,5.98,42.49,22.4,56.02,38.52,3.79,4.52,6.96,11.7,10.9,15.6.99.98,1.06,1.73,2.91,1.28,33.51-63.1,113.36-76.19,178.29-81.9Z"/>
    <path class="cls-2" d="M783.74,715.57h-21.92c-35.42-85.06-86.13-166.64-103.31-256.37l25.45,60.65c31.39,64.67,71.94,128.16,99.78,195.71Z"/>
    <path class="cls-2" d="M669.34,65.33c-3.01,34.48,29.64,53.96,57.51,64.74,23.62,9.14,50.19,13.44,72.16,26.61,1.33.8,5.99,2.64,5.21,4.4-.84,1.91-8.5,4.3-10.79,4.87-16.59,4.13-44.75-4.58-61.46-9.68-27.49-8.38-62.53-23.13-76.51-49.96-2.01-3.86-3.8-11.43-5.5-13.77-3.22-4.45-13.08-.83-17.49-.83-4.87,0-10.91-2.64-16.21-.56-8.35,24.59-28.95,48.32-55.27,53.64-2.29-7.46-1.09-15.55-1.1-23.29.59-1.73,8.6-4.23,11.06-5.8,17.16-10.87,22.1-31.22,23.71-50.37,14.84,4.87,35.46,4.78,51.24,3.66,8.14-.58,15.33-3.76,23.44-3.67Z"/>
    <path class="cls-2" d="M553.71,478.47c.41-7.8,3.66-17,3.71-24.7.06-10.38-2.18-21.35-1.29-32.5.96-12.03,5.44-23.91,6.05-36.1,1.3-25.79-5.19-51.82-2.42-78.33.18-1.76-1.06-3.53,1.76-3.02,12.72,16.12,19.9,39.43,22.14,59.77,4,36.34-6.2,80.14-26.11,110.89-.98,1.51-1.95,3.48-3.84,3.98Z"/>
    <path class="cls-2" d="M726.16,715.56h-21.87c-2.28-5.44-4.64-10.86-7.04-16.28-26.45-59.16-51.91-105.38-66.48-170.22-2.26-10.12-6.35-21.51-6.04-31.92.07-1.83-1.07-4.78,1.81-4.21,3.8,6.46,3.45,14.88,5.51,22.22,1.54,5.54,4.09,11.86,5.94,17.52,21.13,64.15,60.06,121.95,88.15,182.89Z"/>
  </g>
</svg>