<?xml version="1.0" encoding="UTF-8"?>
<svg id="Calque_2" data-name="Calque 2" xmlns="http://www.w3.org/2000/svg" viewBox="0 0 722.32 264.05">
  <defs>
    <style>
      .cls-1 {
        fill: none;
      }

      .cls-2 {
        fill: #fbfbfa;
      }

      .cls-3 {
        fill: #e5c17c;
      }
    </style>
  </defs>
  <g id="Calque_1-2" data-name="Calque 1">
    <g>
      <rect class="cls-2" x="42.21" y="42.27" width="640" height="180"/>
      <g>
        <path class="cls-3" d="M580.11,249.54l-6.45-.24c-7.41,1.63-12.23,3.23-8.43,5.45-5.55-.59-4.72-1.71-5.46-1.81-.5-.07-6.33.65-11.96.49-9.26-.27-8.47-2.01-10.28-2.24-1.35-.17-6.08.15-9.27-.21-4.73-.54-2.99-2.56-9.98-3.02l-10.74,2.64-18.38-1.66c.82,1.88-9.34,3.39-18.02,2.38-3.78-.44-4.04-1.44-6.18-1.73-4.05-.55-4.82.58-7.88.97-2.57.33-7.4.32-8.78.8-1.58.55.44,2.57-1.83,2.94-1.45.23-5.27.01-7.24.3-3.94.57-6.45,4.08-21.4,1.62l-5.93,3.48c-6.58,1.05-18.78-1.18-20.77-.8-.32,3.06-16.56,2.89-23.47.59l-16.24.53c-4.75-.26-5.62-2.39-6.39-2.49-.82-.11-7.98,1.23-16.49-.44-2.92-.58-4.53-1.74-5.26-1.83-2.08-.25-6.18.31-8.17-.21-2.34-.61-1.99-2.74-7.14-3.69-11.47,3.19-14.91,3.8-30.33.78-6.53,4.08-20.17,3.51-27.65-.2-.31,1.56-13.41,2.11-14.38,2.5-1.27.52,1.16,1.65-1.64,2.51-1.84.56-6.7.68-9.26,1.17-2.23.43-2.8,1.37-4.72,1.67-5.84.89-16.55-.4-18.44-.06-1.95,3.94-11.43,4.05-24.39,2.03-3.05,2.9-19.7,3.11-23.81.19-22.39,2.2-18.25-1.58-21.7-2.27-.67-.14-10.08,1.24-16.99-.38-2.91-.68-1.92-1.56-3.47-2.05-1.45-.45-6.71-.4-9.67-1.16-3.77-.98-2.5-2.57-8.13-3.3-5.91,3.4-18.18,3.98-26.37.5-8.79,3.17-17.79,3.74-24.8,1.22l-38.97-14.02,6.74-18.22c.46-1.24,1.02-2.41,1.68-3.51-1.51-1.09-1.68-12.05-2.34-13.81-.79-2.1-2.44.39-3.15-5.45-.28-2.27-.02-5.44-.23-6.83-.22-1.45-1.62-1.38-2.04-4.28-.74-5.1-.21-13.43.71-17.68-6.9-3.21-2.32-18.94-2.35-22.59-.01-1.06-2.47-4.2-2.24-15.31.12-5.44,1.09-6.69,2.25-7.28-.25-6.11-1.1-12.14,0-17.62-.7,18.09,3.31,18.01,6.57,17.65-.34-12.63-3.67-19.96-6.57-17.65.83-4.15,1.87-4.22,2.14-5.76.11-.62-.43-8.88.73-14.66.92-4.6,1.99-2.33,2.25-3.36.19-.75-.05-5.95.47-8.81.76-4.16,3.1-1.24,3.8-7.64l-2.82-11.85,1.93-13.56L15.76,7.05l26.45,3.76,3.01.43c.3-2.18,10.8-3.65,18.52-2.31,3.37.59,3.09,1.72,4.98,2.09,3.5.69,5.82-.68,9.16-1.14,2.43-.33,7.99-.48,8.33-.58.95-.28-.35-1.56,1.17-2.3,1.47-.72,6.83-.86,9.76-1.42,1.79-.34,2.42-1.31,4.98-1.62,5.82-.71,11.78.22,17.68.24-.09-6.29,21.51-1.53,23.51-1.88,8.97-5.07,19.66-.25,22.77-.07,3.04.18,11.23-1.03,16.59-.18,5.83,3.92,3.44,1.91,12.26,2.21,9.39.32,10.2,2.87,11.56,3.13,1.42.27,4.98-.21,7.71.37,2.71.57,4.78,2.99,5.7,3.93,10.49-2.79,17.26-4.31,28.42-.47,10.83-3.84,19.28-3.77,27.48.48.67-1.6,13.37-2.04,14.37-2.43,1.33-.52-.75-1.7,2.1-2.55,1.88-.56,6.55-.63,9.09-1.11,2.21-.42,2.94-1.38,4.84-1.66,5.74-.85,15.71.55,17.58.23,2.55-3.98,11.53-4,23.58-1.87,3.33-2.91,19.14-3,22.73-.04,21.58-2.09,17.25,1.68,20.5,2.39.67.15,9.11-1.19,16.21.45,3.52.81,2.71,2.13,3.69,2.31,1.13.21,4.39-.07,5.91.1,7.91.85,3.48,3.16,10.48,4.18,9.15-3.66,14.23-3.33,27.42-.93,2.07-.13,3.83-2.22,11.96-2.34,10.98-.16,9.28,1.95,12.54,2.59,3.26.64,5.77-.62,9.34-1.08,2.28-.3,8.16-.49,8.4-.58.37-.13-4.32-1.72,1.77-2.98,2.81-.58,6.03-.11,7.69-.37,1.41-.22.74-1.41,3.59-1.85,4.7-.73,13.89-.7,17.35.5l7.26-3.65c7.19-.98,17.03,1.71,19.2,1.31.15-1.63,4.23-2.32,10.9-2.27,8.31.06,7.21,1.65,10.56,2.03,4.52.51,22.36-1.79,21.75,2.59,4.56-.83,12.44-.27,15.67.71,2.66.81,1.44,1.86,2.2,2.05.88.22,7.02-.15,9.8.71,2.28.7,1.5,2.55,5.7,3.57,11-3.45,16.53-3.53,29.36-.46,6.8-3.84,15.15-3.3,22.87-1.07l37.55,10.86-5.45,21.25c-.45,1.76-.98,3.49-1.55,5.15,1.7-.96,1.92,13.91,2.35,15.27.51,1.55,1.71-.74,2.52,2.6.53,2.21.54,7.58.96,10.58.37,2.61,1.31,3.58,1.54,5.83.72,6.82-.99,18.23-.75,20.47,4.21,2.67,3.4,13.77.68,28.07,2.14,6.06,1.85,11.96.99,16.67-.86,4.72-2.26,8.26-2.46,10.02-.38,3.46.03,13.57-1.22,19.39l-2.6,3.18c-.09,11.03-.6,13.67-2.56,19.53-.48,1.43-1.12.79-1.45,1.95-.46,1.62-.76,6.97-1.86,9.7-.85,2.13-1.91,1.78-2.75,2.38-.73,6.68.79,7.49,1.02,10.58.3,4.19-.28,10.2-1.09,14.51-.81,4.32-1.83,6.94-2.54,4.6.21-5.56,1.09-4.61,1.59-6.55.93-3.66.93-8.04.41-11.15-.52-3.11-1.55-4.96-2.55-3.74-2.18,2.68-2.47,7.01-2.79,18.12l-2.66-2.66,2.2-14.59c-.52-7.07-2.07-7.69-3.37-4.87-1.31,2.84-2.34,9.08-2.16,16.14l-5.66-5.63c1.39-4.6.8-20.24-.77-21.42-.83-.63-1.77,10.04-2.48,11.37l.25,7.08c-1.68,1.1-1.46-4.21-1.97-6.71-.19-.93-.64.22-.66.02-.13-1.31-.49-21.75-.54-25.33-.13-11.47.12-41.62.74-52.14.32-5.73,2.7-16.85-.01-14.96-.07-4.34-.18-6.48.89-5.63v-1.92c-1.32-2.26-1.55-8.9-1.56-16.32,0-7.41.22-15.61-.24-20.76l.99-3.68c-1.12-10.84-.99-23.06-.69-35.16v-.3s-.31,0-.31,0c-7.64-.19-15.2-.45-22.18-.49-4.78-.03-25.93.75-28.12.29l1.96-1.87c-4.08-.08-9.52-.17-9.8,1.17l5.87,1.17c-2.99.07-5.95-.39-8.81-.37-8.05.03-40.21.09-46.34-.35-4.26-.3-6.93-1.61-10.54-1.64-6.47-.05-2.68,1.39-2.97,1.42-7.42.96-5.55-1.55-6.86-1.4-3.4.34-.42,1.22-2.04,1.43-7.33.94-19.88.52-27.39.54-13.73.05-26.25.13-41.2,0-5.99-.05-13.38.55-20.63-.1l-.96-1.87-4.41.69,1.47.7h-7.86s-.97-1.39-.97-1.39l-4.9.46,3.9.93c-4.99-.33-9.35.69-13.01.8-9.17.29-65.93-.44-71.99-1.26-1.21-.16-1.12-.94-2.57-.97l-8.55.51,1.95.92-44.13.95,6.8-1.65-6.85-.72c-5.06.11-1.2,1.81-12.23,2.25-14.04.57-34.59-.59-48.62-.71-4.71-.04-27.34.58-28.39.35l2.92-1.88-10.79.48,1.98,1.4c-11.46.96-20.36-.16-30.97-.33-4.67-.08-14.79.38-18.76.18-3.98-.2-8.05-1.7-12.1-1.74-6.45-.05-2.62,1.38-2.92,1.41-8.39.85-3.62-1.07-7.83-1.4,1.71,2.81-20.8,1.95-28.46,1.97-13.78.05-26.2.14-41.22,0-5.87-.06-13.41.57-20.61-.1l-.96-1.87-4.43.69,1.49.7c-2.42-.06-4.76.25-6.97.35l-.66.03.02.61c0,.18.01.36.02.54.57,22.18.21,39.05-.23,60.74-.1,4.92.34,15.9.09,20.3-.22,3.93-3.59,15.58-.23,13.48-.03,14.19,1.37,27.16.47,41.23-4.52-2.49.1,9.51.38,15.23.23,4.77-.24,15.67-.27,21.03-.02,2.33.03,4.84.08,7.44v.34s.34,0,.34,0c4.86-.09,10.06-.17,15.14.18-8.68,1.94,5.28,2.82,1.97.47l7.68.06,1.19,1.35,4.9-.47-3.94-.93,23.53-.47-3.84,1.63c.57.61,8.67.25,9.82-.48l-4.03-1.62c2.38-.12,4.75.41,6.86.38,11.62-.15,37.44-.06,48.76.65,4.11.26,6.4,1.08,10.43,1.3l3.88-.48-1.1-.91c9.34.05,19.29-.83,28.3-.94,13.25-.17,32.24.28,47.15.35,13.88.07,29.33.58,43.08.41,3.68-.05,8.19-1.13,14.88-.32l-1.4,1.78c4.12.07,9.6.15,9.47-1.12l-5.25-1.13,61.06.87c1.85.12-1.76,1.31,4.57,1.31,6.55,0,2.11-1.27,2.4-1.3,8.07-.79,4.04.98,8.4,1.28-2.36-2.38,6.82-1.27,11.89-1.43,7.42-.24,6.66-.39,15.81-.38,16.08.01,33.19-.49,50.57-.32,3.41.03,7.57.53,11.33.38l1.9,1.61,4.07-.6-1.83-.6h7.87c-2.33,1.46,5.84,1.54,2.09.02,10.97-.77,20.25-.57,31.91-.53,11.01.03,38.81-.07,49.12.53,3.46.21,15.19,2.44,11.16-.08,14.23,0,26.31-1.08,40.96-.39-.8,3.42,12-.31,13.69,0l6.17,1.4-.03-1.18-4.45-.57c18.16.44,35.57-.37,53.95.86,5.26,2.01-2.02,4.11-.34,4.99.82.43,10.41,1.46,7.97,2.78-1.63.42-15.48-1.73-16.16-2.23-2.78-.07-1.85.14-1.53.52.6.72,3.76,2.54,6.82,3.03,3.84.6,10.59.17,12.84.88,1.3.41,4.24,3.39,4.15,3.94-.16,1.02-11.66,2.21,2.51,2.34,1.39,2.19,8.64,4.94-2.99,6.66-8.81,1.32-17.41.05-20.84-1.53l-1.95.05c2.01,1.02-11.32,1.78-12.13,2.11-1.01.42,1.88,1.26-.44,1.95-2.26.68-7.61.53-9.4.83-1.45.24-.46,1.24-3.12,1.64-5.3.8-16.7.04-18.37.33.16,2.88-9.02,3.64-22.29,2.12-3.09,1.15-4.82,1.9-12.59,2.12-10.58.3-8.03-1.34-11.94-1.4-4.8-.07-9.19,1.29-17.23.44,15.84.25,20.07-3.14,14.88-5.21ZM637.1,226.52c1.94-.53,7.21-.55,5.53-1.44l-29.2.45,22.58.97-41.68-.18,15.89,2.46c-10.66-.08-16.85-2.7-24.57-.71l5.95,2.31c-9.14-1.93-7.68-.86-15.35-.99-.71-.01-4.21-1.07-7.14-1.09l-1.29,2.26c-1.16.08-3.19-.04-3.94.03-.89-.88-1.02-1.9-4.92-2.62l-12.37,3.51,16.14.25-.64-1.1c.26-.12,1.42-.01,1.79-.05.38.37.45.76.83,1.13,11.27-.14,22.96-.04,33.81-.52,6.39-.3,36.07-2.86,38.44-3.64-.27.06.25.44-.66.68-1.86.5-6.19.3-3.34,1.44l20.06.22c-.62-1.51-1.71-2.55-10.09-3.42-.14.79-5.68,1.01-5.96,1.07.3-.1-1.07-.69.14-1.03ZM425.67,226.94l12.57-.5c-7.5-1.88-20.64-.16-29.78-.33l17.2.83ZM218.4,227.37c8.33-.98,28.81,1.24,30.18-1.42-15.22.32-30.13-.15-45.23.51l15.05.91ZM36.98,193.19l.73,12.78c1.3-.1.58-24.99.23-29.38l-.96,16.6ZM95.27,37.02l-12.74.52c5.81,2.03,19.18.43,27.45.46l-14.72-.97ZM295.22,36.59c-2.16.67-7.65.66-6.67,1.87l29.41-.47-21.56-1.4,39.23.46c-1.36-1.99-10.35-1.28-11.77-3.28l16.65,2.17,7.06-1.07-4.07-2.98c7.45,2.57,7.18,1.13,14.39,1.39.55.02,3.75,1.98,9.17.69.52-.98-2.55-2.41,3.89-2.08l2.94,3.29,14.72-4.22-14.51-.51-2.16.99c-1.8.07-.37-.68-1.33-.83-2.94-.45-27.67-.08-33.26.17-8.36.37-34.93,3.04-40.95,4.41.32-.08.14-.59,1.26-.91,2.28-.65,6.37-.35,4.56-1.88l-19.56-.5c-.76,2.04-.64,3.47,6.88,4.69.85-1.06,6.52-1.32,6.86-1.4-1.37.31-.27,1.13-1.17,1.41ZM505.42,37.04l-12.78.73c7.4,1.63,18.79.25,27.42.23l-14.64-.96ZM687.43,70.04l-.49-13.05c-2.04,6.27-.49,20.95-.52,29.92l1.01-16.87ZM566.87,226.6c9.12.71,11.16-.05,19.55-.26.26-1.43-7.23-.39-11.19-.4-4.11-.01-8.71-.45-13.03-.26-.22.98,1.48.66,4.67.91ZM543.05,226.51c2.9-.51-.76-.69-3.47-.75-12.18-.29-27,.97-40.18.52,5.77,2.14,12.68,2.21,20.13,1.75,7.46-.47,15.45-1.46,23.52-1.51ZM359.97,227.2c8.81.74,14.4.65,20.96-.81l-25.71-.16c-.53,1.24,1.68.71,4.75.97ZM309.2,230.32c11.67,1.11,17.56,2.26,30.23,1.22-.69.48-3.09.67.42,1.1,2.2.27,10.63.61,13.24.6.98,0,1.95.02,2.88-.04-1.9-.93,1.36-1.23,1.51-1.31.28.43.24.88.51,1.31,7.7-.29,19.59.24,26.55-.16,1.51-.09.85-.83,1.82-.82,9.15.07,9.85.47,19.38-.59,6.04-.67,3.82-.28,8.93-.68,2.16-.18,19.71-3.06,16.1-3.65l-41.66-.29,15.21,2.92c-6.86.27-14.16-1.88-19.82-2.05-.44-.01-1.41,1.35-6.48.88l7.24,2.98c-4.73-.32-7.27-.52-6.7-1.69-6.46.87-10.23.43-15.2-.8-4.07.73-4.11,1.73-5.89,2.63-3.9-6.12-7.06-1.26-18.04-.35,1.31-.92,4.2-2.58,8.75-2.7-2.55-3.04-17.69-.5-27.2,0-2.91.15-5.52.08-8.26.14,2.73-.57,13.56-1.26,18.45-1.78,2.52-.27,5.96.41,4.31-.93l-43.23.53,11.21,2.34c3.52.48,6.41-.09,9.27-.16-.68.14-3.78,1.26-3.52,1.34ZM154.19,227.65c8.68.94,11.32.36,19.7-.24,1.14-1.8-7-.51-10.93-.54-4.1-.03-8.44-.58-12.86-.36-.81,1.22,1.11.82,4.09,1.14ZM130.47,227.45c3.2-.61-.35-.85-3.03-.93-12-.38-27.53,1.07-40.44.49,11.24,4.82,27.3.64,43.46.44ZM74.01,226.51c-13.47.96-18.57,4.92-1.25,5.52,2.42.08,13.29-1.07,14.02-1.37,4.54-1.89-9.47-2.86-12.76-4.15ZM37.01,149.11c.88.17.97.93.95-2.99-.04-7.47-.36-14.68-.02-22.52-2.39,6.88-1.42,16.16-.93,25.51ZM33.94,79.1c-3.76,17.16-1.85,26.46,1.89,38.58,2.3-6.43.11-16.6-.4-25.78-.24-4.29-.24-7.27-.3-11.46l1.75,19.25,1.06,4.29-.47-41.19c-2.46,5.33-2.5,7.38-2.34,17.66l-1.18-1.33ZM161,36.84c-8.38-.94-14.51-.54-21.56.92l25.49.23c.96-1.23-1-.82-3.92-1.15ZM212.03,33.78l-22.46-1.9-16.76,3.99c3.59,2.07,17.65-.07,25.45-.49,3.65-.19,6.43-.14,9.85-.21-3.07.63-14.14,1.38-18.9,1.84-2.76.26-5.73-.46-4.63.98l43.16-.47c-6.92-2.43-8.66-2.56-19.62-2.34.72-.15,4.16-1.32,3.93-1.4ZM251.94,34.59c1.85-2.2-18.35-2.72-23.26-.83-4.63,1.79,11.42,4.98,18.14,3.64,1.01-.2,4.76-2.39,5.12-2.81ZM365.03,36.83c-8.5-.94-11.1,0-19.59.23-1.39,1.83,6.88.52,10.79.56,4.07.03,8.31.6,12.75.37.95-1.22-.98-.83-3.95-1.16ZM388.6,37.06c-3.25.61.27.85,2.92.94,11.91.39,27.47-1.06,40.26-.47-10.36-4.72-27.29-.65-43.18-.46ZM570.67,36.94c-9.42-.92-11.71-.3-21.17.12-1.44,1.86,8.69.55,12.76.56,3.95,0,8.35.61,12.74.37,1.02-1.34-1.39-.77-4.33-1.06ZM624.68,34.82l-30.07,2.24c-3.28.6.27.85,2.92.94,11.91.39,27.46-1.06,40.25-.47l-13.1-2.7ZM687.19,137.33c.96-8.33.46-11.34-.04-20.13-1.72-2-.54,6.85-.6,10.83-.07,4.14-.61,8.25-.45,12.84,1.11,1.48.76-.68,1.09-3.54ZM686.74,161.29c-.49-3.62-.74-.14-.84,2.51-.22,5.96-.06,13.06.05,20.3.12,7.23.19,14.58-.12,20.88,2.01-4.17,2.33-10.89,2.05-18.62-.26-7.75-1.12-16.47-1.14-25.06ZM487.05,230.74c15.91-.32,12.75-2.43,5.82-3.62-6.94-1.18-17.66-1.43-17.24,2.22,1.28.53,5.01.51,7.51.78,1.09.12.72.68,3.91.62ZM283.95,227.1c-6.94-.67-12.24-.1-14.02,1.51-5.28,4.78,30.99,3.04,22.41.06-.3-.1-7.9-1.53-8.39-1.58ZM32.26,47.97c.01,7.68,1.41,14.53,3.33,12.86v-7.86s1.41,1.98,1.41,1.98c.58-5.44.57-9.69.06-12.68l-.71-4.16,5.86-.99c2.79-.47,4.51-1.38,5.14-2.64l-1.01-.73c-1.27-.21-2.72-.3-4.12-.42l-8.13-.69-.81,9.63c-.06.71-.13,1.4-.22,2.07-.14.95-.79.46-.78,3.64ZM448.07,32.36c-5.98-.28-14.71,1.1-16.23,2.54,1.4,1.26,7.33.72,7.59.82,1.94.67-1.02,2.22,10.57,1.75l7.42-2.99-1.01-.73c-1.91-.32-4.21-.35-6.19-.64-.75-.11-.87-.69-2.15-.75ZM637.78,35.65h7.86s-1.98,1.41-1.98,1.41l11.78.26c5.88-1.17,7.59-2.75,3.59-4.37-10.91-.85-21.99-.69-21.25,2.7ZM548.02,226.5c-3.56,0-6.82.78-10.23.99-7.25.45-16.45.3-20.65,1.66,15.92,2.2,24.94,2.41,34.55-.54,2.86-.87,5.25-2.1-3.68-2.12ZM218.17,230.62c-1.04,2.13,18.32,2.28,21.11,1.3-1.58-1.72-1.23-3.71-9.98-4.11,1.95,2.07-3.06,1.12-5.64,1.39.83-.48,2.5-.74,1.67-1.38l-41.55-.41c2.27,1.78,12.12,2,16.48,3.67-6.54.3-17.33-2.64-21.21-2.57-11.03.19-4.69,2.53-2.39,4.01l-7.32-1.82-4.6.06-2.08.85c-1.61-1.49-4.16-2.09-9.92-1.33l-3.88,2.28c2.9-1.28,1.2-2.32-3.37-3.25l-14.41,4.21,44.96.43,3.68-.98,2.06.92c5.17-.81,11.56-.96,17.24-1.45,8.1-.7,16.03-2.34,24.64-3.24-1.23.7-.55,1.28-5.49,1.43ZM127.62,232.52c.74-.06,4.39-.97,7.84-1.9,1.72-.47,3.4-.94,4.64-1.31,1.24-.37,2.04-.64,2.03-.71-.43-2.21-12.92-.29-15.89-.07-2.2.16-25.95,1.27-23.17,2.21,7.87.78,15.01,2.5,24.57,1.78ZM35.12,120.67l-4.22-14.72-.47,15.68c1.06-1.45,1.21,1.42,1.41,1.97-.47.1-.94-.11-1.41-.01-.19,17.57.03,33.07,1.45,49.54.05.54.64,6.78.68,7.19.73,6.14,2.07,11.33,2.57,17.84-.07-.27-1.23-3.98-1.38-4.43-2.19-6.43-2.45,12.1-1.88,18.04,2.02,1.16,3.46.56,4.66-6.74-1.06-.85-1.32-6.52-1.4-6.86h1.41s.47-41.2.47-41.2l-3.28,13.73,2.33-18.7-1.24-4.92-2.97,3.98,1.85-6.06-.92-9.6c1.27.98,1.52-1.24,1.88-5.87-1.23-.13-1.96-3.56-2.82-5.92,1.09-.24,2.37.39,3.28-2.93ZM115.88,33.31l20.66,2.81c.69-1.03,5.41-.81,6.31-1.06,1.08-.3.04-1.05.75-1.21,1.7-.38,9.02.52,7.64-1.01l6.84,1.86,6.85-2.8c-.08,1.2.57,2.74,5.86,3.28l13.77-4.22-16.4-.5-1.28.96-3.19-.95c-7.4.19-16.34-.24-23.41-.03-3.73.11-2.57.93-3.68.92-17.02-.23-12.28.6-20.98,1.38-1.12.1-3.74-.54-7.46-.17-1.87.19-20.92,3.34-17.76,4.01l41.19.47c-1.99-1.9-12.52-1.72-15.69-3.75ZM377.14,35.89c5.96,2.27,10.61.5,17.39,0,2.14-.16,24.16-1.2,21.55-2.11-19.05-3.18-26.87-2.1-38.94,2.11ZM553.44,33.77l9.76-.94,4.94,1.87c3.27-.8,4.56-1.84,6.87-2.81.11.49.47,4.42,5.85,3.28.29-.06.35-.81,1.96-1.18,3.59-.81,8.02-1.57,11.81-2.34l-16.61-1.2c-.57.71-1.92.98-3,1.43-.1-.47.11-.94.01-1.41h-27.49c-.03.31,0,.63.01.94-7.65-1.03-10.59-.53-19.16.33-5.93.59-4.49.39-10.18.84-2.19.17-20.99,3.31-17.74,4l41.19.47-13.73-3.28,19.46,2.31,6.01-1.61c-4.01-.87-5.81-1.75-5.86-3.05,2.94.4,7.04,1.46,5.9,2.35ZM609.46,32.34c-3.11-.31-6.32-.52-9.74-.44-10.25.24-22.65,5.5-12.05,5.16l34.42-2.82-12.63-1.89ZM688.61,147.09c1.2,5.65,2.35,11.39,3.45,17.2l.83-18.23c-.95,1.17-1.16-2.45-1.23-2.67.43.11.86.49,1.28.59l.51-27.54-.88-2.63.92-3.61c-.75-5.17-.78-11.09-1.18-16.54-.61-8.51-2.19-17.43-3.07-26.44.71,1.48,1.32.98,1.42,6.13,2.32-1.96,2.36-13.25,1.45-21.33-.84-2.72-4.31,2.79-4.26,9.02,2.13-1.36,1.13,3.46,1.39,6.18-.48-1-.74-2.78-1.39-2.14l-.64,42.07c1.75-1.52,2.06-11.48,3.76-15.3l-2.9,20.64c1,1.02.73,5.82.96,6.83.27,1.2.99.37,1.13,1.16.34,1.9-.6,9.17.85,8.27l-1.83,6.4c.65,4.76,1.62,5.64,2.46,8.24-1.27-.33-2.15-1.89-3.05,3.7ZM687.75,147.7c-1.59,9.79-.45,10.29-.12,18.56.12,2.38.63,27.15,1.41,24.99,1.59-10.13,2.19-16.9,1.89-23.15-.29-6.26-1.42-12.06-3.19-20.4ZM426.72,230.87c5.96,1.33,13.18.52,20.13.52,1.27-.28-5.28-4.48-12.11-4.1,3.52,1.46-11.31,2.32-8.03,3.57ZM96.35,33.07c.11-1.87-17.92-1.69-19.59-.42-1.08.79,5.95,4.86,9.68,3.94-2.37-1.6,9.84-2.37,9.91-3.51ZM506.12,32.41c-7.04-.95-11.67-.86-19.39-.51.23,1.76.18,4.49,9.79,4.69-2.93-1.61,13.62-2.76,9.61-4.17ZM526.44,232.8c3.18-2.4-6.88-1.57-13.29-2.28-3.49-.39-2.61-1.32-6.77-1.11-6.84,1.1-5.94,2.9-1.81,4.12,4.12,1.23,11.48,1.87,17.36.76.38-.07,4.4-1.42,4.51-1.5ZM458.64,234.99l3.13-5.33c-3.29,1.05-10.41,2.23-13.56,3.09-6.11,1.69,7.39,2.83,10.42,2.24ZM308.12,233.01c.73-1.32-4.95-1.59-7.83-2.64-6.39,1.21-7.93,3.13-4.43,4.95.93.31,9.11,1.17,10.9,1.21,9.77.24,19.08-4.7,3.32-4.33l-1.96.81ZM253.67,230.5l-14.8,3.98c-1.05,1.59,7.58,2.31,11.72,1.39,2.83-.63,3.82-4.31,3.08-5.37ZM95.06,230.76c-5.76-.95-15.4,5.7,1.93,6.48,10.17.45,19.14-3.34,12.24-4.43-2.47-.51-6.21.3-7.71.18-.55-.04-6.15-1.83-6.46-2.23ZM33.71,67.68c-2.52-15.94-8.43-.59-5.95,12.17,3.72,19.08,3.59-7.34,5.95-12.17ZM213.97,30.96l1.03,1.41,4.85-.48.04,1.88c12.45-1.44,10.35-6.95-4.85-6.58-8.49.2-17.88,5.13-3.27,4.62l2.19-.84ZM266.98,33.77l15.5-4.06c.45-.37-1.32-1.89-1.99-1.99-10.43-1.58-14.95,4.5-13.51,6.05ZM408.4,31.12c1.77,1.41,7.77.27,9.35.4.66.05,6.21,2.58,9.1,2.25,11.88-2.55,4.02-8.22-12.03-5.91-3.71.53-7.8,2.17-6.42,3.26ZM488.61,29.29c-9.44-4.31-19.17,1.72-17.57,4.48,3.73-.48,5.57-1.83,8.53-2.65,2.15-.59,7.3-.95,9.05-1.84ZM630.93,33.76c10.83-2.5,9.33-5.6-5.94-6.56l-12.41,3.12c1.17,2.27,9.02,1.04,11.17,1.2.56.04,5.63,2.01,7.18,2.23ZM688.87,199.41c-.43,2.62.59,7.49,1.8,9.64,1.22,2.13,2.69,1.49,3.35-7.2.39-5.19-.13-10.52-.9-13.79-.77-3.28-1.78-4.52-2.24-1.72-.48,2.88.07,6.5-.07,7.99-.06.54-1.62,5.05-1.93,5.09ZM654.73,231.51c8.3,3.98,17.51-.75,13.11-2.76-4.18.27-4.89,1.12-7.07,1.65-1.48.37-5.72.49-6.04,1.11ZM275.29,236.77c.8-.26-1.65-1.55,3.56-1.6l-21.04-4.23c.24,1.38,1.04,3.12,3.89,4.37,1.71.76,13.18,1.59,13.6,1.45ZM68.55,235.44l-16.98-4.21c-.34,1.72-.42,4.73,7.31,5.48.4.04,8.24.2,8.57.14.23-.05,1.59-1.14,1.1-1.41ZM28.77,209.94c-.63,4.2-1.69,5.45-1.06,11.39l.83.94,12.79,14.43.87-.77,5.35-4.7c-2.47.18-4.01.62-5.35,1.1l-5.76,2.05-4.3-12.11c-.38-1.08-.78-2.02-1.08-3.21-.69-2.72-1.04-7.54-2.29-9.12ZM62.93,33.3l15.52-4.06-5.05-1.48c-1.57-.08-4.97.22-6.09.5-3.44.86-4.85,3.82-4.38,5.04ZM246.23,29.55l16.79,3.75c.14-3.18-.46-5.65-15.65-6.1l-1.13,2.35ZM659.52,28.09l-2.08-.89-3.47,1.65,19.12,4.45c1.27-2.14-2.16-3.78-6.12-5.59l-7.45.38ZM677.06,33.3l5.15-1.19,7.56-1.74,2.59,11.89,2.38,10.93c1.55,1.36,2.32-6.16,1.62-10.93l-2.34-15.95-11.81,1.8c-.27.04-.52.09-.77.14-3.15.66-5.01,3.96-4.39,5.05ZM466.24,230.45c-.83,2.75,8.68,6,19.85,3.31-3.3-.84-8.69-1.26-12.36-1.87-2.42-.4-3.78-1.31-7.49-1.44ZM52.69,27.74c-1.55-.22-7.33-.04-10.48.43l-15.8,2.33,1.71,11.77c.23,1.62.54,2.55.91,1.93l.39-1.93,2.97-14.78,9.84,1.98,16.76,3.37c1.05-.29-3.75-4.73-6.28-5.09ZM467.08,32.83c.35-1.63-.06-4.32-7.14-5.02-.39-.04-8.11-.21-8.43-.14-6,1.23,11.36,4.29,15.57,5.16ZM614.77,231.82c7.88,1.66,15.05,1.63,17.93.97,2.88-.67,1.46-1.98-7.67-3.03,2.33,1.37-12.57.96-10.25,2.06ZM423.13,235.56c5.83-1.63,2.11-2.83-2.33-4.43-4.27.75-6.52,1.56-13.27,1.35-2.64,1.3,11.42,3.64,15.6,3.08ZM32.3,185.4c-1.6-2.58-1.54-6.03-1.41-12.75-5.69,3.86-3.51,28.55,1.41,12.75ZM102.17,32.36c4.58-.81,7.18-1.69,13.72-1.41,8.11-1.9-27.72-7.13-13.72,1.41ZM514.36,27.42l-4.19.44c-4.02,1.37-2.01,3.44,3.03,4.5,3.41-1.06,6.93-1.59,12.76-1.4,2.36-.54-6.87-3.84-11.61-3.54ZM217.25,236.56c-.72-1.44,2.7-2.82-2.73-3.94l-13.83.76c-.82,2.31,6.9,3.57,16.57,3.17ZM307.24,31.9l14.62-1.64c-4.16-1.8-8.15-2.98-17.61-2.59.17.89-1.47,4.04,2.99,4.23ZM693.3,92.35c2.3,1.73,3.66-5.84,3.39-16.03-1.25-1.74-5.22-2.56-4.1,7.18.07.63,1.37,1.84.71,8.86ZM538.58,235.82c11.34,1.22,20.84-.8,18.21-2.9l-23.83-.93,5.62,3.84ZM331.37,234.16c-1.34-.03-.58-1.18-4.18-.79-4.25.49-3.12,2.22.71,3.5,3.83,1.28,10.38,2.1,16.82.8,1.39-.28,6.37-2.97,5.84-3.1-7.18-1.08-14.21-.29-19.2-.41ZM120.07,238.56c13.39,1.65,20.79,0,20.36-3.21-4.49-1.2-12.68-.37-16.22-.5-.98-.04-1.62-1.39-7-.85l2.86,4.56ZM25.73,95.13c-1.7,10.53.78,20.06,3.31,19.81l1.39-22.72-4.7,2.91ZM175.59,27.67c-3.11,3.19,11.04,1.77,15.87,1.96.94.04,1.49,1.4,6.82.86,5.94-4.53-17.88-7.76-22.69-2.82ZM379.59,29.09c3.83,1.18,12.86.34,15.92.54,1.03.07,1.3,1.37,6.83.85,5.22-6.11-21.4-7.53-22.75-1.39ZM607.97,28.49c-2.2-4.96-23.38-3.94-24.3.6,3.79,1.16,13.62.42,17.91.54.77.02,1.33,1.62,4.81.85.58-.13,1.77-1.59,1.59-1.99ZM696.03,178.8c.97-6.44,1.19-11.91.78-15.89-.4-3.99-1.43-6.49-2.87-7.19-1.19,3.96-.69,12.89-.92,16.48-.06.99-1.23.81-.93,6.68,1.3-.01,2.62-.04,3.94-.08ZM606.9,231.88l-15.52.71c3,2.26,11.88,3.02,17.51,2.74,5.63-.28,7.97-1.55-1.99-3.46ZM177.09,235.3c-.17,2.59,7.09,4.14,18.45,3.61,1.7-1.23,1.65-4.48-5.67-4.58-1.01-.01-.89.73-1.28.75-2.33.14-10.92.07-11.49.22ZM28.29,168.76c2.75-1.85.27-11.84.73-19.65-3.97.24-5.82,23.08-.73,19.65ZM345.45,29.07c-2.2-5.77-31.13-4.1-17.66.24,4.88,1.57,3.47.07,4.24-.1.49-.11,10.93.17,13.42-.14ZM532.03,25.37c-1.75,1.63-3.84,3.07,1.75,4.44l15.72-.74c-2.44-2.31-5.48-4.29-17.47-3.7ZM403.76,237.58c.99-1.35,1.99-2.48-1.79-3.76l-17.53.53c2.89,2.42,6.46,3.82,19.33,3.24ZM121.94,25.36c-2.09,1.48-1.73,2.68-.09,4.17l17.58-.46c-.61-2.65-5.66-4.22-17.49-3.71ZM698.68,99.93l-4.08-1.11.19,18.79c2.46,1.42,4.17-5.47,3.89-17.68ZM585.42,232.65c-4.74.68-20.77-.1-21.31.81-.46.69,8.79,3.19,10.83,3.36,10.93.94,14.86-2.71,10.48-4.17ZM379.82,237.52c.69-.85-1.62-2.18-1.37-3.13-3.87.65-19.04.21-19.84.33-5.48.83,5.96,5.7,15.41,4.36.39-.06,5.73-1.46,5.81-1.56ZM151.11,238.5c5.23,2.75,12.42,2.1,16.77.7,4.36-1.4,5.91-3.54.11-3.83-10.18.93-24.98-1.14-16.88,3.13ZM23.85,130.89c-.02,11.47,2.71,14.01,5.17,12.32l-.22-19.63c-.49-3.17-2.7-.81-3.39.67-.23.5-1.01,5.59-1.56,6.63ZM164.47,25.67c-10.34-5.03-27.11,2.76-16.06,3.36,11.04-.84,25.25,1.11,16.06-3.36ZM351.41,29.07c4.89-.75,20.67.33,21.49-.71l-8.17-4.36c-11.57-.58-17.78,2.81-13.32,5.07ZM567.85,23.99c-9.59-.9-15.33,3.18-12.45,5.09l19.63-.22c3.24-.5.77-2.67-.7-3.38-.2-.1-6.06-1.45-6.48-1.49ZM697.35,145.46c2.46-4.51,2.07-12.18.86-17.04-1.2-4.89-3.17-7.04-3.56-1.3.56,11.98-1.63,26.25,2.7,18.35ZM648.72,233.97c-2.79-1.41-21.41,1.76-18.21,2.18,11.02.1,16.44-.27,18.21-2.18ZM441.44,236.23c-2.47-1.71-20.13,1.57-20.85,2.5,11.45.1,18.45.04,20.85-2.5ZM231.5,237.66c-2.03-1.49-12.64.68-15.13,1.12-2.38.42-5.49.5-4.36,1.48,9.02.19,19.3-.02,19.49-2.6ZM26.43,204.05c1.91-1.53-1.98-22.38-2.57-19.62-.67,10.7.08,15.77,2.57,19.62ZM106.07,23.92c-10.82-.36-20.74.27-19.61,3.28.89.24,15.85-1.74,17.07-2.01.66-.15,2.78-1.23,2.54-1.27ZM290.5,26.48c2.17.56,2.45.92,5.91.49,1.69-.21,16.08-2.56,13.71-3.06-10.63-.33-16.2.04-19.62,2.57ZM494.55,26.48c1.6,2.01,22.97-1.86,19.62-2.57-10.63-.33-16.2.04-19.62,2.57ZM700.23,68.36c-.65-7.24-3.39-9.5-2.64-1.03.08.9.61,5.64,1.19,9.78.58,4.14,1.21,7.68,1.55,6.02.03-4.91.32-10-.1-14.77ZM498.61,237.64c-1.41-.14-8.4-2.24-11.74-.87-1.98.82,1.79,4.57,6.04,5.01l12-.04c1.47-1.32.66-2.66-2.23-3.93,2.64.26,10.23,1.09,11.35,1.17,2.22.17,17.17.17,17.7.04l-2-1.18c-10.34-.06-22.27-2.11-31.52-2.39-7.22-.21,2.66,1.57,4.47,2.36-.6-.06-2.26.01-4.07-.18ZM322.71,240.71c1.47-.81-3.81-.75-5.87-.93-4.21-.35-28.22-2.9-29.4-2.63.48,1.21,7.99,2.81,16.07,3.74,8.07.93,16.69,1.2,19.19-.18ZM94.3,242.11c5.82.54,11.59.34,17.57.32.43-1.08.31-1.21-3.56-1.76-6.93-.99-18.91-1.63-26.15-2.81l-4.54.86c6.97.45,9.65,2.74,16.68,3.39ZM24.12,54.99c.42-2.67,2.13-4.1,1.6-11.73-.27-.42-.55-.76-.85-1l17.35-17.35c.85-.94.88-2.02,0-2.99l-20.33,20.33c-1.91,1.67-3.41,6.85-2.66,16.36,1.52,2.23,3.1,2.27,4.64.23-.38,2.72-1.41,9.11-1.54,10.31-.23,2.05-.48,16.55-.33,17.16l1.45-1.17c.24-10,2.82-20.34,3.25-29.23.33-6.93-1.87,1.65-2.82,2.92.08-.59,0-2.24.26-3.86ZM202.25,22.74l33.31,3.99c-2.51-3.04-21.48-6.31-33.31-3.99ZM444.85,25.72c10.69.72,10.14-7-6.19-6.54-8.34.24-5.1,3.44-2.96,4.72-1.89-.27-11.63-1.57-12.67-1.66-1.94-.17-14.26-.34-14.79-.22l2,1.63c9.85.34,18.1,2.39,26.82,2.97,9.34.62.51-1.6-1.37-2.73,3.34.47,6.86,1.66,9.15,1.81ZM612.31,22.75c-1.7.84,3.45.82,5.4,1.03,3.86.4,26.29,3.32,27.92,2.95-.23-2.53-27.52-6.85-33.33-3.98ZM698.89,189.82c-.62-.63-.87-1.37-1.43,1.25-.13.6-1.14,7.64-2.06,14.58-.92,6.96-1.74,13.83-1.66,14.52,1.19-.62,2.42-4.55,3.41-10.18.98-5.63,1.71-12.96,1.74-20.17ZM663.6,234.83c-12.96-1.44-20.83,2.28-10.46,3.81,8.11-.12,18.23-2.98,10.46-3.81ZM439.39,239.97c1.88,2.22,8.12,1.92,12.8.87,4.68-1.05,7.79-2.84,3.56-3.67-6.48-1.29-17.97.88-16.36,2.8ZM295.39,244.25c4.66-2.05-1.89-4.47-8.6-5.53-6.72-1.06-13.67-.73-10.04,2.77.51.5,6.08,2.69,7.16,2.81,1.69.19,10.57.13,11.48-.05ZM232.91,243.84c8.2-.33,15.27-1.52,15.27-3.56,0-1.71-10.27-2.26-13.87-1.38-4.67,1.15-4.53,3.53-1.4,4.94ZM72.7,244.86c20.29,3.4,17.32-5.08,1.58-6.06-10.2-.64-8.29,4.93-1.58,6.06ZM25.02,217.79c2.15-11.36-2.66-22.28-4.9-13.56-.05,7.92,3.62,20.34,4.9,13.56ZM84.56,20.36c-11.35-.01-14.68,2.53-13.62,4.92,12.94,1.47,22.71-2.48,13.62-4.92ZM241.33,19.49c-2.34-.36-6.1-.37-8.81-.62-10.52,1.71-.22,6.3,8.29,6.85,10.27.67,8.3-5.03.53-6.24ZM284.06,25.71c9.19-.95,9.96-3.47,6.42-5.56-12.3.54-24.24,4.85-6.42,5.56ZM482.65,22.23c-11.43,6.07,27.1,2.97,11.72-2.05-5.21.36-9.38.81-11.72,2.05ZM639.57,19.45c-9.71,3.74,21.25,9.99,17.69,3.34-.35-.66-4.49-3.24-6.13-3.46-2.35-.32-9.01-.19-11.56.13ZM698.83,54.6c1.32,10.1,3.08,10.63,5.43,7.65-.01-7.5-1.21-14.08-2.48-16.4-1.27-2.32-2.6-.46-2.95,8.74ZM673.44,234.66c-2.79,1.66-4.1,3.73,7.72,4.51,1.48.01,6.65-.66,7.39-.87,5.54-1.57-1.93-4.61-15.11-3.64ZM472.05,242.7c13.05-.76,11.76-3.8,3.71-5.75-2.73.46-9.46.29-11.19.55-4.8.73-3.68,4.98,7.48,5.19ZM262.06,244.95c13.54-1.36,8.53-3.66,5.73-6.34l-13.52.61c-1.38,2.23-5.15,4.9,7.79,5.73ZM57.75,239.43l-11.83.32c-11.89,8.65,28.58,6.96,11.83-.32ZM51.24,25.31l12.68-.92c7.68-2.31-.29-7.41-12.2-5.02-7.74,1.55-3.85,4.12-.48,5.94ZM262.44,18.82c-11.72.4-9.75,4.54-7.23,6.5l13.7-.48c1.17-1.4,4.31-6.39-6.46-6.02ZM477.03,20.86c-.34-.52-7.09-2.17-8.78-2.13-13.64.55-13.93,4.07-7.15,6.37.58.08,10.91-.23,11.55-.33,1.28-.2,4.78-3.3,4.39-3.91ZM665.28,25.33l13.38-.56c10.69-8.8-26.67-7.06-13.38.56ZM597.66,240.48c15.75,1.66,24.35-.41,34.95-1.86l-11.05-2.01c-4.38.75-18.85.97-21.17,1.54-.74.18-3.31,2.07-2.73,2.33ZM389.42,243.8c13.06,1.5,24.93-.28,32.46-2.35l-10.24-2.18-21.9,1.58-.32,2.95ZM202.89,240.74c-11.6,1.37-24.56.59-26.24,4.52,13.95,2.23,24.4.32,35.08-1.76,1.28-.34-1.05-.95-2.11-1.22-1.7-.44-5.22-.78-6.73-1.54ZM18.97,149.18c-2.26,2.89-.68,31.74,2.32,33.4l2.13-7.3c-.69-4.84-.92-18.84-1.56-21.77-.32-1.44-2.41-4.94-2.88-4.33ZM141.39,18.75c-14.24-1.51-25.3-.58-35.27,2.13l8.92,2.54c4.81-.96,19.29-.78,21.95-1.5.46-.13,4.81-3.03,4.4-3.16ZM345.44,19.01c-13.92-2.44-23.78-.05-35.28,1.64l8.96,2.83c5.04-1.11,18.6-.74,21.87-1.58.86-.22,4.81-2.56,4.45-2.89ZM548.71,18.72c-11.98-1.81-24.21-.05-32.52,2.16l8.93,2.54,22.06-1.47,1.53-3.22ZM703.35,83.71l-2.66,10.76c1.04,13.02.13,25.85,3.86,28.41,2.1-16.77,1.06-25.87-1.2-39.17ZM574.06,238.81l-34.57-.28c-3.54,1.25,17.77,2.6,22.06,2.62,2.42.02,12.77-1.14,13.09-1.26.61-.24-.58-.75-.58-1.09ZM363.46,241.67l-32.59-.8c-4.23,1.49,19.85,3.47,24.93,3.19-.98-.75,14.28-1.7,7.66-2.4ZM22.45,94.19c-1.31-3.95-3.57,15.38-3.69,19.1-.18,5.33,1.4,8.72,1.35,14.23,1.91,6.21,1.77-31.21,2.34-33.33ZM162.94,21.34l31.41,1.17c4.25-1.41-18.42-4.18-23.03-3.64.66.77-14.58,1.68-8.38,2.47ZM573.01,21.34l31.41,1.17c4.77-1.58-18.2-3.69-23.07-3.65.71.82-14.51,1.66-8.34,2.49ZM143.63,245.65c1.36.02,7.91-1.53,10.65-1.68l-1.32-1.16-33.03-.38c3.07,1.41,17.43,3.13,23.71,3.22ZM366.99,20.39l1.35,1.17,32.05.47c-8.59-2.81-21.52-4.12-33.39-1.64ZM703.25,158.25c.09-1.45-1-9.27-1.03-12.26l-1.11.78c-.56,11.6-1.18,23.15-1.83,34.62,1.25-3,3.57-16.37,3.97-23.14ZM630.2,244.1c9.4-.8,15.8-1.3,20.43-3.17,1.24-1.4-8.07-1.6-12.87-2.28-1.79.04-2.71.28-3.95.46-7.34,1.05-11.82,3.66-3.61,4.99ZM558.11,244.65l1.55-2.16-22.47-2.32c-6.89.84-5.01,2.44.29,3.58,5.29,1.14,14.01,1.81,20.63.9ZM440.8,243.17l-14.65-1.36c-7.78,1.76-13.63,3.31-11.33,5.9,12.72.63,26.89-1.97,25.98-4.54ZM320.48,244.3l7.77,3.24c4.3,1.1,13.72.67,19.52.49,5.85-3.52-8.52-3.88-19.64-5.28l-7.65,1.56ZM217.68,243.48c-8.3,1.91-17.07,3.48-12.93,6.52l14.09-.53c5.54-1.1,13.14-2.26,12.26-4.23l-13.43-1.77ZM121.98,249.82c4.84.29,16.72-.06,16.36-1.71,1.39-1.57-16.94-4.12-21.68-4.21-11.06-.2-2.12,5.48,5.32,5.92ZM15.37,89.61c-.77,3.04-1.26,16.22-.46,19.27,3.28,6.46,7.69-20.11,3.79-26.46.08,7.13-2.4,3.54-3.33,7.19ZM102.15,20.42c8.24-1.88,16.03-3.36,12.84-6.38-4.32-1.6-29.35,2.38-26.35,4.65l13.51,1.73ZM199.31,20.47c10.63-.55,2.71-4.62-2.22-5.45-2.56-.43-16.33-.45-18.22.03-1.69,3.02,9.67,4.57,20.44,5.42ZM317.01,13.6c-9.93.86-21.19,1.53-24.25,4.53-.95.94,10.03,1.19,11.46,2.27,2.1.25,3.68-.16,5.26-.41,7.37-1.21,14.22-4.56,7.53-6.39ZM386.71,14.74c-13.33,2,9.54,5.2,16.97,5.83,14.56-1.66-3.99-7.78-16.97-5.83ZM615.87,18.99c-7.83-3.21-5.98-5.13-25.27-4.25-6.94,3.68,6.81,4.23,17.13,5.83l8.15-1.57ZM703.84,79.4c.51,3.47,1.54,8.63,2.67,12.28,1.13,3.64,2.37,5.78,3.38,2.98.6-1.65.06-13.51-.16-15.46-.23-2.2-.93-6.61-1.73-10.04-.8-3.43-1.7-5.9-2.29-4.38l-1.86,14.61ZM704.9,187.29c1.1-3.47,2.06-20.96.25-21.97-.67-1.9-1.99,3.31-3.08,9.19-1.1,5.9-1.98,12.49-1.88,13.77.54,7.09,3.54,2.74,4.71-.99ZM588.18,242.72c5.47-.83,4.05-1.88,2.72-3.05l-9.45.91,6.72,2.14ZM162.88,247.9l5.92-.05,1.6-3.7-9.95.97,2.43,2.78ZM13.74,176.55c.12,8.18,1.76,22.08,3.89,23.33,1.44.85,2.89-9.48,2.36-15.01-.4-4.09-5.31-17.53-6.24-8.32ZM16.35,138.28c.91,5.88,2.26,5.31,3.75,4.91l-.95-9.81-2.81,4.9ZM155.13,16.64c-.48-.91-12.68.13-9.71,2.78,1.28,1.14,8.54-.01,9.26-.3,1.49-.6.01-1.75.45-2.48ZM356.27,16.41c-5.88.91-5.31,2.26-4.92,3.75l9.81-.94-4.9-2.81ZM522.12,13.83c-8.07-.5-27.61,3.12-23.37,4.85l15.02,1.38c5.84-1.89,17.64-3.9,8.35-6.23ZM560.32,16.4c-5.82.91-5.33,2.24-4.91,3.75,1.81-.37,9.03-.84,9.48-1.01,1.79-.68.29-2.99-4.56-2.75ZM705.95,138.74c.84-3.61.37-7.22-.46-9.31-.82-2.1-1.98-2.71-2.47-.5l.52,11.1,2.4-1.28ZM378.39,246.08c4.91-.81,4.95-1.82,3.77-3.08l-9.6.59c-.98.68.61,2.8,5.83,2.49ZM531.98,247.64c13.09-.99-3.99-4.53-11.51-5.23-12.26-.43-5.44,6.53,11.51,5.23ZM308.32,250.81c27.85,2.26,14.99-6.1-4.32-5.68l4.32,5.68ZM110.39,252.68c8.18-1.23-4.34-6.15-13.34-6.49-9.48.08-3.27,5.2-.16,5.99,1.85.47,11.39.82,13.49.5ZM11.7,81.07c2.11,11.88,4.8-.02,6.46-7.84.75-11.93-7.7-8.67-6.46,7.84ZM223.08,16.25c-.39-2.93-2.9-4.93-16.75-4.5-8.82,1.92,8.35,7.95,15.41,6.52.32-.07,1.38-1.67,1.34-2.02ZM408.03,13.82c.04,1.02,10.38,4.46,14.92,4.48l4.58-.8c1.58-1.19-.21-4.36-4.1-5.2-5.95-1.28-15.47-.54-15.4,1.52ZM616.59,11.8c-12.54,1.74,9.45,7.79,15.31,6.49,3.21-2.08-2.52-8.27-15.31-6.49ZM705.75,212.19l1.45-14.16c-1.99-8.88-3.6.4-5.79,4.94l-.22,10.29c1.5-.33,3.02-.68,4.56-1.06ZM70.82,17.09c19,2.23,19.45-3.14,15.61-6.32-10.04-.29-25.72,5.13-15.61,6.32ZM713.31,62.96l.37-5.54c-1.26-1.32-.33-5.27-1.37-8.8-1.04-3.53-2.01-5.67-2.83-6.36l-27.26-27.26c-.38.43-.38.81,0,1.15l27.71,24.25-1.6,1.86c-1.2,1.4-1.71,7.77-1.16,19.83,2.11,2.55,3.99,4.21,6.15.87ZM660.31,245.6c18.38-1.12,19.99-6.15-5.2-4.82-2.27,2.02-3.53,3.12,5.2,4.82ZM509.64,249.3c4.89-3.14-2.14-6.76-21.35-5.22.7,2.32,7.06,6.34,21.35,5.22ZM464.18,245.1l-17.16-.77c-8.92,1.66-2.52,7.6,10.98,5.07,2.62-.49,7.3-3.7,6.18-4.3ZM296.32,252.55c4.58-1.56,3.78-3.52-.15-4.8-3.94-1.27-11-1.86-19.11-.61-.51.16,2.32,3.8,2.81,3.97,1.18.42,13.83,2.71,16.45,1.44ZM234.86,252.69l5.18.27c1.44-1.29,4.95-.33,8.46-1.74,8.68-3.51,3.72-5.58-14.9-4.61-.98,2.14-2.72,3.98,1.25,6.08ZM79.22,254.24c13.08-1.64,10.06-4.49,1.3-6.64l-13.84.49c-1.42.44.76,3.67,1.87,4.13.33.14,9.49,2.02,10.67,2.02ZM10.7,205.05c.85,18.41,7.73,24.7,6.5-.69-2.53-5.89-4.18-5.86-6.5.69ZM10.47,49.03c-2.32,15.74,8.67,17.45,6.36-6.76l-2.15-22.55,27.53-2.83c.25-.03.53-.05.81-.08,1.88-.76,1.1-2.24-.81-3.59l-5.51-3.89L13.16,42.27c-1.22,1.71-2.33,4.36-2.69,6.76ZM231.71,10.66c-7.08,2.64-4.98,3.99,3.88,6.47l12.92-.71c.54-.16-1.23-3.96-1.65-4.14-1.27-.55-11.83-2.86-15.15-1.62ZM289.49,10.76c-12.15.65-17,2.77-15.78,5.64,4.39,1,10.85,1.1,16.62.89,2.68-2.51,5.3-4.16-.84-6.54ZM435.91,10.36c-5.85,2.7-3.93,4.13,3.12,6.56l13.53-.49c1.51-.48-.65-3.53-1.76-4.12-.97-.52-11.11-2.74-14.89-1.95ZM493.4,10.8c-11.42.44-14.37,2.77-16.06,5.32.7,1.21,14.56,1.5,16.93,1.16,4.15-.59,7.02-5.74-.88-6.47ZM657.49,16.64c5.16-.74-4.82-7.68-15.42-6.25-9.64,1.3-3.5,8.96,15.42,6.25ZM678.36,241.56c-1.16,1.31,2.43,4.31,13.05,4.32,6.59-1.11,4.67-5.52-5.24-5.4-.91.01-.33.55-.76.6-1.28.15-6.25-.43-7.05.47ZM481.56,245.03c-3.29-.93-11.27-.2-11.98.14-3.42,1.64-.2,6.08,12.38,5.56-1.72-2.48,8.6-3.17-.4-5.71ZM266.86,254.07c6.52-2.2,9.36-5.15.13-7.26-1.55,1.08-8.16.43-8.78.53-4.14.67-2.03,6.63,8.65,6.73ZM47.62,248.34c-6.85.94.71,9.12,8.41,6.55,4.68-1.56,9.29-7.21-1.33-7.24-.84,0-.83.74-1.47.83-1.62.23-4.28-.33-5.61-.15ZM53.11,9.36c-.66,2.63-9.49,5.23.97,7.45l8.75-.4c3.19-2.46,3.87-6.95-9.72-7.04ZM471.08,16.2l1.63-.56c.2-2.19,3.57-6.46-9.52-6.28-3.2,2.85-11.89,5.3,1.91,7.51l.45-.84,5.52.17ZM667.24,9.36c-1.13,2.71-8.59,5.07.97,7.5,1.77-1.1,8.01-.38,8.63-.47,4.85-.78,3.18-7.8-9.6-7.03ZM258.21,9.85c-5.54,2.33-5.26,4.01-3.02,6.56l12.82-.44c1.58-.62,1.6-4.37.36-5.08-.24-.14-8.97-2.3-10.16-1.04ZM616.65,242.57c-6.42.11,1.15,3.86,11.45,2.68-3.35-.41-7.96-2.74-11.45-2.68ZM417.65,249.39c-6.79-.77-5.86-3.24-13.75-3.21.23,1.93,2.87,3.78,13.75,3.21ZM206.15,251.83c-4.08-1.1-8.15-2.12-8.82-3.64l-6,1.2c-.07.49,3.77,2.25,5.06,2.4,2.6.31,6.75-.01,9.75.04ZM12.12,174.61c1.02-5.08,3.67-4.32,3.75-11.76-2.11-.63-4.18,1.08-3.75,11.76ZM124.68,15.93c7.82-.39-2.72-4.82-10.76-3.75,4.71.55,5.91,3.99,10.76,3.75ZM322.81,13.13c1.7.6,1.54,3.31,5.93,2.8,5.11-.89,2.88-2.29.07-3.29l-10.82-.45c-.59.73,3.39.44,4.82.95ZM524,12.18c6.15.97,4.15,3.66,11.76,3.75.63-2.11-1.08-4.18-11.76-3.75ZM707.79,105.14c.35,5.1,1.47,4.71,2.45,1.8.98-2.9,1.81-8.34,1.49-13.08-.53,4.76-4.24,7.13-3.95,11.28ZM602.87,243.2c-10.78,1.31,1.94,4.81,9.82,3.47,4.4-.74-4.86-3.06-9.82-3.47ZM566.11,247.12c2.5,1.06,7.93.44,10.7-.55,2.77-.99,2.9-2.33-5.09-2.77,1.08.75-3.64,1.06-4.44,1.36-1.6.61-2.73,1.29-1.17,1.96ZM391.4,250.49c15.11,2.3,10.54-3.44,1.49-3.72-5.15-.16-9.48,2.48-1.49,3.72ZM353.47,249.94c-2.11,1.88,4.04,1.87,8.9,1.05,4.86-.82,8.4-2.45,1.19-3.84-3-.13-1.3.4-2.52.7-2.44.6-6.65,1.26-7.57,2.09ZM189.74,252.57c2.38-1.83-4.77-2.35-6.54-3.83-15.72.66-5.82,6.77,6.54,3.83ZM15.4,152.05c-2.06-11.23-4.82-7.06-4.69,6.86,1.88.8,3.5-.33,4.69-6.86ZM12.41,125.29c2,4.8,3.12-3.08,2.99-3.61-.08-.27-1.49-4.98-1.56-5.23-2.65-7.37-4.52,1.4-1.43,8.84ZM134.45,10.76c-11.04.95-1.67,3.09,1.11,4.7,7.94-.01,9.19-2.22,7.34-3.65l-8.45-1.05ZM334.45,13.12c.43.36,5.39,2.57,8.02,2.34,11.07-.96,2.58-6.18-6.65-4.65-1.42.24-2.06,1.73-1.37,2.31ZM377.79,10.77c-5.7-.28-17.6,3.91-4.91,4.69.6-.87,14.59-4.22,4.91-4.69ZM542.7,10.77c-6.74,1.4-1.72,3.63,3.86,4.68,9.51-1.73,8.81-4.25-3.86-4.68ZM584.81,10.77c-10.45.01-17.01,2.94-9.76,4.69,2.87.18,1.4-.43,2.68-.72,5.66-1.3,8.39-1.69,7.08-3.96ZM711.87,112.05c-1.68-3.4-2.47,4.13-3.97,5.36.01,8.62,1.53,11.05,2.82,9.42,1.27-1.61,2.32-7.39,1.15-14.78ZM155.31,251.78c5.16-5.05-22.95-.24-12.13,1.57l5.84.09c.17-.83,5.89-1.27,6.29-1.66ZM710.37,162.02c.39-4.13-.23-9.09-1.07-11.82-.84-2.73-1.88-3.26-2.29,1.28-.26,2.91.41,7.67,1.2,10.67.8,3,1.75,4.22,2.15-.13ZM589.37,244.22c-4.86.9-5.75,2.25-4.49,3.49,12.8.06,13.22-2.2,4.49-3.49ZM383.34,251.16l-3.2-3.36c-9.77.25-7.4,2.45-6.46,4.01l9.66-.65ZM162.71,253.94c9.51.6,7.89-3.14,6.5-4.21-7.38-.27-13.14,3.79-6.5,4.21ZM14.46,138.31c-1.08-5.74-2.49-7.72-4.21-6.86-.44,12.14,2.38,14.27,4.21,6.86ZM149.26,14.52c9.69-.64,8.18-2.19,7.82-4.22-11.07-.18-9.99,2.35-7.82,4.22ZM162.98,14.52c9.09.94,16.99-2.86,11.75-3.75-5.18-.88-15.12,2.28-11.75,3.75ZM360.14,10.3c-9.44-.66-8.41,3.1-6.83,4.22,7.13.31,13.18-3.78,6.83-4.22ZM557.64,10.84l1.69,3.69c7.32-.75,9.01-2.49,7.81-4.22l-9.51.54ZM708.25,133.01c.16,11.07,1.63,10,3.55,10.35.8-13.11-1.75-11.04-3.55-10.35ZM655.68,248.56c3.05-1.72-3.07-3.47-13.45-3.62-2.73,1.53,3.03,4.05,13.45,3.62ZM526.14,249.01c-2.41,1.64,9.94,1.46,14.33.76,2.39-.39,10.64-3.85.06-2.07-4.53.77-7.2,1.14-14.4,1.31ZM445.87,252.07c-.46-1.62-5.45-2.03-11-2.96-8.16.97-5.17,2.75-.23,3.75,4.94,1,11.81,1.23,11.23-.79ZM315.01,253.96c3.64,1.1,20.6-.99,19.54-2.69-5.37-1.37-4.21.3-6.46.62-3.89.55-18.72.36-13.09,2.07ZM223.38,251.72c-9.54.1-5.29,3.67-1.57,4.5,10.97,2.42,14.09-3.22,1.57-4.5ZM120.75,252.24l-18.13,1.93c-.52,3.59,20.8.7,18.13-1.93ZM6.96,197.15c1.83,7.81,4.73.58,5.16-8.79-1.96-3.93-4.93-1.55-5.16,8.79ZM10.23,74.55c-1.87-3.31-1.98,8.55-1.27,13.19.39,2.51,4.34,12.69,2.47,1.41-.8-4.83-1.17-7.61-1.2-14.59ZM90.49,7.03c-5.16,2.35,1.08,3.38,6.77,5.14,6.56.4,6.14-3.69,2.45-4.58-1.43-.34-7.86-.79-9.22-.57ZM214,8.89c-10.23-.38-18.79.58-17.65,3.28,5.32-1.06,10.28-1.9,17.64-1.89v-1.4ZM297.4,7.02c-7.06,1.63-1.36,3.88,3.97,5.16,11.44-.12,4.23-5.76-3.97-5.16ZM400.4,12.18c5.7-1.28,11.74-1.77,19.59-1.88-2.45-3.46-21.44-.89-19.59,1.88ZM501.49,7.02c-7.72,1.92-1.11,3.87,5.86,5.16,8.7.46,5.42-5.7-5.86-5.16ZM715.22,65.38c-.8.07-2.31,7.6-3.14,9.67-.53,7.86,3.63,6.42,4.49,3.33,1.42-5.13.13-13.12-1.35-13ZM707.59,186.7c.11,6.88.16,13.78.18,20.68,1.4,1.5,2-3.98,1.92-9.69-.08-5.71-.89-11.59-2.1-10.99ZM611.83,10.81c4.02-.34,16.76-.16,12.23-1.91-3.03-1.17-18.23.66-19.6,2.11-.85,1.06,2.95.83,5.31.53.27-.03.4-.59,2.06-.73ZM638.54,251.21c18.21-1.02,2.66-3.68-8.15-4.58-8.99.39-6.28,2.91-1,3.71,1.56.24,4.48.2,6.65.35.94.07,1.41.52,2.5.52ZM562.87,248.6c-11.04-1.2-26.05,2.42-19.7,3.93,6.1,1.41,25.2-2.06,19.7-3.93ZM430.02,256.38c10.88-2.21-1.8-3.97-10.81-5.27-16.31,1.47-2.58,5.24,10.81,5.27ZM329.67,254.89c-.28.41.03,1.65.97,1.93,10.27,1.18,20.66-1.6,21.03-3.59.19-.98-12.23-1.09-14.21-.8-.56.08-7.58,2.16-7.79,2.46ZM202.32,258.32c1.05.26,11.04,1.3,12.19,1.24,14.76-.95-1.11-5.51-7.4-5.83-10.55-.53-9.55,3.41-4.79,4.59ZM119.33,259.06c12.66.62,15.46-1.78,19.82-3.85-.16-.37-5.59-.98-7.51-1.06-10.03-.41-21.78,3.6-12.31,4.91ZM4.17,183.26c.25,2.54,1.43,4.93,2.08,4.94.8,0,4.1-9.84,4.01-12.55-.23-8.88-3.51-8.25-4.71-3.9-.36,1.3-.4,4.09-.68,6.02-.17,1.19-1.17.68-.7,5.49ZM5.6,88.49c-1.25,11.91,1.33,21.58,4.16,21.36.6-7,.39-14.24-1.07-19.01-.82-2.68-2.1-3.09-3.1-2.35ZM120.83,9.36c5.29-2.05-6.51-5.05-15.46-5.14-11.26,2.15-.39,4.47,7.85,6l7.61-.86ZM198.36,5.33c-11.09-.67-19.2,2.17-19.69,4.5,12.8,1.46,28.34-1.42,19.69-4.5ZM318.88,10.33c14.21-1.4,5.36-5.6-7.49-6.07l-6.85,1.65c-.49.62,4.47,2.24,6.38,2.8,1.15.34,6.28,1.67,7.96,1.62ZM384.7,9.82c11.17,1.32,23.67-1.31,21.31-4.16-13.58-1.46-20.84,1.04-21.31,4.16ZM515.35,4.23c-2.55.25-4.94,1.43-4.94,2.08,0,.8,9.84,4.1,12.55,4.01,8.27-.29,8.85-3.14,4.82-4.46-1.73-.57-4.6-.61-6.94-.94-1.15-.16-.68-1.17-5.49-.7ZM610.35,7.71c.4-.43.52-1.73-.29-2.04-10.48-1.19-20.14.91-21.26,3.49-.44,1.02,11.25,1.32,13.25,1.04.57-.08,7.99-2.17,8.29-2.49ZM719.68,87.72c.22-7.86-1.09-8.63-2.53-6.34-1.45,2.29-3.04,7.57-3.46,12.06-.41,11.41,2.83,12.65,4.22,7.88.16-.52,1.75-12.21,1.78-13.6ZM713.19,192.66c1.69-13.62-.39-20.59-2.31-24.62-1.09,6.88-1.28,14.99-.86,20.44.43,5.44,1.49,8.26,3.17,4.18ZM619.55,253.61c10.53-.3.57-4.54-3.58-5.48-15.92.52-12.3,5.17,3.58,5.48ZM406.69,259.06c10.74-.41.71-6.21-4.97-6.4-9.84-.32-11.65,7.03,4.97,6.4ZM368.08,253.21c-3.58-.64-13.39,1.49-14.91,2.13-14.74,6.21,25.09,4.9,14.91-2.13ZM190.6,262.15c12.39-.32,3.53-6.64-1.26-6.96-10.59-.7-15.73,6.7,1.26,6.96ZM147.89,255.49c-3.63,1.18-19.64,4.81-9.99,6.3,11.74,1.79,21.07-3.78,17.62-5.89l-7.63-.42ZM2.52,153.11c-3.54,16.77,5.87,14.7,6.29,4.61.31-7.47-4.59-12.67-6.29-4.61ZM130.6,1.84c-11.72-.02-6.59,5.85.02,7.05,11.72-.61,11.96-7.03-.02-7.05ZM180.53,2.34c-16.85-.4-18.11,3.42-17.55,6.55,7.46.38,7.21-.45,10.6-1.22,6.84-1.55,10.07-3,6.95-5.33ZM334.63,1.82c-11.85.23-4.47,6.71.09,7.06,10.51.81,16.55-6.54-.09-7.06ZM366.9,8.13c19.98,2.73,27.36-9.35,6.57-5.21-3.78.75-7.96,4.09-6.57,5.21ZM538.75,1.81c-9.86.19-4.5,6.69,1.97,7.07,9.2.54,14.05-7.38-1.97-7.07ZM581.42,2.67c-9.3.97-8.68,4.15-8.36,6.22,14.17.99,27.1-8.18,8.36-6.22ZM721.22,115.42c-.63-14.41-4.71-8.3-6.81-1.79-.6,5.76.89,10.13,2.63,11.16,1.73,1.03,3.77-1.4,4.19-9.37ZM713.22,151.14l-.88,8.12c.36,2.68,1.2,8.38,2.12,12.38.93,3.99,1.96,6.27,2.85,1.86,1.25-6.15.82-12.58-.26-16.98-1.07-4.42-2.75-6.84-3.83-5.38ZM593.87,255.05c12.65-.03,12.26-6.65-3.69-5.92-2.24,2.05-11.53,4.9,3.69,5.92ZM383.32,253.43c-10.34-.47-14.54,6.06-5.78,6.97,5.35.55,10.14-1.07,11.89-2.87,1.76-1.81.5-3.81-6.11-4.1ZM166,263.25c13.3-.09,12.35-7.02,3.03-7.48-6.99-.35-20.37,7.58-3.03,7.48ZM7.9,142.26c2.11-9.03-4.12-15.58-5.31-14.41-1.67,1.63-2.1,10.38-.65,14.76,1.15,3.46,4.9,3.94,5.96-.34ZM152.58.97c-10.5.93-13.85,6.08-2.4,7.32,7.69.15,12.15-4.82,10.2-6.32-.28-.21-4.94-1.25-7.8-1ZM362.22,6.57c9.68-4.05-1.06-7.32-10.3-4.58-6.76,2-1.68,9.58,10.3,4.58ZM558.53,8.39c8.88.63,16.5-5.97,8.38-7.42-15.67-.87-17.19,6.79-8.38,7.42ZM720.68,139.92c-.61-13.55-5.9-12.68-6.76-3.65-.29,2.93.69,7.26,1.8,10.8,1.11,3.54,2.37,6.29,2.78,5.85.38-.41.86-3.66,1.25-5.3.47-1.96,1.23-.22.92-7.7Z"/>
        <path class="cls-1" d="M652.32,192.38c-3.52-26.51-6.94-51.71-9.16-76.29-2.26-24.6-3.24-48.79-3.22-73.83l42.27,42.27H42.21l42.27-42.27v180l-42.27-42.27c100.94-.02,201.05.94,301.54,3.17,100.48,2.19,201.56,5.56,303.92,9.05l29.01,29.32-634.48-.29,1.02,1.02V42.27l-1.02,1.02h640l-1.02-1.02c-.01,59.76.12,119.44.3,179.28l-29.17-29.17Z"/>
      </g>
    </g>
  </g>
</svg>